<svg width="82" height="82" viewBox="0 0 82 82" fill="none" xmlns="http://www.w3.org/2000/svg">
<path d="M23.0971 75.1666H58.9037C68.3337 75.1666 72.0921 69.3924 72.5362 62.3541L74.3129 34.1324C74.7912 26.7524 68.9146 20.4999 61.5004 20.4999C59.4162 20.4999 57.5029 19.3041 56.5462 17.4591L54.0862 12.5049C52.5146 9.39575 48.4146 6.83325 44.9296 6.83325H37.1054C33.5862 6.83325 29.4862 9.39575 27.9146 12.5049L25.4546 17.4591C24.4979 19.3041 22.5846 20.4999 20.5004 20.4999C13.0862 20.4999 7.20958 26.7524 7.68791 34.1324L9.46458 62.3541C9.87458 69.3924 13.6671 75.1666 23.0971 75.1666Z" stroke="white" stroke-width="3" stroke-linecap="round" stroke-linejoin="round"/>
<path d="M35.875 27.3333H46.125" stroke="white" stroke-width="3" stroke-linecap="round" stroke-linejoin="round"/>
<path d="M41.0002 61.5001C47.116 61.5001 52.1043 56.5117 52.1043 50.3959C52.1043 44.2801 47.116 39.2917 41.0002 39.2917C34.8843 39.2917 29.896 44.2801 29.896 50.3959C29.896 56.5117 34.8843 61.5001 41.0002 61.5001Z" stroke="white" stroke-width="3" stroke-linecap="round" stroke-linejoin="round"/>
</svg>
