<?xml version="1.0" encoding="utf-8"?>
<!-- Generator: Adobe Illustrator 27.8.1, SVG Export Plug-In . SVG Version: 6.00 Build 0)  -->
<svg version="1.1" id="Layer_1" xmlns="http://www.w3.org/2000/svg" xmlns:xlink="http://www.w3.org/1999/xlink" x="0px" y="0px"
	 viewBox="0 0 70.5 63.7" style="enable-background:new 0 0 70.5 63.7;" xml:space="preserve">
<style type="text/css">
	.st0{fill:#3957D3;}
	.st1{fill:#FFFFFF;}
</style>
<g id="Group_4" transform="translate(-899 -222)">
	<path id="Path_1" class="st0" d="M903.7,285.7h61.1c2.6,0,4.7-2.1,4.7-4.7l0,0v-54.3c0-2.6-2.1-4.7-4.7-4.7l0,0h-61.1
		c-2.6,0-4.7,2.1-4.7,4.7V281C899,283.6,901.1,285.7,903.7,285.7"/>
	<path id="Path_2" class="st1" d="M945.6,273.5h11v-40.2l-11,6.2V273.5z"/>
	<path id="Path_3" class="st1" d="M922.5,273.5h-11v-40.2l11,6.2V273.5z"/>
	<path id="Path_4" class="st1" d="M933.9,273.5h5.7v-30.6l-5.3,2.9l-0.1,0.1l-0.1-0.1l-5.5-3.1v30.8H933.9z"/>
</g>
</svg>
