<?xml version="1.0" encoding="utf-8"?>
<!-- Generator: Adobe Illustrator 27.8.1, SVG Export Plug-In . SVG Version: 6.00 Build 0)  -->
<svg version="1.1" id="Layer_1" xmlns="http://www.w3.org/2000/svg" xmlns:xlink="http://www.w3.org/1999/xlink" x="0px" y="0px"
	 viewBox="0 0 258.9 63.7" style="enable-background:new 0 0 258.9 63.7;" xml:space="preserve">
<style type="text/css">
	.st0{fill:#3957D3;}
	.st1{fill:#FFFFFF;}
	.st2{fill:#808080;}
</style>
<g id="Group_4" transform="translate(-899 -222)">
	<path id="Path_1" class="st0" d="M903.7,285.7h61.1c2.6,0,4.7-2.1,4.7-4.7l0,0v-54.3c0-2.6-2.1-4.7-4.7-4.7l0,0h-61.1
		c-2.6,0-4.7,2.1-4.7,4.7V281C899,283.6,901.1,285.7,903.7,285.7"/>
	<path id="Path_2" class="st1" d="M945.6,273.5h11v-40.2l-11,6.2V273.5z"/>
	<path id="Path_3" class="st1" d="M922.5,273.5h-11v-40.2l11,6.2V273.5z"/>
	<path id="Path_4" class="st1" d="M933.9,273.5h5.7v-30.6l-5.3,2.9l-0.1,0.1l-0.1-0.1l-5.5-3.1v30.8H933.9z"/>
	<g>
		<path class="st2" d="M1013.1,257.2l-9.2-15h-6V273h6.5v-10.4c0-2.9-0.1-5.4-0.2-7.5c0-0.7-0.1-1.3-0.2-1.9l7.5,11.9h3l7.8-12.1
			c-0.1,0.8-0.2,1.6-0.2,2.4c-0.1,2.1-0.2,4.6-0.2,7.2V273h6.5v-30.8h-5.8L1013.1,257.2z"/>
		<path class="st2" d="M1049.8,250.1c-1.4-0.6-3-0.9-4.9-0.9c-2.1,0-3.9,0.4-5.7,1.2c-1.8,0.8-3.3,1.9-4.7,3.4l3.8,3.7
			c0.8-1,1.7-1.7,2.6-2.2c0.9-0.5,2-0.7,3.2-0.7c1.3,0,2.3,0.3,3,1c0.8,0.7,1.1,1.6,1.1,2.8v0.7h-3.8c-1.7,0-3.2,0.2-4.6,0.5
			c-1.3,0.3-2.4,0.8-3.3,1.4s-1.5,1.4-2,2.3s-0.7,2-0.7,3.2c0,1.4,0.3,2.6,1,3.7c0.7,1,1.6,1.9,2.8,2.4c1.2,0.6,2.5,0.9,4,0.9
			c1.1,0,2.2-0.2,3.3-0.7s2-1,2.9-1.8c0.1-0.1,0.2-0.2,0.3-0.3v2.3h5.9v-15.8c0-1.8-0.4-3.3-1.1-4.4
			C1052.3,251.6,1051.2,250.7,1049.8,250.1z M1047.7,267c-0.6,0.5-1.3,0.9-2.1,1.2c-0.8,0.3-1.6,0.4-2.4,0.4c-0.6,0-1.1-0.1-1.6-0.3
			c-0.5-0.2-0.8-0.5-1.1-0.9c-0.3-0.4-0.4-0.8-0.4-1.3c0-0.5,0.1-0.9,0.3-1.2c0.2-0.4,0.5-0.7,0.8-0.9s0.8-0.5,1.4-0.6
			c0.5-0.1,1.2-0.2,1.9-0.2h3.9v3.1C1048.1,266.6,1047.9,266.8,1047.7,267z"/>
		<path class="st2" d="M1077.6,250.3c-1.2-0.7-2.7-1.1-4.4-1.1c-1.3,0-2.5,0.3-3.7,0.8s-2.2,1.2-3,2.1c-0.2,0.2-0.4,0.4-0.6,0.6
			l-0.1-3h-6V273c0.4,0,0.8,0,1.4,0s1.1,0,1.8,0h3.1v-14c0-0.6,0.1-1.2,0.3-1.8s0.6-1,1-1.4c0.5-0.4,1-0.7,1.6-0.9
			c0.6-0.2,1.2-0.3,1.9-0.3c0.9,0,1.7,0.1,2.2,0.4c0.6,0.3,1,0.8,1.3,1.5c0.3,0.7,0.4,1.6,0.4,2.6V273h6.2v-14.2
			c0-2.1-0.3-3.9-0.9-5.3C1079.7,252.1,1078.8,251,1077.6,250.3z"/>
		<path class="st2" d="M1104.1,252.3c-0.2-0.3-0.5-0.5-0.8-0.7c-0.6-0.4-1.2-0.8-1.9-1.2c-0.7-0.4-1.4-0.6-2.2-0.9
			c-0.8-0.2-1.7-0.3-2.5-0.3c-2.1,0-3.9,0.5-5.6,1.5s-3,2.4-3.9,4.3c-1,1.8-1.4,3.9-1.4,6.2c0,2.3,0.5,4.3,1.4,6.1s2.3,3.1,4,4.2
			s3.6,1.5,5.7,1.5c1.3,0,2.5-0.2,3.7-0.8c1.2-0.5,2.2-1.1,3-2c0.2-0.1,0.3-0.3,0.4-0.5v1.7c0,1.4-0.2,2.6-0.7,3.5
			c-0.5,0.9-1.2,1.6-2.2,2.1s-2.2,0.7-3.8,0.7c-1.3,0-2.5-0.2-3.8-0.6s-2.3-0.9-3.2-1.5l-2.2,4.5c1.1,0.9,2.6,1.6,4.4,2.1
			s3.6,0.8,5.4,0.8c1.9,0,3.7-0.3,5.2-0.8c1.5-0.5,2.8-1.3,3.9-2.3c1.1-1,1.9-2.3,2.5-3.7c0.6-1.5,0.9-3.2,0.9-5v-21.5h-6
			L1104.1,252.3z M1103.4,264.8c-0.5,1-1.2,1.8-2.2,2.3c-0.9,0.6-2,0.8-3.2,0.8c-1.2,0-2.3-0.3-3.2-0.8s-1.6-1.3-2.1-2.4
			s-0.8-2.2-0.8-3.5s0.3-2.5,0.8-3.5s1.2-1.8,2.1-2.4s2-0.9,3.2-0.9c1.2,0,2.3,0.3,3.2,0.9s1.6,1.4,2.2,2.4c0.5,1,0.8,2.2,0.8,3.5
			C1104.2,262.6,1103.9,263.8,1103.4,264.8z"/>
		<path class="st2" d="M1134.6,252.5c-1-1-2.1-1.9-3.5-2.4c-1.3-0.6-2.8-0.9-4.4-0.9c-1.7,0-3.3,0.3-4.8,0.9
			c-1.4,0.6-2.7,1.4-3.8,2.5c-1.1,1.1-1.9,2.4-2.5,3.9c-0.6,1.5-0.9,3.2-0.9,5c0,2.3,0.5,4.3,1.6,6.1s2.5,3.2,4.4,4.2
			c1.9,1,4.1,1.5,6.6,1.5c1.1,0,2.2-0.1,3.3-0.4c1.1-0.3,2.1-0.7,3.2-1.2s1.9-1.2,2.8-1.9l-2.9-4.2c-1,0.8-1.9,1.4-2.8,1.7
			s-1.8,0.5-2.8,0.5c-1.5,0-2.8-0.3-3.9-0.8s-1.9-1.4-2.5-2.4c-0.3-0.6-0.6-1.2-0.7-2h16.6l0-1.9c0-1.7-0.2-3.2-0.8-4.6
			C1136.3,254.8,1135.6,253.5,1134.6,252.5z M1123.5,255.3c0.9-0.5,2-0.8,3.3-0.8c0.8,0,1.6,0.2,2.3,0.6c0.7,0.4,1.3,0.9,1.7,1.5
			c0.4,0.6,0.7,1.3,0.8,2.2v0.1H1121c0.1-0.5,0.2-0.9,0.4-1.3C1121.9,256.6,1122.6,255.8,1123.5,255.3z"/>
		<path class="st2" d="M1156.8,249.3c-0.5-0.1-0.9-0.1-1.5-0.1c-1.2,0-2.3,0.3-3.4,0.9s-2,1.3-2.8,2.3c-0.3,0.4-0.6,0.8-0.8,1.1
			l-0.1-3.8h-6V273h6.3v-12c0-0.8,0.1-1.5,0.4-2.1s0.6-1.1,1.1-1.6c0.4-0.5,1-0.8,1.6-1.1s1.2-0.4,1.9-0.4c0.5,0,1.1,0.1,1.6,0.2
			s0.9,0.3,1.2,0.4l1.7-6.8C1157.6,249.5,1157.2,249.4,1156.8,249.3z"/>
	</g>
</g>
</svg>
