<?xml version="1.0" encoding="utf-8"?>
<!-- Generator: Adobe Illustrator 27.8.1, SVG Export Plug-In . SVG Version: 6.00 Build 0)  -->
<svg version="1.1" id="Layer_1" xmlns="http://www.w3.org/2000/svg" xmlns:xlink="http://www.w3.org/1999/xlink" x="0px" y="0px"
	 viewBox="0 0 258.92 63.68" style="enable-background:new 0 0 258.92 63.68;" xml:space="preserve">
<style type="text/css">
	.st0{fill:#3957D3;}
	.st1{fill:#FFFFFF;}
	.st2{fill:#F6F7F9;}
</style>
<g id="Group_4" transform="translate(-899 -222)">
	<path id="Path_1" class="st0" d="M903.68,285.68h61.12c2.58,0,4.68-2.09,4.68-4.67c0,0,0,0,0,0v-54.33c0-2.58-2.09-4.68-4.67-4.68
		c0,0,0,0,0,0h-61.12c-2.58,0-4.68,2.09-4.68,4.68v54.33C899,283.59,901.09,285.68,903.68,285.68"/>
	<path id="Path_2" class="st1" d="M945.57,273.46h10.96v-40.22l-10.96,6.2V273.46z"/>
	<path id="Path_3" class="st1" d="M922.54,273.46h-10.96v-40.22l10.96,6.2V273.46z"/>
	<path id="Path_4" class="st1" d="M933.86,273.47h5.67v-30.62l-5.3,2.95l-0.09,0.05l-0.09-0.05l-5.48-3.1v30.77H933.86z"/>
	<g>
		<path class="st2" d="M1013.14,257.22l-9.22-15.03h-6.03v30.8h6.47v-10.43c0-2.9-0.07-5.4-0.2-7.48c-0.04-0.66-0.11-1.3-0.18-1.94
			l7.55,11.89h2.95l7.79-12.05c-0.08,0.79-0.15,1.57-0.2,2.37c-0.13,2.14-0.2,4.55-0.2,7.22v10.43h6.47v-30.8h-5.81L1013.14,257.22z
			"/>
		<path class="st2" d="M1049.84,250.1c-1.39-0.59-3.03-0.88-4.91-0.88c-2.05,0-3.95,0.4-5.7,1.19c-1.75,0.79-3.32,1.92-4.73,3.39
			l3.83,3.7c0.82-1,1.7-1.73,2.64-2.2c0.94-0.47,2.01-0.7,3.21-0.7c1.26,0,2.27,0.33,3.01,0.99c0.75,0.66,1.12,1.61,1.12,2.84v0.66
			h-3.78c-1.73,0-3.25,0.16-4.55,0.48c-1.31,0.32-2.39,0.79-3.26,1.39c-0.87,0.6-1.52,1.36-1.96,2.29s-0.66,1.99-0.66,3.19
			c0,1.41,0.34,2.63,1.03,3.67c0.69,1.04,1.63,1.86,2.82,2.44c1.19,0.59,2.52,0.88,3.98,0.88c1.14,0,2.23-0.22,3.26-0.66
			c1.03-0.44,1.98-1.04,2.86-1.8c0.1-0.08,0.17-0.18,0.26-0.27v2.29h5.9v-15.8c0-1.79-0.38-3.27-1.14-4.44
			C1052.31,251.57,1051.23,250.69,1049.84,250.1z M1047.66,267c-0.62,0.53-1.31,0.94-2.09,1.23c-0.78,0.29-1.59,0.44-2.44,0.44
			c-0.59,0-1.11-0.1-1.56-0.31c-0.46-0.21-0.81-0.5-1.08-0.88c-0.26-0.38-0.4-0.82-0.4-1.32c0-0.47,0.09-0.88,0.29-1.23
			c0.19-0.35,0.47-0.66,0.84-0.92c0.37-0.26,0.82-0.46,1.36-0.57c0.54-0.12,1.17-0.18,1.87-0.18h3.87v3.06
			C1048.11,266.56,1047.9,266.79,1047.66,267z"/>
		<path class="st2" d="M1077.64,250.28c-1.19-0.7-2.66-1.06-4.42-1.06c-1.26,0-2.48,0.26-3.65,0.79c-1.17,0.53-2.19,1.22-3.04,2.09
			c-0.2,0.2-0.38,0.41-0.55,0.62l-0.11-3.02h-6.03v23.28c0.38,0,0.84,0,1.36,0s1.11,0,1.76,0h3.12v-13.95
			c0-0.64,0.12-1.23,0.35-1.76c0.23-0.53,0.58-1,1.03-1.41c0.46-0.41,0.98-0.73,1.56-0.95c0.59-0.22,1.23-0.33,1.94-0.33
			c0.91-0.03,1.66,0.12,2.24,0.44c0.59,0.32,1.03,0.84,1.32,1.54c0.29,0.7,0.44,1.58,0.44,2.64v13.77h6.25v-14.21
			c0-2.11-0.3-3.88-0.9-5.3C1079.73,252.05,1078.83,250.98,1077.64,250.28z"/>
		<path class="st2" d="M1104.11,252.34c-0.24-0.26-0.5-0.5-0.79-0.74c-0.56-0.44-1.18-0.84-1.87-1.21
			c-0.69-0.37-1.44-0.65-2.24-0.86c-0.81-0.21-1.65-0.31-2.53-0.31c-2.08,0-3.95,0.51-5.61,1.54s-2.97,2.45-3.94,4.27
			c-0.97,1.82-1.45,3.9-1.45,6.25c0,2.29,0.48,4.31,1.45,6.07c0.97,1.76,2.29,3.15,3.98,4.16c1.69,1.01,3.6,1.52,5.74,1.52
			c1.29,0,2.52-0.25,3.7-0.75c1.17-0.5,2.16-1.15,2.97-1.96c0.15-0.15,0.29-0.31,0.42-0.47v1.68c0,1.41-0.24,2.57-0.73,3.5
			c-0.48,0.92-1.22,1.62-2.2,2.09c-0.98,0.47-2.25,0.7-3.81,0.7c-1.29,0-2.54-0.19-3.76-0.57c-1.22-0.38-2.3-0.89-3.23-1.54
			l-2.2,4.49c1.11,0.88,2.57,1.58,4.38,2.11s3.61,0.79,5.43,0.79c1.94,0,3.67-0.26,5.19-0.79c1.52-0.53,2.82-1.3,3.89-2.31
			c1.07-1.01,1.89-2.26,2.46-3.74c0.57-1.48,0.86-3.16,0.86-5.04v-21.52h-6.03L1104.11,252.34z M1103.38,264.8
			c-0.51,1-1.23,1.77-2.16,2.33c-0.92,0.56-2,0.84-3.23,0.84c-1.2,0-2.26-0.28-3.17-0.84c-0.91-0.56-1.62-1.34-2.13-2.35
			c-0.51-1.01-0.77-2.18-0.77-3.5c0-1.32,0.26-2.48,0.77-3.48c0.51-1,1.22-1.78,2.13-2.35s1.96-0.86,3.17-0.86
			c1.23,0,2.31,0.29,3.23,0.86s1.64,1.36,2.16,2.35c0.51,1,0.77,2.17,0.77,3.52C1104.15,262.64,1103.9,263.8,1103.38,264.8z"/>
		<path class="st2" d="M1134.58,252.5c-0.98-1.04-2.14-1.85-3.48-2.42c-1.33-0.57-2.79-0.86-4.38-0.86c-1.73,0-3.32,0.3-4.77,0.9
			c-1.45,0.6-2.71,1.45-3.76,2.53c-1.06,1.09-1.88,2.38-2.46,3.89c-0.59,1.51-0.88,3.17-0.88,4.99c0,2.29,0.52,4.33,1.56,6.12
			c1.04,1.79,2.51,3.2,4.4,4.22c1.89,1.03,4.1,1.54,6.62,1.54c1.08,0,2.17-0.13,3.26-0.4c1.08-0.26,2.14-0.66,3.17-1.19
			c1.03-0.53,1.95-1.16,2.77-1.89l-2.95-4.18c-1,0.79-1.92,1.35-2.77,1.67c-0.85,0.32-1.79,0.48-2.82,0.48
			c-1.5,0-2.79-0.28-3.89-0.84c-1.1-0.56-1.94-1.36-2.53-2.4c-0.34-0.6-0.56-1.25-0.71-1.96h16.59l0.04-1.94
			c0.03-1.67-0.22-3.21-0.75-4.62C1136.32,254.77,1135.56,253.54,1134.58,252.5z M1123.49,255.32c0.89-0.51,2-0.77,3.32-0.77
			c0.85,0,1.63,0.18,2.33,0.55c0.7,0.37,1.28,0.86,1.74,1.47c0.45,0.62,0.71,1.33,0.77,2.16v0.13h-10.63
			c0.11-0.49,0.25-0.94,0.45-1.34C1121.92,256.56,1122.6,255.83,1123.49,255.32z"/>
		<path class="st2" d="M1156.75,249.33c-0.46-0.07-0.95-0.11-1.47-0.11c-1.17,0-2.3,0.29-3.37,0.86c-1.07,0.57-2,1.34-2.77,2.31
			c-0.29,0.37-0.55,0.75-0.79,1.15l-0.11-3.83h-6.03v23.28h6.29v-12.01c0-0.76,0.12-1.45,0.37-2.07s0.6-1.15,1.06-1.61
			c0.45-0.46,0.98-0.81,1.58-1.06c0.6-0.25,1.24-0.37,1.91-0.37c0.53,0,1.05,0.07,1.56,0.2c0.51,0.13,0.93,0.27,1.25,0.42l1.67-6.82
			C1157.6,249.52,1157.21,249.41,1156.75,249.33z"/>
	</g>
</g>
</svg>
