<svg xmlns="http://www.w3.org/2000/svg" width="19.41" height="26.375" viewBox="0 0 19.41 26.375">
  <g id="Group_288" data-name="Group 288" transform="translate(10291.506 11138.741)">
    <path id="Path_537" data-name="Path 537" d="M14.344,8.7a4.2,4.2,0,1,0,4.245,4.2,4.236,4.236,0,0,0-4.245-4.2" transform="translate(-10296.145 -11142.659)" fill="#3957d3"/>
    <path id="Path_538" data-name="Path 538" d="M9.7,0A9.59,9.59,0,0,0,2.863,2.979,9.318,9.318,0,0,0,0,9.321c0,4.352,6.767,13.591,9.161,16.758a.74.74,0,0,0,1.184,0C12.731,22.9,19.454,13.629,19.41,9.321A9.97,9.97,0,0,0,9.7,0m0,14.415a5.43,5.43,0,1,1,5.483-5.43A5.451,5.451,0,0,1,9.7,14.415" transform="translate(-10291.506 -11138.741)" fill="#3957d3"/>
  </g>
</svg>
