<svg width="268" height="72" viewBox="0 0 268 72" fill="none" xmlns="http://www.w3.org/2000/svg">
<path d="M231.995 72H231.988C222.389 72 213.351 68.247 206.546 61.4415C199.742 54.636 195.996 45.5971 195.996 35.9901C196.002 16.1483 212.149 0 231.995 0H232.001C241.6 0 250.638 3.75296 257.443 10.5585C264.254 17.364 268 26.4029 268 36.0033C268 45.6037 264.248 54.6426 257.443 61.4481C250.631 68.2536 241.594 72 231.995 72ZM231.995 0.455905C212.4 0.455905 196.458 16.3928 196.458 35.9967C196.458 45.4782 200.158 54.3981 206.877 61.1243C213.595 67.844 222.514 71.5441 231.995 71.5507H232.001C241.475 71.5507 250.4 67.8506 257.119 61.1376C263.838 54.4179 267.544 45.4914 267.544 36.0165C267.551 26.535 263.851 17.6151 257.126 10.8955C250.4 4.16261 241.481 0.455905 231.995 0.455905Z" fill="white"/>
<path d="M257.734 27.83C257.734 42.2803 246.02 53.995 231.572 53.995C217.123 53.995 205.41 42.2803 205.41 27.83C205.41 13.3798 217.123 1.66504 231.572 1.66504C246.02 1.66504 257.734 13.3798 257.734 27.83Z" fill="#8CADDB"/>
<path d="M232.008 1.8501C213.146 1.8501 197.859 17.1394 197.852 35.9967C197.852 54.8607 213.14 70.15 231.995 70.15C250.85 70.15 266.144 54.8673 266.15 36.0034C266.15 17.1461 250.863 1.8501 232.008 1.8501ZM231.975 45.5377C219.99 45.5377 210.272 35.8183 210.279 23.8327C210.279 11.847 220.004 2.12761 231.981 2.13421C243.966 2.13421 253.684 11.8536 253.677 23.8393C253.677 35.8183 243.959 45.5377 231.975 45.5377Z" fill="#3CA3DD"/>
<path d="M232.001 70.2623C222.845 70.2623 214.243 66.6944 207.775 60.2258C201.307 53.7573 197.746 45.1479 197.746 35.9968C197.746 17.1064 213.12 1.73779 232.001 1.73779H232.008C250.896 1.73779 266.263 17.113 266.263 36.0034C266.256 54.8937 250.889 70.2623 232.001 70.2623ZM232.001 1.95583C213.232 1.95583 197.964 17.2254 197.958 35.9968C197.958 45.0884 201.492 53.6383 207.927 60.0672C214.355 66.4962 222.904 70.0443 231.995 70.0443H232.001C250.77 70.0443 266.038 54.7748 266.038 36.0034C266.045 17.232 250.777 1.96244 232.001 1.95583ZM231.981 45.6435C219.951 45.6435 210.173 35.858 210.173 23.8261C210.173 17.9984 212.446 12.5209 216.568 8.40458C220.691 4.28822 226.161 2.0153 231.988 2.0153C237.815 2.0153 243.292 4.28822 247.408 8.40458C251.53 12.5276 253.796 17.9984 253.796 23.8261C253.783 35.858 244.005 45.6435 231.981 45.6435ZM231.975 45.4254C243.886 45.4254 253.571 35.7391 253.571 23.8327C253.571 18.0645 251.325 12.6399 247.249 8.56316C243.173 4.48644 237.749 2.23995 231.981 2.23334C226.214 2.23334 220.796 4.47983 216.714 8.55655C212.637 12.6333 210.385 18.0579 210.385 23.8261C210.385 35.7325 220.07 45.4254 231.975 45.4254Z" fill="#3CA3DD"/>
<path d="M245.274 45.822C245.274 45.822 247.123 46.3109 249.066 45.2207C249.066 45.2207 249.052 46.0995 249.251 46.3175C249.396 46.4827 256.439 53.1231 256.439 53.1231L255.005 54.9995L245.274 45.9343C245.274 45.9343 245.168 45.7955 245.274 45.822Z" fill="white"/>
<path d="M244.435 46.813C244.435 46.813 244.818 48.7754 244.018 50.6651L245.009 50.7708L247.764 53.2683C247.764 53.2683 245.564 55.2241 243.899 56.1624C243.899 56.1624 243.761 56.2681 243.708 56.1624C243.655 56.0566 241.766 53.1957 241.766 53.1957C241.766 53.1957 241.468 55.7263 240.603 56.6645V56.9024C240.603 56.9024 240.966 56.8892 241.244 57.0081C241.521 57.127 241.587 57.2327 241.587 57.2327L243.549 60.2853C243.549 60.2853 243.635 61.2236 243.51 61.5671C243.391 61.9107 243.232 62.6375 241.495 63.0604C241.495 63.0604 241.356 63.5824 243.331 63.4436C245.267 63.3049 246.377 61.2566 245.895 59.3339C245.888 59.2942 245.875 59.2546 245.868 59.2149C245.868 59.2149 250.361 56.3804 252.052 54.1207C252.065 54.1075 252.072 54.0943 252.085 54.0744C252.092 54.0744 245.128 47.2755 244.435 46.813Z" fill="white"/>
<path d="M237.762 54.048C237.762 54.048 237.901 54.0282 237.927 54.2066C237.947 54.3916 240.378 61.7455 240.378 61.7455C240.378 61.7455 232.113 65.1219 222.164 61.2698L226.167 49.0264C226.167 49.0264 226.227 48.9802 226.227 49.0264C226.227 49.0727 227.013 51.2729 228.328 52.0988L228.315 52.2244C228.315 52.2244 227.634 52.2904 227.357 53.1494C227.079 54.0017 225.652 58.2965 225.652 58.4352C225.652 58.574 225.916 58.574 226.049 58.6136C226.187 58.6467 228.328 59.2876 231.274 59.3404C234.214 59.3933 236.87 58.8713 236.87 58.8713C236.87 58.8713 236.817 57.7283 235.707 57.279L235.635 57.1072C235.628 57.1138 237.379 56.0302 237.762 54.048Z" fill="white"/>
<path d="M221.186 51.9205C218.253 51.7355 216.377 52.8917 216.377 52.8917C216.72 52.0724 216.694 50.5065 216.694 50.5065C215.359 51.3919 214.13 51.1672 213.694 51.0747C213.258 50.9888 213.47 51.2862 213.47 51.2862C213.483 51.306 213.49 51.3324 213.503 51.3588C214.593 53.8762 212.102 54.233 212.102 54.233C209.988 54.0216 210.319 52.2178 210.338 52.013C210.352 51.8081 210.669 50.1959 213.424 49.5352C216.178 48.8745 215.571 48.8943 215.676 48.8084C215.782 48.7225 216.212 48.3062 216.04 48.0618C215.868 47.8173 215.538 48.0618 215.538 48.0618C215.452 48.0948 215.141 48.1477 215.141 48.1477C212.175 48.597 211.369 49.0132 211.369 49.0132C207.901 50.8633 208.707 53.8894 208.707 53.8894C209.982 58.541 213.979 56.1756 213.979 56.1756C216.912 59.1819 221.074 60.6884 221.074 60.6884C221.074 60.6884 223.089 54.537 223.129 54.352C223.175 54.1603 224.126 52.1055 221.186 51.9205ZM220.426 54.6955C220.261 55.2968 220.103 55.9972 219.944 56.0632L217.354 54.2066C217.354 54.2066 218.623 53.7441 219.944 53.9291C219.938 53.9357 220.585 54.0943 220.426 54.6955Z" fill="white"/>
<path d="M219.224 49.218C219.224 48.4251 219.865 47.7842 220.658 47.7842C221.451 47.7842 222.098 48.4317 222.098 49.218C222.098 50.0108 221.451 50.6518 220.658 50.6518C219.865 50.6518 219.224 50.0108 219.224 49.218Z" fill="white"/>
<path d="M228.097 65.2409C228.097 64.448 228.738 63.8071 229.53 63.8071C230.323 63.8071 230.964 64.448 230.964 65.2409C230.964 66.0338 230.323 66.6747 229.53 66.6747C228.738 66.6747 228.097 66.0338 228.097 65.2409Z" fill="white"/>
<path d="M233.018 65.1745C233.018 64.3816 233.666 63.7407 234.452 63.7407C235.238 63.7407 235.886 64.3882 235.886 65.1745C235.886 65.9674 235.245 66.6083 234.452 66.6083C233.659 66.6083 233.018 65.9608 233.018 65.1745Z" fill="white"/>
<path d="M244.144 31.7943L245.941 24.4866C245.941 24.4866 246.522 24.0439 248.141 24.0439C249.621 24.0439 250.354 24.4536 250.354 24.4536L251.477 29.6205C251.477 29.6205 250.09 33.7964 248.511 35.7257C247.302 37.1991 244.144 31.7943 244.144 31.7943Z" fill="white"/>
<path d="M248.002 36.0298C246.582 36.0298 244.197 31.9927 244.098 31.8209L244.091 31.8011L245.901 24.4537L245.914 24.4471C245.934 24.4273 246.529 23.9912 248.141 23.9912C249.614 23.9912 250.354 24.3943 250.38 24.4075L250.4 24.4207L251.537 29.6207L251.53 29.6339C251.517 29.6735 250.123 33.8427 248.557 35.7522C248.405 35.9373 248.214 36.0298 248.002 36.0298ZM244.197 31.7812C244.375 32.0786 246.681 35.9174 248.002 35.9174C248.187 35.9174 248.346 35.8381 248.478 35.6862C249.991 33.8427 251.338 29.8717 251.431 29.6074L250.308 24.4802C250.182 24.4141 249.456 24.0903 248.147 24.0903C246.707 24.0903 246.093 24.4471 245.994 24.5132L244.197 31.7812Z" fill="#0D6E38"/>
<path d="M250.546 24.2951C250.546 24.2951 249.515 23.8193 248.141 23.8193C246.767 23.8193 245.749 24.2951 245.749 24.2951L245.954 24.4602C245.954 24.4602 246.74 24.044 248.147 24.044C249.555 24.044 250.347 24.4338 250.347 24.4338L250.546 24.2951Z" fill="#0D6E38"/>
<path d="M250.473 24.2093L249.865 21.3352H249.74V21.5796H249.627V21.6721H249.541V21.6391H249.436V21.4937L249.376 21.4409H249.297V21.17H249.171V21.4012H249.079L249.026 21.4541V21.5466H248.934V21.5136H248.881V21.3946L248.828 21.3418H248.755V21.0775H248.616V21.3285L248.491 21.3814V21.4937H248.319V21.3616L248.266 21.3087H248.194V21.0444H248.062V21.3153H247.995L247.923 21.388V21.4805H247.771V21.3484L247.731 21.3087H247.639V21.0775H247.507V21.3352H247.441L247.374 21.4012V21.4871H247.275V21.5334H247.203V21.4475L247.156 21.4012H247.077V21.17H246.958V21.4409H246.892L246.826 21.5003V21.6325H246.727V21.6589H246.668V21.5598H246.535V21.3285H246.397L245.815 24.2027C245.815 24.2027 246.707 23.8129 248.128 23.8129C249.555 23.8195 250.473 24.2093 250.473 24.2093Z" fill="white"/>
<path d="M245.743 24.3017L246.35 21.2822H246.588V21.5201H246.72V21.5993H246.78V21.4936L246.872 21.4011H246.912V21.1302H247.137V21.3549H247.19L247.262 21.4342V21.4408H247.328V21.3879L247.427 21.2888H247.467V21.0311H247.705V21.2624H247.764L247.83 21.3284V21.4276H247.883V21.3615L247.982 21.2558H248.022V20.9849H248.26V21.2558H248.299L248.379 21.3351V21.4342H248.445V21.3483L248.57 21.2954V21.0245H248.815V21.2888H248.854L248.94 21.3747V21.4672L248.98 21.4606V21.4408L249.066 21.3615H249.132V21.1302H249.363V21.4011H249.409L249.495 21.487V21.5993H249.581V21.5399H249.693V21.2954H249.918L250.559 24.3083L250.466 24.2687C250.46 24.2621 249.541 23.8789 248.141 23.8789C246.747 23.8789 245.855 24.2621 245.848 24.2687L245.743 24.3017ZM246.436 21.3879L245.881 24.1299C246.146 24.0308 246.965 23.7732 248.128 23.7732C249.29 23.7732 250.129 24.0374 250.4 24.1299L249.819 21.3879H249.786V21.6324H249.674V21.7249H249.489V21.6918H249.383V21.5201L249.356 21.4936H249.244V21.2227H249.224V21.4474H249.099L249.072 21.4738V21.5993H248.874L248.868 21.5663H248.815V21.4143L248.795 21.3945H248.689V21.1302H248.65V21.3615L248.531 21.4143V21.5399H248.253V21.3813L248.233 21.3549H248.134V21.0906H248.108V21.3615H248.002L247.962 21.4011V21.5267H247.711V21.3681L247.698 21.3549H247.579V21.1302H247.553V21.3879H247.46L247.427 21.4276V21.5399H247.328V21.5861H247.15V21.4738L247.137 21.4606H247.024V21.2359H247.011V21.5068H246.912L246.879 21.5399V21.7051H246.78V21.7249H246.621V21.6258H246.489V21.3879H246.436Z" fill="#0D6E38"/>
<path d="M248.405 23.3369H247.877V23.8192H248.405V23.3369Z" fill="white"/>
<path d="M247.929 23.3833H248.352V23.7665H247.929V23.3833ZM247.824 23.8722H248.458V23.2842H247.824V23.8722Z" fill="#0D6E38"/>
<path d="M219.581 31.7878L217.784 24.4735C217.784 24.4735 217.202 24.0308 215.584 24.0308C214.104 24.0308 213.371 24.4338 213.371 24.4338L212.248 29.6007C212.248 29.6007 213.635 33.7766 215.207 35.7059C216.416 37.1925 219.581 31.7878 219.581 31.7878Z" fill="white"/>
<path d="M215.716 36.0229C215.505 36.0229 215.313 35.9304 215.161 35.7454C213.595 33.8359 212.201 29.6667 212.188 29.627L212.182 29.6138L213.318 24.4139L213.338 24.4006C213.371 24.3874 214.104 23.9844 215.571 23.9844C217.183 23.9844 217.777 24.4205 217.804 24.4337L217.817 24.4469L217.823 24.4667L219.627 31.8008L219.614 31.8207C219.521 31.9858 217.143 36.0229 215.716 36.0229ZM212.3 29.6072C212.386 29.8715 213.741 33.8425 215.247 35.6859C215.379 35.8445 215.531 35.9238 215.716 35.9238C217.037 35.9238 219.343 32.085 219.521 31.7876L217.731 24.5196C217.632 24.4535 217.017 24.0967 215.584 24.0967C214.269 24.0967 213.542 24.4271 213.417 24.4865L212.3 29.6072Z" fill="#0D6E38"/>
<path d="M213.179 24.2887C213.179 24.2887 214.21 23.813 215.584 23.813C216.958 23.813 217.982 24.2887 217.982 24.2887L217.771 24.4473C217.771 24.4473 216.984 24.031 215.577 24.031C214.17 24.031 213.377 24.4209 213.377 24.4209L213.179 24.2887Z" fill="#0D6E38"/>
<path d="M213.252 24.2025L213.86 21.3284H213.992V21.5728H214.097V21.6653H214.183V21.6323H214.289V21.4935L214.342 21.4341H214.421V21.1632H214.547V21.3878H214.639L214.692 21.4407V21.5332H214.791V21.5001H214.844V21.3812L214.897 21.3284H214.97V21.0641H215.108V21.3151L215.227 21.368V21.4737H215.399V21.3416L215.452 21.2887H215.524V21.0244H215.657V21.2953H215.729L215.802 21.368V21.4605H215.954V21.3284L215.994 21.2887H216.086V21.0773H216.218V21.3416H216.284L216.35 21.4076V21.4935H216.449V21.5398H216.522V21.4539L216.568 21.4076H216.648V21.183H216.766V21.4539H216.833L216.899 21.52V21.6521H216.998V21.6719H217.057V21.5728H217.189V21.335H217.328L217.909 24.2091C217.909 24.2091 217.018 23.8193 215.591 23.8193C214.17 23.8127 213.252 24.2025 213.252 24.2025Z" fill="white"/>
<path d="M217.975 24.2952L217.883 24.2555C217.876 24.2489 216.984 23.8657 215.59 23.8657C214.196 23.8657 213.278 24.2489 213.265 24.2555L213.172 24.2952L213.813 21.2822H214.038V21.5333H214.15V21.5928H214.236V21.4804L214.322 21.3945H214.375V21.1236H214.606V21.3483H214.672L214.751 21.4276V21.454H214.798V21.3615L214.884 21.2756H214.923V21.0113H215.168V21.2756L215.293 21.3285V21.421H215.359V21.3219L215.445 21.236H215.485V20.9717H215.723V21.2426H215.762L215.868 21.3417V21.4078H215.914V21.3087L215.987 21.2426H216.033V21.0179H216.264V21.2756H216.304L216.403 21.3747V21.4276H216.469V21.421L216.542 21.3483H216.595V21.1236H216.819V21.3945H216.859L216.951 21.4871V21.5928H217.004V21.5135H217.136V21.2756H217.374L217.975 24.2952ZM215.59 23.76C216.753 23.76 217.572 24.0243 217.837 24.1234L217.282 21.3813H217.235V21.6192H217.103V21.7183H216.938V21.6985H216.839V21.5333L216.806 21.5003H216.707V21.2294H216.687V21.454H216.575L216.562 21.4672V21.5862H216.383V21.5399H216.284V21.421L216.251 21.3813H216.152V21.1236H216.126V21.3483H216.007L215.993 21.3615V21.5201H215.736V21.3945L215.69 21.3549H215.59V21.084H215.564V21.3483H215.458L215.432 21.3747V21.5333H215.154V21.4078L215.029 21.3549V21.1236H214.996V21.3879H214.89L214.87 21.4078V21.5597H214.818V21.5928H214.619V21.4738L214.599 21.454H214.474V21.2294H214.454V21.5003H214.342L214.315 21.5267V21.6985H214.21V21.7315H214.051V21.639H213.939V21.3945H213.906L213.324 24.1366C213.589 24.0243 214.428 23.76 215.59 23.76Z" fill="#0D6E38"/>
<path d="M215.848 23.3306H215.32V23.8195H215.848V23.3306Z" fill="white"/>
<path d="M215.372 23.3835H215.795V23.7668H215.372V23.3835ZM215.267 23.8659H215.901V23.2778H215.267V23.8659Z" fill="#0D6E38"/>
<path d="M239.764 21.9824L224.166 22.1344L215.802 26.5877L214.969 34.8138C214.969 34.8138 219.006 44.0773 233.045 44.2491" fill="white"/>
<path d="M233.045 44.3482C225.758 44.2557 221.206 41.6855 218.676 39.5381C215.927 37.2123 214.884 34.8733 214.877 34.8469L214.864 34.8205V34.794L215.703 26.5085L224.139 22.0221H224.166L239.764 21.8701V22.0749L224.192 22.2269L215.901 26.6406L215.075 34.7874C215.194 35.0385 216.251 37.2189 218.814 39.3861C221.318 41.5005 225.824 44.0443 233.045 44.1368V44.3482Z" fill="#0D6E38"/>
<path d="M233.045 44.2491C233.045 44.2491 243.239 44.2491 249.086 34.913L248.161 26.5415L239.757 21.9824" fill="white"/>
<path d="M233.045 44.3484V44.1436C233.071 44.1436 235.621 44.1304 238.845 42.9807C241.812 41.9235 245.974 39.6638 248.98 34.8867L248.068 26.6078L239.711 22.0751L239.81 21.8901L248.26 26.4756L249.191 34.933L249.171 34.966C246.132 39.8158 241.911 42.1085 238.905 43.1789C235.648 44.3418 233.071 44.3484 233.045 44.3484Z" fill="#0D6E38"/>
<path d="M238.773 17.7869C238.773 17.7869 236.52 16.5381 232.008 16.5381C227.079 16.5381 225.289 17.886 225.289 17.886L219.792 40.2386C223.201 42.7493 227.416 44.236 231.981 44.236C236.698 44.236 240.775 42.8551 244.25 40.1857L238.773 17.7869Z" fill="white"/>
<path d="M231.975 44.3483C227.528 44.3483 223.294 42.9608 219.726 40.331L219.673 40.2914L219.687 40.2253L225.196 17.8331L225.223 17.8133C225.295 17.7538 227.092 16.4456 232.008 16.439H232.021C236.5 16.439 238.806 17.6877 238.826 17.701L238.865 17.7208L238.878 17.767L244.362 40.2385L244.309 40.2782C240.788 42.9806 236.639 44.3483 231.975 44.3483ZM219.905 40.2055C223.426 42.7824 227.595 44.1435 231.975 44.1435C236.566 44.1435 240.656 42.8022 244.124 40.1526L238.68 17.8595C238.363 17.701 236.124 16.6438 232.014 16.6438H232.001C227.489 16.6438 225.619 17.7869 225.375 17.952L219.905 40.2055Z" fill="#0D6E38"/>
<path d="M239.341 17.3176C239.341 17.3176 236.183 15.8574 231.981 15.8574C227.78 15.8574 224.661 17.3176 224.661 17.3176L225.295 17.8132C225.295 17.8132 227.7 16.5446 232.008 16.5446C236.315 16.5446 238.727 17.7339 238.727 17.7339L239.341 17.3176Z" fill="#0D6E38"/>
<path d="M239.255 17.2119L237.28 8.27216H236.883V9.0254H236.546V9.30951H236.295V9.21701H235.978V8.78093L235.806 8.60914H235.555V7.78322H235.172V8.47699H234.882L234.723 8.63556V8.91968H234.432V8.81396H234.267V8.44395L234.109 8.28538H233.891V7.47268H233.468V8.23252L233.098 8.3977V8.72807H232.569V8.33824L232.404 8.17305H232.186V7.36035H231.776V8.19287H231.558L231.334 8.41092V8.69503H230.871V8.29859L230.752 8.17966H230.475V7.48589H230.072V8.28538H229.861L229.656 8.4902V8.7545H229.359V8.89986H229.134V8.63556L229.002 8.50342H228.751V7.79643H228.381V8.61574H228.169L227.978 8.80735V9.22362H227.674V9.28969H227.495V8.98575H227.086V8.26555H226.663L224.76 17.2581C224.76 17.2581 227.621 15.8508 231.968 15.8508C236.335 15.8574 239.255 17.2119 239.255 17.2119Z" fill="white"/>
<path d="M224.622 17.45L226.584 8.16009H227.198V8.88028H227.608V9.11154H227.885V8.75475L228.136 8.50367H228.282V7.67775H228.863V8.37813H229.048L229.24 8.57635V8.78117H229.259V8.63581H229.557V8.43099L229.821 8.16669H229.966V7.36721H230.574V8.06098H230.792L230.977 8.24598V8.58956H231.235V8.37152L231.512 8.08741H231.671V7.25488H232.285V8.06758H232.437L232.662 8.29223V8.6226H232.985V8.33188L233.355 8.16669V7.36721H233.99V8.17991H234.155L234.373 8.39795V8.70849H234.538V8.81421H234.624V8.58956L234.848 8.37152H235.073V7.67775H235.661V8.50367H235.846L236.077 8.73492V9.10493H236.401V9.19744H236.447V8.91993H236.784V8.16669H237.372L239.414 17.3971L239.222 17.3112C239.196 17.298 236.269 15.9699 231.988 15.9699C227.707 15.9699 224.853 17.3509 224.826 17.3641L224.622 17.45ZM226.755 8.37152L224.912 17.08C225.619 16.7694 228.282 15.7519 231.975 15.7519C235.681 15.7519 238.39 16.743 239.11 17.0337L237.194 8.37152H236.982V9.12476H236.645V9.40887H236.183V9.31637H235.859V8.82082L235.754 8.7151H235.443V7.88919H235.271V8.58296H234.928L234.829 8.68207V9.02565H234.333V8.91993H234.168V8.48385L234.069 8.38474H233.791V7.57203H233.573V8.29884L233.203 8.46402V8.82743H232.464V8.37813L232.358 8.27902H232.08V7.46632H231.882V8.29884H231.605L231.446 8.45742V8.801H230.772V8.34509L230.713 8.28563H230.376V7.59186H230.184V8.38474H229.913L229.775 8.5301V8.85386H229.477V8.99922H229.041V8.66885L228.969 8.59617H228.658V7.89579H228.493V8.72171H228.222L228.09 8.85386V9.32958H227.786V9.39566H227.396V9.09172H226.987V8.37152H226.755Z" fill="#0D6E38"/>
<path d="M232.926 15.9632H231.096V14.2783H232.926V15.9632ZM231.307 15.7518H232.721V14.4831H231.307V15.7518Z" fill="#0D6E38"/>
<path d="M238.548 30.3078C238.548 30.3078 236.024 29.9973 232.001 32.9706C232.001 32.9706 228.552 30.2021 225.606 30.0039C225.606 30.0039 230.772 32.4024 231.473 33.4397C231.473 33.4397 230.495 34.6356 230.125 34.7678C230.125 34.7678 229.557 33.5124 228.982 34.1203C228.982 34.1203 228.632 34.3713 228.955 34.7149C228.955 34.7149 229.273 35.0585 229.504 34.8339L229.649 35.0189C229.649 35.0189 229.444 35.336 229.068 35.4219C229.068 35.4219 228.315 35.0255 228.301 35.9042C228.301 35.9042 228.737 36.8557 230.164 35.6201C230.164 35.6201 230.812 36.3998 231.281 36.2676C231.281 36.2676 232.173 35.9967 231.44 35.3823C231.44 35.3823 231.195 35.151 230.832 35.5937L230.534 35.3426C230.534 35.3426 231.862 34.1071 231.955 34.0344C232.047 33.9551 233.336 35.336 233.336 35.336L233.157 35.5805C233.157 35.5805 232.635 35.0321 232.259 35.706C232.259 35.706 232.397 36.7896 233.316 36.076L233.778 35.6532C233.778 35.6532 234.835 36.7302 235.436 36.2809C235.436 36.2809 235.899 35.8844 235.575 35.5607C235.575 35.5607 235.324 35.2171 234.954 35.4682C234.954 35.4682 234.697 35.5276 234.274 35.0651L234.479 34.8405C234.479 34.8405 234.921 35.2039 235.159 34.6026C235.159 34.6026 235.351 34.0542 234.472 34.0608C234.472 34.0608 234.194 34.1929 233.91 34.8405L232.582 33.5388C232.596 33.5454 234.399 31.6293 238.548 30.3078Z" fill="#0D6E38"/>
<path d="M231.816 25.9801C231.816 25.9801 231.406 26.4889 231.525 27.1166C231.525 27.1166 230.706 26.2643 231.34 25.3128C231.34 25.3128 230.706 25.3921 230.468 26.7003C230.468 26.7003 230.019 25.6101 230.819 24.6455C230.819 24.6455 229.966 25.1674 229.742 25.9075C229.742 25.9075 229.676 24.5992 230.845 24.1037C230.845 24.1037 230.197 24.0838 229.814 24.368C229.814 24.368 230.158 23.3438 231.479 23.6411C231.479 23.6411 230.997 23.0267 230.68 23.0399C230.68 23.0399 231.545 22.9276 231.955 23.3504C231.955 23.3504 231.915 23.0002 232.146 22.7954C232.146 22.7954 232.378 23.2777 232.523 23.3769C232.523 23.3769 233.058 22.9672 233.56 23.1126C233.56 23.1126 233.085 23.4495 233.005 23.6544C233.005 23.6544 234.366 23.6147 234.578 24.6256C234.578 24.6256 233.778 24.0376 233.349 24.1962C233.349 24.1962 234.564 24.6389 234.683 25.9801C234.683 25.9801 233.904 24.8239 233.494 24.7578C233.494 24.7578 234.221 25.9669 233.785 26.6937C233.785 26.6937 233.488 25.3921 233.098 25.2005C233.098 25.2005 233.276 26.6475 232.82 27.11C232.82 27.11 232.642 26.0726 232.285 25.9273L232.226 30.156C232.265 30.5128 232.364 30.6251 232.364 30.6251C232.325 30.8431 232.351 31.0281 232.351 31.0281C232.45 31.1669 232.457 31.2594 232.457 31.2594C232.51 31.4973 232.444 31.6624 232.444 31.6624C232.523 31.9003 232.695 32.0787 232.695 32.0787L231.274 32.1316C231.393 32.0589 231.558 31.5501 231.558 31.5501C231.479 31.2924 231.651 30.929 231.651 30.929C231.644 30.6912 231.836 30.1361 231.836 30.1361L231.816 25.9801Z" fill="#0D6E38"/>
<path d="M231.975 44.5929C220.479 44.5929 211.131 35.2369 211.131 23.7401C211.131 12.2434 220.486 2.89404 231.981 2.89404C243.477 2.89404 252.825 12.25 252.825 23.7468C252.818 35.2435 243.463 44.5929 231.975 44.5929ZM231.981 3.44906C220.79 3.44906 211.686 12.5473 211.686 23.7401C211.686 34.933 220.79 44.0378 231.975 44.0378C243.166 44.0378 252.27 34.933 252.27 23.7468C252.27 12.5539 243.166 3.45567 231.981 3.44906Z" fill="#3CA3DD"/>
<path d="M5.78727 39.0426C2.49062 39.0426 0.838989 37.1331 0.838989 33.3075C0.838989 32.1842 0.984333 31.0478 1.26841 29.8849L4.33384 29.3101C3.97709 30.5787 3.79871 31.8142 3.79871 33.0036C3.79871 35.3822 4.53864 36.5715 6.01189 36.5715C7.41908 36.5715 8.12598 35.3822 8.12598 33.0036V25.1078H11.0725V25.4117C11.0725 26.3698 10.9998 27.2155 10.8545 27.9556H10.8875C11.2707 26.9777 11.8851 26.2046 12.7175 25.643C13.5169 25.1078 14.389 24.8369 15.3403 24.8369C16.6748 24.8369 17.6988 25.24 18.4123 26.0527C19.0928 26.8389 19.4297 27.9357 19.4297 29.3563C19.4297 30.909 18.9805 32.1314 18.0754 33.0102C17.0646 33.9814 15.5517 34.4704 13.5367 34.4704H10.9205C10.5902 37.5164 8.87912 39.0426 5.78727 39.0426ZM13.7746 31.9926C15.5187 31.9926 16.3907 31.1667 16.3907 29.5215C16.3907 28.0613 15.8358 27.3345 14.7325 27.3345C13.9001 27.3345 13.1271 27.7904 12.4136 28.7022C11.7199 29.6008 11.2575 30.691 11.0262 31.986H13.7746V31.9926ZM15.0694 23.7533C14.6598 23.7533 14.3163 23.6013 14.0388 23.2974C13.7547 22.9935 13.6094 22.6168 13.6094 22.1808C13.6094 21.7513 13.7547 21.3879 14.0388 21.0839C14.3229 20.7866 14.6664 20.6346 15.0694 20.6346C15.479 20.6346 15.8226 20.7866 16.1067 21.0839C16.3907 21.3813 16.5361 21.7447 16.5361 22.1808C16.5361 22.6235 16.3907 22.9935 16.1067 23.2974C15.8226 23.6013 15.479 23.7533 15.0694 23.7533ZM21.4513 20.4298H24.4044V31.9926H26.1552V34.4638H21.4513V20.4298ZM25.8843 31.9926H30.5089V34.4638H25.8843V31.9926ZM30.3239 31.9926H34.9484V34.4638H30.3239V31.9926ZM34.7635 31.9926H38.1262V25.1078H41.0727V34.4638H34.7635V31.9926ZM37.7562 37.4437C37.7562 37.8732 37.6175 38.2366 37.3466 38.5339C37.0823 38.8312 36.752 38.9832 36.3556 38.9832C35.9658 38.9832 35.6355 38.8312 35.3646 38.5339C35.0938 38.2366 34.955 37.8732 34.955 37.4437C34.955 37.0208 35.0938 36.664 35.3646 36.3667C35.6355 36.0694 35.9724 35.9174 36.3556 35.9174C36.7454 35.9174 37.0757 36.0694 37.3466 36.3667C37.6175 36.664 37.7562 37.0274 37.7562 37.4437ZM41.0727 37.4437C41.0727 37.8732 40.9406 38.2366 40.6697 38.5339C40.3988 38.8312 40.0619 38.9832 39.6787 38.9832C39.2757 38.9832 38.9454 38.8312 38.6745 38.5339C38.4103 38.2432 38.2781 37.8798 38.2781 37.4437C38.2781 37.0208 38.4103 36.664 38.6745 36.3667C38.9454 36.0694 39.2757 35.9174 39.6787 35.9174C40.0685 35.9174 40.3988 36.0694 40.6697 36.3667C40.9406 36.664 41.0727 37.0274 41.0727 37.4437ZM43.8144 39.4787C43.3453 39.4787 42.9093 39.4391 42.4931 39.3598L42.7045 36.8754C43.0811 36.9812 43.5039 37.0274 43.9729 37.0274C44.5477 37.0274 44.9639 36.8688 45.2282 36.5385C45.5189 36.1685 45.6642 35.5408 45.6642 34.6554V25.1078H48.6173V31.9992H50.3152V34.4704H48.6173V34.5497C48.6173 37.8335 47.0119 39.4787 43.8144 39.4787ZM50.0179 31.9926H52.1452V20.4298H55.1181V34.4638H50.0245V31.9926H50.0179ZM58.0184 20.4298H60.9715V34.4638H58.0184V20.4298ZM71.76 34.4638C68.3972 34.4638 66.7192 32.9375 66.7192 29.8849C66.7192 28.4511 67.1222 27.2816 67.9216 26.3632C68.8267 25.3391 70.1215 24.8303 71.7996 24.8303C73.3521 24.8303 74.6999 25.0616 75.8296 25.5175V31.9926H77.5142V34.4638H71.76ZM69.8705 23.8128C69.4807 23.8128 69.1504 23.6608 68.8795 23.3569C68.6087 23.0595 68.4765 22.6961 68.4765 22.2667C68.4765 21.8438 68.6087 21.4804 68.8795 21.1764C69.1504 20.8791 69.4807 20.7272 69.8705 20.7272C70.2603 20.7272 70.5906 20.8791 70.8615 21.1764C71.1323 21.4804 71.2711 21.8438 71.2711 22.2667C71.2711 22.6961 71.1323 23.0529 70.8615 23.3569C70.5906 23.6608 70.2603 23.8128 69.8705 23.8128ZM72.9557 27.612C72.5726 27.4072 72.0903 27.3014 71.5155 27.3014C70.9408 27.3014 70.4783 27.5195 70.1414 27.9622C69.8176 28.385 69.6591 28.9268 69.6591 29.5876C69.6591 31.1931 70.4585 31.9992 72.0639 31.9992H72.9557V27.612ZM73.2002 23.8128C72.7972 23.8128 72.4669 23.6608 72.196 23.3569C71.9317 23.0595 71.7996 22.6961 71.7996 22.2667C71.7996 21.8372 71.9317 21.4738 72.196 21.1764C72.4669 20.8791 72.7972 20.7272 73.2002 20.7272C73.59 20.7272 73.9203 20.8791 74.1912 21.1764C74.4554 21.4804 74.5942 21.8438 74.5942 22.2667C74.5942 22.6961 74.462 23.0529 74.1912 23.3569C73.9203 23.6608 73.59 23.8128 73.2002 23.8128ZM77.2368 31.9926H81.8613V34.4638H77.2368V31.9926ZM81.6763 31.9926H82.2511C82.6145 31.9926 82.958 32.0257 83.2817 32.0917C82.8721 31.5433 82.6739 30.7901 82.6739 29.8453C82.6739 28.3586 83.1298 27.1561 84.0481 26.2178C84.9598 25.2928 86.1291 24.8303 87.5561 24.8303C88.9831 24.8303 90.0798 25.2201 90.8462 25.9932C91.6324 26.7861 92.0221 27.9357 92.0221 29.4422C92.0221 30.6447 91.7381 31.5301 91.1765 32.0851C91.6257 32.0191 92.0552 31.986 92.4714 31.986H93.2906V34.4572H81.6829V31.9926H81.6763ZM85.7063 23.8128C85.3165 23.8128 84.9862 23.6608 84.7153 23.3569C84.4511 23.0595 84.3189 22.6961 84.3189 22.2667C84.3189 21.8438 84.4511 21.4804 84.7153 21.1764C84.9862 20.8791 85.3231 20.7272 85.7063 20.7272C86.0961 20.7272 86.4264 20.8791 86.7039 21.1764C86.9748 21.4804 87.1135 21.8438 87.1135 22.2667C87.1135 22.6961 86.9748 23.0529 86.7039 23.3569C86.433 23.6608 86.1027 23.8128 85.7063 23.8128ZM87.3117 31.9926C87.8468 31.9926 88.2696 31.7944 88.5867 31.3914C88.9105 30.9685 89.069 30.3871 89.069 29.6404C89.069 28.0811 88.5075 27.3014 87.3712 27.3014C86.8889 27.3014 86.4793 27.4798 86.1622 27.8366C85.7988 28.2463 85.6138 28.8211 85.6138 29.5677C85.6138 31.1865 86.182 31.9926 87.3117 31.9926ZM89.0294 23.8128C88.6264 23.8128 88.2961 23.6608 88.0252 23.3569C87.7543 23.0595 87.6222 22.6961 87.6222 22.2667C87.6222 21.8372 87.7543 21.4738 88.0252 21.1764C88.2961 20.8791 88.633 20.7272 89.0294 20.7272C89.4192 20.7272 89.7495 20.8791 90.0204 21.1764C90.2912 21.4804 90.43 21.8438 90.43 22.2667C90.43 22.6961 90.2912 23.0529 90.0204 23.3569C89.7495 23.6608 89.4192 23.8128 89.0294 23.8128ZM93.0065 31.9926H95.0942V20.4298H98.0671V25.4051C98.0671 26.3764 97.9878 27.2221 97.8227 27.949H97.8623C98.2455 26.9777 98.8599 26.2046 99.7055 25.6364C100.505 25.1012 101.384 24.8303 102.328 24.8303C103.663 24.8303 104.687 25.2333 105.387 26.046C106.068 26.8323 106.405 27.9291 106.405 29.3497C106.405 30.3804 106.206 31.2592 105.817 31.9926H107.666V34.4638H93.0131V31.9926H93.0065ZM100.901 31.9926C102.546 31.9596 103.372 31.1403 103.372 29.5215C103.372 28.0613 102.817 27.3345 101.701 27.3345C100.881 27.3345 100.115 27.7904 99.4016 28.7022C98.7013 29.6008 98.2455 30.6976 98.0209 31.986H100.901V31.9926ZM107.27 31.9926H109.787V25.1078H112.76V31.9992H114.438V34.4704H107.277V31.9926H107.27ZM111.26 23.7533C110.857 23.7533 110.514 23.6013 110.23 23.2974C109.952 22.9935 109.813 22.6168 109.813 22.1808C109.813 21.7513 109.952 21.3879 110.23 21.0839C110.514 20.7866 110.857 20.6346 111.26 20.6346C111.67 20.6346 112.02 20.7866 112.304 21.0839C112.588 21.3813 112.734 21.7447 112.734 22.1808C112.734 22.6235 112.588 22.9935 112.304 23.2974C112.02 23.6013 111.677 23.7533 111.26 23.7533ZM114.154 34.4638V31.9926H114.953C115.376 31.9926 115.713 32.0455 115.964 32.1512C115.416 31.6557 115.145 30.8165 115.145 29.647C115.145 28.3057 115.555 27.1891 116.374 26.3037C117.285 25.3258 118.527 24.8369 120.1 24.8369C121.586 24.8369 122.696 25.2664 123.443 26.1319C124.13 26.9314 124.473 28.0415 124.473 29.4752V34.4704H114.154V34.4638ZM121.606 29.8122C121.606 28.1406 121.045 27.308 119.928 27.308C119.347 27.308 118.884 27.5261 118.541 27.9688C118.217 28.3916 118.058 28.9334 118.058 29.5942C118.058 31.1998 118.858 32.0058 120.463 32.0058H121.6V29.8122H121.606ZM134.892 34.4638C131.529 34.4638 129.851 32.9375 129.851 29.8849C129.851 28.4511 130.254 27.2816 131.053 26.3632C131.959 25.3391 133.253 24.8303 134.925 24.8303C136.477 24.8303 137.825 25.0616 138.955 25.5175V31.9926H140.64V34.4638H134.892ZM133.002 23.8128C132.613 23.8128 132.282 23.6608 132.011 23.3569C131.747 23.0595 131.608 22.6961 131.608 22.2667C131.608 21.8438 131.741 21.4804 132.011 21.1764C132.282 20.8791 132.619 20.7272 133.002 20.7272C133.392 20.7272 133.722 20.8791 133.993 21.1764C134.264 21.4804 134.403 21.8438 134.403 22.2667C134.403 22.6961 134.264 23.0529 133.993 23.3569C133.722 23.6608 133.392 23.8128 133.002 23.8128ZM136.088 27.612C135.704 27.4072 135.222 27.3014 134.647 27.3014C134.066 27.3014 133.61 27.5195 133.273 27.9622C132.95 28.385 132.791 28.9268 132.791 29.5876C132.791 31.1931 133.59 31.9992 135.196 31.9992H136.088V27.612ZM136.332 23.8128C135.929 23.8128 135.599 23.6608 135.328 23.3569C135.057 23.0595 134.925 22.6961 134.925 22.2667C134.925 21.8372 135.057 21.4738 135.328 21.1764C135.592 20.8791 135.929 20.7272 136.332 20.7272C136.722 20.7272 137.052 20.8791 137.323 21.1764C137.587 21.4804 137.726 21.8438 137.726 22.2667C137.726 22.6961 137.594 23.0529 137.323 23.3569C137.052 23.6608 136.722 23.8128 136.332 23.8128ZM140.362 31.9926H144.987V34.4638H140.362V31.9926ZM144.808 31.9926H147.325V25.1078H150.298V34.4638H144.815V31.9926H144.808ZM148.799 23.7533C148.396 23.7533 148.052 23.6013 147.768 23.2974C147.49 22.9935 147.345 22.6168 147.345 22.1808C147.345 21.7513 147.484 21.3879 147.768 21.0839C148.052 20.7866 148.396 20.6346 148.799 20.6346C149.208 20.6346 149.565 20.7866 149.849 21.0839C150.133 21.3813 150.278 21.7447 150.278 22.1808C150.278 22.6235 150.133 22.9935 149.849 23.2974C149.565 23.6013 149.215 23.7533 148.799 23.7533ZM152.961 20.4298H155.914V31.9926H157.664V34.4638H152.961V20.4298ZM157.387 31.9926H162.012V34.4638H157.387V31.9926ZM161.833 34.4638V31.9926H162.639C163.062 31.9926 163.399 32.0455 163.65 32.1512C163.102 31.6557 162.831 30.8165 162.831 29.647C162.831 28.3057 163.24 27.1891 164.06 26.3037C164.971 25.3258 166.213 24.8369 167.786 24.8369C169.272 24.8369 170.382 25.2664 171.129 26.1319C171.816 26.9314 172.159 28.0415 172.159 29.4752V34.4704H161.833V34.4638ZM169.279 29.8122C169.279 28.1406 168.717 27.308 167.601 27.308C167.019 27.308 166.557 27.5261 166.213 27.9688C165.89 28.3916 165.731 28.9334 165.731 29.5942C165.731 31.1998 166.53 32.0058 168.136 32.0058H169.272V29.8122H169.279ZM173.196 18.4014C173.586 18.4014 173.917 18.4344 174.187 18.5071C173.963 18.3419 173.85 18.071 173.85 17.6878C173.85 17.1328 174.075 16.6703 174.518 16.2804C175.04 15.8179 175.786 15.5933 176.757 15.5933C176.989 15.5933 177.246 15.6131 177.524 15.6593L177.913 15.7188L177.649 17.2781L177.339 17.2253C177.114 17.1988 176.896 17.1856 176.685 17.1856C176.117 17.1856 175.826 17.3772 175.826 17.7671C175.826 18.1899 176.235 18.4014 177.055 18.4014H178.191V19.9937H173.183V18.4014H173.196ZM174.339 21.0311H177.292V34.4638H174.339V21.0311Z" fill="#3CA3DD"/>
<path d="M0 45.2271H1.17596V54.18H0V45.2271ZM0.515308 49.2047H3.37593C3.60055 49.2047 3.79875 49.1452 3.97052 49.0329C4.14229 48.9139 4.27442 48.7554 4.37351 48.5439C4.46601 48.3325 4.51225 48.088 4.51225 47.8171C4.51225 47.5396 4.46601 47.3018 4.37351 47.0903C4.28102 46.8789 4.14889 46.7137 3.97712 46.6014C3.80535 46.4891 3.60716 46.4296 3.37593 46.4296H0.515308V45.2403H3.32968C3.81857 45.2403 4.24138 45.346 4.61135 45.5574C4.97471 45.7689 5.25879 46.0728 5.46359 46.4626C5.66839 46.8525 5.76749 47.3084 5.76749 47.8237C5.76749 48.3391 5.66839 48.7884 5.46359 49.1782C5.25879 49.5681 4.97471 49.872 4.60474 50.0834C4.23478 50.2949 3.81196 50.4006 3.32968 50.4006H0.515308V49.2047ZM2.80116 50.1231L3.97712 49.839L6.11764 54.18H4.72366L2.80116 50.1231Z" fill="#3CA3DD"/>
<path d="M9.59271 45.2339H8.41675V54.1802H9.59271V45.2339Z" fill="#3CA3DD"/>
<path d="M14.9043 50.5462V54.1802H13.7218V50.5462L11.165 45.2339H12.4797L14.3163 49.271L16.1464 45.2339H17.4611L14.9043 50.5462Z" fill="#3CA3DD"/>
<path d="M20.4075 45.2339H21.4117L24.5102 54.1802H23.2417L20.9162 46.965L18.5841 54.1802H17.3157L20.4075 45.2339ZM18.7427 51.0285H23.1558V52.2244H18.7427V51.0285Z" fill="#3CA3DD"/>
<path d="M26.4855 45.2339H27.6614V54.1802H26.4855V45.2339ZM27.2849 52.9909H29.1809C29.8019 52.9909 30.2776 52.8191 30.6212 52.4755C30.9647 52.1319 31.1299 51.6496 31.1299 51.0285V48.3988C31.1299 47.7711 30.9581 47.2954 30.6212 46.9518C30.2842 46.6082 29.8019 46.4364 29.1809 46.4364H27.2849V45.2405H29.1479C29.8218 45.2405 30.3965 45.366 30.8722 45.6171C31.3479 45.8682 31.7112 46.2316 31.9623 46.7139C32.2133 47.1963 32.3388 47.7711 32.3388 48.4517V50.9889C32.3388 51.6628 32.2133 52.2443 31.9623 52.7266C31.7112 53.2089 31.3479 53.5723 30.8722 53.8234C30.3899 54.0547 29.8152 54.1802 29.1413 54.1802H27.2849V52.9909Z" fill="#3CA3DD"/>
<path d="M34.8691 45.2339H36.0451V54.1802H34.8691V45.2339ZM35.6025 49.1785H40.2601V50.3744H35.6025V49.1785ZM39.639 45.2339H40.815V54.1802H39.639V45.2339Z" fill="#3CA3DD"/>
<path d="M47.4745 45.2271H48.6504V54.18H47.4745V45.2271ZM47.9898 49.2047H50.8504C51.075 49.2047 51.2732 49.1452 51.445 49.0329C51.6168 48.9139 51.7489 48.7554 51.848 48.5439C51.9405 48.3325 51.9867 48.088 51.9867 47.8171C51.9867 47.5396 51.9405 47.3018 51.848 47.0903C51.7555 46.8789 51.6234 46.7137 51.4516 46.6014C51.2798 46.4891 51.0816 46.4296 50.857 46.4296H47.9964V45.2403H50.8108C51.2931 45.2403 51.7225 45.346 52.0924 45.5574C52.4624 45.7689 52.7465 46.0728 52.9447 46.4626C53.1495 46.8525 53.2486 47.3084 53.2486 47.8237C53.2486 48.3391 53.1495 48.7884 52.9447 49.1782C52.7399 49.5681 52.4558 49.872 52.0858 50.0834C51.7159 50.2949 51.2931 50.4006 50.8108 50.4006H47.9964V49.2047H47.9898ZM50.269 50.1231L51.445 49.839L53.5921 54.18H52.1915L50.269 50.1231Z" fill="#3CA3DD"/>
<path d="M55.8845 45.2339H57.0605V54.1802H55.8845V45.2339ZM56.4593 45.2339H61.2821V46.4232H56.4593V45.2339ZM56.4593 49.1454H60.6412V50.3413H56.4593V49.1454ZM56.4593 52.9909H61.2821V54.1802H56.4593V52.9909Z" fill="#3CA3DD"/>
<path d="M69.4015 49.3635V50.9228C69.4015 51.5901 69.2826 52.1716 69.0381 52.6803C68.7937 53.1891 68.4501 53.5789 68.0075 53.8564C67.5649 54.1339 67.0496 54.2727 66.4616 54.2727C65.867 54.2727 65.3517 54.1406 64.9024 53.8829C64.4532 53.6252 64.1097 53.2552 63.8586 52.7794C63.6142 52.3037 63.4886 51.7487 63.4886 51.121V48.4781C63.4886 47.8107 63.6076 47.2293 63.852 46.7271C64.0964 46.2184 64.44 45.8285 64.8826 45.551C65.3253 45.2735 65.8406 45.1348 66.4286 45.1348C66.9108 45.1348 67.3535 45.2471 67.7565 45.4651C68.1595 45.6832 68.503 45.9937 68.7739 46.3968C69.0513 46.7998 69.2297 47.2623 69.3288 47.7909H68.0538C67.9877 47.487 67.8688 47.2359 67.7036 47.0179C67.5384 46.7998 67.3402 46.6346 67.1222 46.5223C66.8976 46.41 66.6664 46.3505 66.4286 46.3505C66.085 46.3505 65.7811 46.4364 65.5168 46.6148C65.2526 46.7932 65.0544 47.0377 64.909 47.3548C64.7703 47.672 64.6976 48.0486 64.6976 48.4649V51.1078C64.6976 51.491 64.7703 51.828 64.9157 52.1187C65.061 52.4094 65.2724 52.6341 65.5367 52.7927C65.8009 52.9512 66.1114 53.0305 66.4616 53.0305C66.8051 53.0305 67.109 52.9446 67.3733 52.7794C67.6375 52.6143 67.8357 52.3698 67.9811 52.0592C68.1198 51.7421 68.1925 51.3655 68.1925 50.9294V50.5396H66.488V49.3436H69.4015V49.3635Z" fill="#3CA3DD"/>
<path d="M73.1869 45.2339H72.011V54.1802H73.1869V45.2339Z" fill="#3CA3DD"/>
<path d="M77.0981 53.8628C76.6489 53.5919 76.3053 53.202 76.0609 52.7065C75.8164 52.2109 75.6909 51.6295 75.6909 50.9754V48.4382C75.6909 47.784 75.8098 47.2026 76.0609 46.7071C76.3053 46.2115 76.6489 45.8217 77.0981 45.5508C77.5473 45.2799 78.0627 45.1411 78.644 45.1411C79.2254 45.1411 79.7407 45.2799 80.19 45.5508C80.6392 45.8217 80.9827 46.2115 81.2272 46.7071C81.4716 47.2026 81.5905 47.784 81.5905 48.4382V50.9754C81.5905 51.6295 81.4716 52.2109 81.2272 52.7065C80.9827 53.202 80.6392 53.5919 80.19 53.8628C79.7407 54.1337 79.2254 54.2724 78.644 54.2724C78.0627 54.2724 77.5473 54.1403 77.0981 53.8628ZM79.5623 52.7858C79.8266 52.6206 80.0248 52.3827 80.1701 52.0788C80.3155 51.7749 80.3882 51.4181 80.3882 51.015V48.3919C80.3882 47.9889 80.3155 47.6387 80.1701 47.3281C80.0248 47.0242 79.82 46.7863 79.5623 46.6212C79.2981 46.456 78.9942 46.3701 78.6506 46.3701C78.3071 46.3701 77.9966 46.4494 77.7323 46.6212C77.4681 46.7863 77.2633 47.0242 77.1179 47.3281C76.9726 47.6321 76.8999 47.9889 76.8999 48.3919V51.015C76.8999 51.4181 76.9726 51.7683 77.1179 52.0788C77.2633 52.3827 77.4681 52.6206 77.7323 52.7858C77.9966 52.951 78.3005 53.0369 78.6506 53.0369C78.9942 53.0369 79.2981 52.9576 79.5623 52.7858Z" fill="#3CA3DD"/>
<path d="M84.1274 45.2339H85.1977L89.3003 52.1518L89.1616 52.3103V45.2339H90.3244V54.1802H89.2475L85.1581 47.3614L85.2968 47.2029V54.1802H84.1274V45.2339Z" fill="#3CA3DD"/>
<path d="M103.015 45.2339H104.119V54.1802H102.969V47.4804L103.029 47.8768L100.961 52.938H100.142L98.0737 47.9957L98.1332 47.4804V54.1802H96.9836V45.2339H98.0869L100.551 51.1408L103.015 45.2339Z" fill="#3CA3DD"/>
<path d="M108.142 53.8829C107.699 53.6252 107.362 53.242 107.138 52.7464C106.907 52.2509 106.794 51.6496 106.794 50.9426V45.2339H107.97V50.9889C107.97 51.643 108.122 52.1451 108.433 52.5019C108.737 52.8587 109.173 53.0371 109.734 53.0371C110.302 53.0371 110.738 52.8587 111.049 52.5019C111.359 52.1451 111.511 51.643 111.511 50.9889V45.2339H112.687V50.9426C112.687 51.643 112.575 52.2443 112.344 52.7464C112.113 53.242 111.776 53.6252 111.333 53.8829C110.89 54.1406 110.355 54.2727 109.734 54.2727C109.113 54.2793 108.585 54.1472 108.142 53.8829Z" fill="#3CA3DD"/>
<path d="M115.363 45.2339H116.427L120.536 52.1518L120.391 52.3103V45.2339H121.56V54.1802H120.483L116.387 47.3614L116.526 47.2029V54.1802H115.363V45.2339Z" fill="#3CA3DD"/>
<path d="M125.524 45.2339H124.348V54.1802H125.524V45.2339Z" fill="#3CA3DD"/>
<path d="M130.076 54.2724C130.076 54.2724 129.858 54.1337 129.415 53.8628C128.972 53.5853 128.636 53.202 128.391 52.6933C128.147 52.1911 128.028 51.6031 128.028 50.9423V48.4844C128.028 47.8237 128.147 47.2356 128.391 46.7335C128.636 46.2247 128.972 45.8349 129.415 45.5574C129.858 45.2799 130.366 45.1411 130.948 45.1411C131.43 45.1411 131.873 45.2534 132.276 45.4715C132.679 45.6895 133.016 46.0001 133.287 46.4031C133.557 46.8062 133.742 47.2687 133.835 47.7973H132.626C132.553 47.5197 132.428 47.2687 132.256 47.0506C132.084 46.8326 131.886 46.6608 131.655 46.5419C131.423 46.4229 131.186 46.3635 130.941 46.3635C130.598 46.3635 130.3 46.4494 130.043 46.6278C129.785 46.8062 129.587 47.0506 129.442 47.3678C129.303 47.6849 129.23 48.0549 129.23 48.4778V50.9357C129.23 51.352 129.303 51.722 129.442 52.0458C129.587 52.3629 129.785 52.614 130.043 52.7858C130.3 52.9576 130.598 53.0435 130.941 53.0435C131.192 53.0435 131.43 52.9906 131.661 52.8783C131.886 52.766 132.091 52.6008 132.262 52.3827C132.434 52.1647 132.56 51.907 132.632 51.6097H133.841C133.749 52.1383 133.564 52.6074 133.287 53.0038C133.016 53.4069 132.672 53.7174 132.269 53.9355C131.866 54.1535 131.423 54.2658 130.948 54.2658H130.076V54.2724Z" fill="#3CA3DD"/>
<path d="M137.402 45.2339H136.226V54.1802H137.402V45.2339Z" fill="#3CA3DD"/>
<path d="M140.19 45.2339H141.366V54.1802H140.19V45.2339ZM140.798 49.5154H143.48C143.738 49.5154 143.956 49.4494 144.154 49.3238C144.346 49.1983 144.498 49.0199 144.597 48.782C144.703 48.5442 144.755 48.2799 144.755 47.9759C144.755 47.672 144.703 47.3945 144.597 47.1632C144.491 46.9254 144.346 46.747 144.154 46.6214C143.963 46.4893 143.738 46.4298 143.48 46.4298H140.798V45.2339H143.441C143.936 45.2339 144.385 45.3462 144.762 45.5775C145.145 45.8021 145.436 46.1259 145.647 46.5421C145.859 46.9584 145.964 47.4341 145.964 47.9825C145.964 48.5243 145.859 49.0067 145.647 49.4163C145.436 49.8326 145.145 50.1497 144.762 50.3744C144.385 50.599 143.936 50.7114 143.441 50.7114H140.798V49.5154Z" fill="#3CA3DD"/>
<path d="M149.79 45.2339H150.794L153.886 54.1802H152.617L150.292 46.965L147.966 54.1802H146.698L149.79 45.2339ZM148.118 51.0285H152.531V52.2244H148.118V51.0285Z" fill="#3CA3DD"/>
<path d="M155.861 45.2339H157.037V54.1802H155.861V45.2339ZM156.456 52.9909H161.258V54.1802H156.456V52.9909Z" fill="#3CA3DD"/>
<path d="M164.529 45.2339H163.353V54.1802H164.529V45.2339Z" fill="#3CA3DD"/>
<path d="M166.161 45.2339H172.08V46.4232H166.161V45.2339ZM168.532 45.9673H169.708V54.1802H168.532V45.9673Z" fill="#3CA3DD"/>
<path d="M176.486 50.5462V54.1802H175.304V50.5462L172.747 45.2339H174.062L175.898 49.271L177.728 45.2339H179.043L176.486 50.5462Z" fill="#3CA3DD"/>
</svg>
