<svg width="231" height="62" viewBox="0 0 231 62" fill="none" xmlns="http://www.w3.org/2000/svg">
<g clip-path="url(#clip0_7_435)">
<path d="M199.966 62H199.961C191.687 62 183.897 58.7683 178.031 52.908C172.166 47.0476 168.938 39.2642 168.938 30.9915C168.943 13.9055 182.86 0 199.966 0H199.972C208.246 0 216.036 3.23171 221.901 9.09204C227.772 14.9524 231.001 22.7358 231.001 31.0028C231.001 39.2699 227.767 47.0533 221.901 52.9136C216.03 58.774 208.24 62 199.966 62ZM199.966 0.392585C183.077 0.392585 169.336 14.116 169.336 30.9972C169.336 39.1618 172.525 46.8428 178.316 52.6349C184.107 58.4212 191.795 61.6074 199.966 61.6131H199.972C208.138 61.6131 215.831 58.4269 221.622 52.6462C227.414 46.8599 230.608 39.1732 230.608 31.0142C230.614 22.8496 227.425 15.1686 221.628 9.38222C215.831 3.58447 208.144 0.392585 199.966 0.392585Z" fill="white"/>
<path d="M222.155 23.9648C222.155 36.408 212.058 46.4958 199.605 46.4958C187.151 46.4958 177.055 36.408 177.055 23.9648C177.055 11.5216 187.151 1.43384 199.605 1.43384C212.058 1.43384 222.155 11.5216 222.155 23.9648Z" fill="#8CADDB"/>
<path d="M199.979 1.59302C183.722 1.59302 170.545 14.7588 170.539 30.9971C170.539 47.241 183.716 60.4068 199.968 60.4068C216.22 60.4068 229.402 47.2467 229.408 31.0028C229.408 14.7645 216.231 1.59302 199.979 1.59302ZM199.951 39.2129C189.621 39.2129 181.245 30.8435 181.25 20.5224C181.25 10.2014 189.632 1.83198 199.956 1.83767C210.286 1.83767 218.663 10.2071 218.657 20.5281C218.657 30.8435 210.28 39.2129 199.951 39.2129Z" fill="white"/>
<path d="M199.971 60.5036C192.078 60.5036 184.664 57.4312 179.089 51.861C173.515 46.2909 170.445 38.8773 170.445 30.9971C170.445 14.7304 183.696 1.49634 199.971 1.49634H199.977C216.257 1.49634 229.502 14.7361 229.502 31.0028C229.496 47.2695 216.251 60.5036 199.971 60.5036ZM199.971 1.6841C183.793 1.6841 170.633 14.8329 170.628 30.9971C170.628 38.8261 173.674 46.1885 179.22 51.7245C184.761 57.2605 192.13 60.3158 199.965 60.3158H199.971C216.149 60.3158 229.309 47.1671 229.309 31.0028C229.314 14.8385 216.154 1.68979 199.971 1.6841ZM199.954 39.304C189.584 39.304 181.157 30.8776 181.157 20.5168C181.157 15.4985 183.115 10.7818 186.669 7.23719C190.222 3.69254 194.937 1.7353 199.96 1.7353C204.982 1.7353 209.703 3.69254 213.25 7.23719C216.804 10.7875 218.757 15.4985 218.757 20.5168C218.745 30.8776 210.318 39.304 199.954 39.304ZM199.948 39.1162C210.215 39.1162 218.563 30.7752 218.563 20.5225C218.563 15.5554 216.627 10.8842 213.114 7.37374C209.6 3.86323 204.925 1.92875 199.954 1.92306C194.983 1.92306 190.313 3.85754 186.794 7.36805C183.281 10.8786 181.339 15.5497 181.339 20.5168C181.339 30.7695 189.687 39.1162 199.948 39.1162Z" fill="#3CA3DD"/>
<path d="M211.408 39.4577C211.408 39.4577 213.002 39.8787 214.676 38.9399C214.676 38.9399 214.665 39.6967 214.836 39.8844C214.961 40.0267 221.031 45.7447 221.031 45.7447L219.796 47.3606L211.408 39.5544C211.408 39.5544 211.317 39.4349 211.408 39.4577Z" fill="#3CA3DD"/>
<path d="M210.686 40.311C210.686 40.311 211.016 42.0009 210.327 43.6281L211.181 43.7191L213.556 45.8698C213.556 45.8698 211.659 47.5539 210.224 48.3619C210.224 48.3619 210.105 48.4529 210.059 48.3619C210.014 48.2708 208.385 45.8072 208.385 45.8072C208.385 45.8072 208.129 47.9864 207.383 48.7943V48.9991C207.383 48.9991 207.696 48.9877 207.935 49.0901C208.174 49.1926 208.231 49.2836 208.231 49.2836L209.923 51.9122C209.923 51.9122 209.997 52.7201 209.888 53.016C209.786 53.3119 209.649 53.9377 208.152 54.3019C208.152 54.3019 208.032 54.7513 209.735 54.6319C211.403 54.5124 212.36 52.7486 211.944 51.0929C211.938 51.0588 211.927 51.0246 211.921 50.9905C211.921 50.9905 215.793 48.5496 217.251 46.6038C217.263 46.5924 217.268 46.581 217.28 46.5639C217.285 46.5639 211.283 40.7093 210.686 40.311Z" fill="#3CA3DD"/>
<path d="M204.937 46.5413C204.937 46.5413 205.056 46.5242 205.079 46.6778C205.096 46.8372 207.192 53.1697 207.192 53.1697C207.192 53.1697 200.068 56.0771 191.492 52.7601L194.943 42.2172C194.943 42.2172 194.994 42.1773 194.994 42.2172C194.994 42.257 195.672 44.1516 196.805 44.8628L196.794 44.971C196.794 44.971 196.207 45.0278 195.968 45.7675C195.729 46.5015 194.499 50.1997 194.499 50.3192C194.499 50.4387 194.727 50.4387 194.841 50.4728C194.96 50.5013 196.805 51.0532 199.345 51.0987C201.879 51.1442 204.168 50.6947 204.168 50.6947C204.168 50.6947 204.122 49.7104 203.166 49.3235L203.103 49.1756C203.097 49.1813 204.606 48.2482 204.937 46.5413Z" fill="#3CA3DD"/>
<path d="M190.647 44.7093C188.119 44.55 186.501 45.5457 186.501 45.5457C186.798 44.8401 186.775 43.4917 186.775 43.4917C185.625 44.2541 184.565 44.0607 184.19 43.981C183.814 43.907 183.996 44.1631 183.996 44.1631C184.007 44.1801 184.013 44.2029 184.024 44.2257C184.964 46.3934 182.817 46.7007 182.817 46.7007C180.995 46.5186 181.28 44.9653 181.297 44.7889C181.308 44.6126 181.581 43.2243 183.956 42.6553C186.331 42.0864 185.807 42.1034 185.898 42.0295C185.989 41.9555 186.359 41.597 186.211 41.3865C186.063 41.176 185.778 41.3865 185.778 41.3865C185.704 41.415 185.437 41.4605 185.437 41.4605C182.88 41.8474 182.185 42.2058 182.185 42.2058C179.196 43.7989 179.89 46.4048 179.89 46.4048C180.989 50.4103 184.434 48.3734 184.434 48.3734C186.963 50.9622 190.55 52.2594 190.55 52.2594C190.55 52.2594 192.287 46.9624 192.321 46.8031C192.361 46.6381 193.181 44.8686 190.647 44.7093ZM189.992 47.0989C189.85 47.6167 189.713 48.2198 189.576 48.2767L187.344 46.6779C187.344 46.6779 188.438 46.2796 189.576 46.4389C189.571 46.4446 190.129 46.5812 189.992 47.0989Z" fill="#3CA3DD"/>
<path d="M188.961 42.3821C188.961 41.6994 189.513 41.1475 190.197 41.1475C190.88 41.1475 191.438 41.705 191.438 42.3821C191.438 43.0649 190.88 43.6168 190.197 43.6168C189.513 43.6168 188.961 43.0649 188.961 42.3821Z" fill="#3CA3DD"/>
<path d="M196.609 56.1795C196.609 55.4967 197.162 54.9448 197.845 54.9448C198.528 54.9448 199.081 55.4967 199.081 56.1795C199.081 56.8622 198.528 57.4141 197.845 57.4141C197.162 57.4141 196.609 56.8622 196.609 56.1795Z" fill="#3CA3DD"/>
<path d="M200.852 56.1226C200.852 55.4398 201.41 54.8879 202.087 54.8879C202.765 54.8879 203.323 55.4455 203.323 56.1226C203.323 56.8053 202.771 57.3572 202.087 57.3572C201.404 57.3572 200.852 56.7997 200.852 56.1226Z" fill="#3CA3DD"/>
<path d="M210.438 27.3785L211.986 21.0858C211.986 21.0858 212.488 20.7046 213.883 20.7046C215.158 20.7046 215.79 21.0573 215.79 21.0573L216.758 25.5066C216.758 25.5066 215.562 29.1025 214.202 30.7639C213.159 32.0327 210.438 27.3785 210.438 27.3785Z" fill="white"/>
<path d="M213.762 31.0257C212.537 31.0257 210.482 27.5493 210.396 27.4014L210.391 27.3843L211.951 21.0575L211.962 21.0518C211.979 21.0347 212.492 20.6592 213.881 20.6592C215.151 20.6592 215.789 21.0062 215.812 21.0176L215.829 21.029L216.808 25.5068L216.803 25.5181C216.791 25.5523 215.59 29.1424 214.24 30.7867C214.109 30.946 213.944 31.0257 213.762 31.0257ZM210.482 27.3673C210.635 27.6233 212.623 30.929 213.762 30.929C213.921 30.929 214.058 30.8607 214.172 30.7298C215.476 29.1424 216.637 25.723 216.717 25.4954L215.749 21.0802C215.641 21.0233 215.014 20.7445 213.887 20.7445C212.646 20.7445 212.116 21.0518 212.031 21.1087L210.482 27.3673Z" fill="#0D6E38"/>
<path d="M215.954 20.9209C215.954 20.9209 215.066 20.5112 213.882 20.5112C212.697 20.5112 211.82 20.9209 211.82 20.9209L211.997 21.0631C211.997 21.0631 212.674 20.7047 213.887 20.7047C215.1 20.7047 215.784 21.0404 215.784 21.0404L215.954 20.9209Z" fill="#0D6E38"/>
<path d="M215.89 20.8469L215.366 18.3719H215.257V18.5824H215.161V18.6621H215.087V18.6336H214.996V18.5085L214.944 18.463H214.876V18.2297H214.768V18.4288H214.688L214.642 18.4743V18.554H214.563V18.5255H214.517V18.4231L214.472 18.3776H214.409V18.15H214.289V18.3662L214.181 18.4118V18.5085H214.033V18.3947L213.988 18.3492H213.925V18.1216H213.811V18.3549H213.754L213.692 18.4174V18.4971H213.561V18.3833L213.526 18.3492H213.447V18.15H213.333V18.3719H213.276L213.219 18.4288V18.5028H213.133V18.5426H213.071V18.4686L213.031 18.4288H212.963V18.2297H212.86V18.463H212.803L212.746 18.5142V18.628H212.661V18.6507H212.61V18.5654H212.496V18.3662H212.376L211.875 20.8412C211.875 20.8412 212.644 20.5055 213.868 20.5055C215.098 20.5112 215.89 20.8469 215.89 20.8469Z" fill="white"/>
<path d="M211.812 20.9265L212.336 18.3263H212.541V18.5312H212.655V18.5994H212.707V18.5084L212.786 18.4288H212.82V18.1955H213.014V18.3889H213.06L213.122 18.4572V18.4629H213.179V18.4174L213.265 18.332H213.299V18.1101H213.504V18.3093H213.555L213.612 18.3662V18.4515H213.657V18.3946L213.743 18.3036H213.777V18.0703H213.982V18.3036H214.016L214.085 18.3719V18.4572H214.142V18.3832L214.25 18.3377V18.1045H214.46V18.332H214.495L214.569 18.406V18.4857L214.603 18.48V18.4629L214.677 18.3946H214.734V18.1955H214.933V18.4288H214.973L215.047 18.5027V18.5994H215.121V18.5482H215.218V18.3377H215.411L215.964 20.9322L215.884 20.8981C215.878 20.8924 215.087 20.5624 213.88 20.5624C212.678 20.5624 211.909 20.8924 211.904 20.8981L211.812 20.9265ZM212.41 18.4174L211.932 20.7786C212.16 20.6932 212.866 20.4713 213.868 20.4713C214.87 20.4713 215.594 20.6989 215.827 20.7786L215.326 18.4174H215.297V18.6279H215.201V18.7076H215.041V18.6791H214.95V18.5312L214.927 18.5084H214.831V18.2751H214.813V18.4686H214.705L214.682 18.4913V18.5994H214.512L214.506 18.571H214.46V18.4401L214.443 18.4231H214.352V18.1955H214.318V18.3946L214.216 18.4401V18.5482H213.976V18.4117L213.959 18.3889H213.874V18.1613H213.851V18.3946H213.76L213.726 18.4288V18.5369H213.509V18.4003L213.498 18.3889H213.396V18.1955H213.373V18.4174H213.293L213.265 18.4515V18.5482H213.179V18.5881H213.025V18.4913L213.014 18.48H212.917V18.2865H212.906V18.5198H212.82L212.792 18.5482V18.6905H212.707V18.7076H212.57V18.6222H212.456V18.4174H212.41Z" fill="#0D6E38"/>
<path d="M214.112 20.0957H213.656V20.511H214.112V20.0957Z" fill="white"/>
<path d="M213.7 20.1356H214.065V20.4656H213.7V20.1356ZM213.609 20.5567H214.156V20.0503H213.609V20.5567Z" fill="#0D6E38"/>
<path d="M189.266 27.3728L187.717 21.0743C187.717 21.0743 187.216 20.6931 185.821 20.6931C184.545 20.6931 183.913 21.0402 183.913 21.0402L182.945 25.4895C182.945 25.4895 184.141 29.0853 185.496 30.7467C186.539 32.0269 189.266 27.3728 189.266 27.3728Z" fill="white"/>
<path d="M185.937 31.0198C185.755 31.0198 185.59 30.9402 185.459 30.7809C184.109 29.1366 182.908 25.5464 182.896 25.5123L182.891 25.5009L183.87 21.0231L183.887 21.0118C183.916 21.0004 184.548 20.6533 185.812 20.6533C187.201 20.6533 187.714 21.0288 187.737 21.0402L187.748 21.0516L187.754 21.0687L189.308 27.3842L189.297 27.4012C189.217 27.5435 187.167 31.0198 185.937 31.0198ZM182.993 25.4952C183.067 25.7228 184.235 29.1423 185.533 30.7297C185.647 30.8662 185.778 30.9345 185.937 30.9345C187.076 30.9345 189.063 27.6288 189.217 27.3728L187.674 21.1142C187.589 21.0573 187.059 20.75 185.823 20.75C184.69 20.75 184.064 21.0345 183.955 21.0857L182.993 25.4952Z" fill="#0D6E38"/>
<path d="M183.75 20.915C183.75 20.915 184.638 20.5054 185.823 20.5054C187.007 20.5054 187.89 20.915 187.89 20.915L187.708 21.0516C187.708 21.0516 187.03 20.6931 185.817 20.6931C184.604 20.6931 183.921 21.0288 183.921 21.0288L183.75 20.915Z" fill="#0D6E38"/>
<path d="M183.812 20.8412L184.336 18.3662H184.45V18.5767H184.541V18.6564H184.615V18.6279H184.707V18.5085L184.752 18.4572H184.82V18.224H184.929V18.4174H185.008L185.054 18.4629V18.5426H185.139V18.5141H185.185V18.4117L185.23 18.3662H185.293V18.1386H185.413V18.3548L185.515 18.4004V18.4914H185.663V18.3776L185.709 18.3321H185.771V18.1045H185.885V18.3378H185.948L186.011 18.4004V18.48H186.142V18.3662L186.176 18.3321H186.255V18.15H186.369V18.3776H186.426L186.483 18.4345V18.5085H186.569V18.5483H186.631V18.4743L186.671 18.4345H186.739V18.241H186.842V18.4743H186.899L186.956 18.5312V18.645H187.041V18.6621H187.092V18.5767H187.206V18.3719H187.326L187.827 20.8469C187.827 20.8469 187.058 20.5112 185.828 20.5112C184.604 20.5055 183.812 20.8412 183.812 20.8412Z" fill="white"/>
<path d="M187.882 20.9207L187.802 20.8866C187.797 20.8809 187.028 20.5509 185.826 20.5509C184.625 20.5509 183.833 20.8809 183.822 20.8866L183.742 20.9207L184.295 18.3263H184.488V18.5425H184.585V18.5937H184.659V18.4969L184.733 18.423H184.779V18.1897H184.978V18.3831H185.035L185.103 18.4514V18.4742H185.143V18.3945L185.217 18.3206H185.251V18.093H185.462V18.3206L185.57 18.3661V18.4457H185.627V18.3604L185.701 18.2864H185.735V18.0588H185.94V18.2921H185.974L186.066 18.3775V18.4344H186.105V18.349L186.168 18.2921H186.208V18.0987H186.407V18.3206H186.441L186.527 18.4059V18.4514H186.584V18.4457L186.646 18.3831H186.692V18.1897H186.886V18.423H186.92L186.999 18.5026V18.5937H187.045V18.5254H187.159V18.3206H187.364L187.882 20.9207ZM185.826 20.4599C186.829 20.4599 187.535 20.6875 187.762 20.7728L187.284 18.4116H187.244V18.6164H187.13V18.7018H186.988V18.6847H186.903V18.5425L186.874 18.514H186.789V18.2807H186.772V18.4742H186.675L186.663 18.4856V18.588H186.51V18.5481H186.424V18.4457L186.396 18.4116H186.31V18.1897H186.288V18.3831H186.185L186.174 18.3945V18.5311H185.952V18.423L185.912 18.3888H185.826V18.1556H185.804V18.3831H185.712L185.69 18.4059V18.5425H185.451V18.4344L185.342 18.3888V18.1897H185.314V18.4173H185.223L185.206 18.4344V18.5652H185.16V18.5937H184.989V18.4913L184.972 18.4742H184.864V18.2807H184.847V18.514H184.75L184.727 18.5368V18.6847H184.636V18.7131H184.5V18.6335H184.403V18.423H184.374L183.873 20.7842C184.101 20.6875 184.824 20.4599 185.826 20.4599Z" fill="#0D6E38"/>
<path d="M186.049 20.0901H185.594V20.5111H186.049V20.0901Z" fill="white"/>
<path d="M185.638 20.1357H186.002V20.4657H185.638V20.1357ZM185.547 20.5511H186.094V20.0447H185.547V20.5511Z" fill="#0D6E38"/>
<path d="M206.66 18.9294L193.216 19.0603L186.007 22.8951L185.289 29.9787C185.289 29.9787 188.768 37.9556 200.869 38.1035" fill="white"/>
<path d="M200.874 38.1889C194.593 38.1093 190.67 35.896 188.489 34.0469C186.12 32.0441 185.22 30.03 185.215 30.0072L185.203 29.9845V29.9617L185.926 22.8269L193.198 18.9636H193.221L206.665 18.8328V19.0091L193.244 19.14L186.097 22.9407L185.385 29.956C185.488 30.1722 186.399 32.0498 188.608 33.916C190.767 35.7367 194.65 37.9272 200.874 38.0069V38.1889Z" fill="#0D6E38"/>
<path d="M200.867 38.1035C200.867 38.1035 209.654 38.1035 214.693 30.0641L213.896 22.8553L206.653 18.9294" fill="white"/>
<path d="M200.867 38.1889V38.0126C200.89 38.0126 203.088 38.0012 205.867 37.0112C208.424 36.1008 212.011 34.155 214.602 30.0414L213.816 22.9123L206.613 19.0092L206.698 18.8499L213.981 22.7985L214.784 30.0812L214.767 30.1096C212.148 34.2858 208.509 36.2602 205.918 37.1819C203.111 38.1832 200.89 38.1889 200.867 38.1889Z" fill="#0D6E38"/>
<path d="M205.805 15.3166C205.805 15.3166 203.864 14.2412 199.974 14.2412C195.726 14.2412 194.183 15.4019 194.183 15.4019L189.445 34.65C192.384 36.812 196.017 38.0922 199.952 38.0922C204.017 38.0922 207.531 36.903 210.526 34.6044L205.805 15.3166Z" fill="white"/>
<path d="M199.947 38.1888C196.114 38.1888 192.464 36.994 189.389 34.7295L189.344 34.6954L189.355 34.6385L194.104 15.3563L194.127 15.3392C194.19 15.288 195.739 14.1615 199.975 14.1558H199.987C203.847 14.1558 205.835 15.2311 205.852 15.2425L205.886 15.2596L205.897 15.2994L210.624 34.6498L210.578 34.684C207.543 37.011 203.967 38.1888 199.947 38.1888ZM189.543 34.6214C192.578 36.8404 196.171 38.0124 199.947 38.0124C203.904 38.0124 207.429 36.8574 210.419 34.5759L205.727 15.379C205.453 15.2425 203.523 14.3321 199.981 14.3321H199.97C196.08 14.3321 194.469 15.3164 194.258 15.4587L189.543 34.6214Z" fill="#0D6E38"/>
<path d="M206.301 14.9124C206.301 14.9124 203.58 13.655 199.958 13.655C196.336 13.655 193.648 14.9124 193.648 14.9124L194.195 15.3392C194.195 15.3392 196.268 14.2468 199.981 14.2468C203.693 14.2468 205.772 15.2709 205.772 15.2709L206.301 14.9124Z" fill="#0D6E38"/>
<path d="M206.22 14.8216L204.518 7.12355H204.176V7.77217H203.885V8.01682H203.669V7.93717H203.396V7.56165L203.248 7.41372H203.031V6.70252H202.701V7.29993H202.45L202.314 7.43648V7.68113H202.063V7.5901H201.921V7.27148L201.784 7.13493H201.596V6.4351H201.232V7.08941L200.913 7.23165V7.51613H200.457V7.18045L200.315 7.0382H200.127V6.33838H199.774V7.05527H199.586L199.393 7.24303V7.48769H198.994V7.14631L198.891 7.04389H198.652V6.44648H198.305V7.13493H198.123L197.946 7.31131V7.53889H197.69V7.66406H197.496V7.43648L197.382 7.32269H197.166V6.71389H196.847V7.41941H196.665L196.5 7.58441V7.94286H196.238V7.99975H196.084V7.73803H195.731V7.11786H195.367L193.727 14.8615C193.727 14.8615 196.192 13.6496 199.939 13.6496C203.703 13.6553 206.22 14.8216 206.22 14.8216Z" fill="white"/>
<path d="M193.609 15.0264L195.301 7.0268H195.83V7.64697H196.183V7.8461H196.422V7.53886L196.639 7.32266H196.764V6.61145H197.265V7.21455H197.425L197.59 7.38524V7.56162H197.607V7.43645H197.863V7.26007L198.091 7.03248H198.216V6.34404H198.74V6.94145H198.928L199.087 7.10076V7.39662H199.309V7.20886L199.549 6.96421H199.685V6.24731H200.215V6.94714H200.346L200.539 7.14059V7.42507H200.819V7.17473L201.137 7.03248V6.34404H201.684V7.04386H201.826L202.014 7.23162V7.49904H202.157V7.59007H202.231V7.39662L202.424 7.20886H202.618V6.61145H203.125V7.32266H203.284L203.484 7.52179V7.84041H203.763V7.92007H203.802V7.6811H204.093V7.03248H204.6L206.359 14.9809L206.194 14.9069C206.171 14.8956 203.649 13.7519 199.959 13.7519C196.269 13.7519 193.809 14.9411 193.786 14.9525L193.609 15.0264ZM195.449 7.20886L193.86 14.7078C194.469 14.4404 196.764 13.5642 199.947 13.5642C203.142 13.5642 205.477 14.4176 206.097 14.668L204.446 7.20886H204.264V7.85748H203.973V8.10214H203.575V8.02248H203.296V7.59576L203.204 7.50472H202.937V6.79352H202.789V7.39093H202.493L202.407 7.47628V7.77214H201.98V7.6811H201.838V7.30559L201.752 7.22024H201.513V6.52042H201.325V7.14628L201.006 7.28852V7.60145H200.369V7.21455L200.278 7.12921H200.038V6.42938H199.868V7.14628H199.628L199.492 7.28283V7.57869H198.911V7.18611L198.86 7.1349H198.569V6.53749H198.404V7.22024H198.171L198.051 7.34541V7.62421H197.795V7.74938H197.419V7.4649L197.356 7.40231H197.089V6.79921H196.946V7.51041H196.713L196.599 7.62421V8.03386H196.337V8.09076H196.001V7.82903H195.648V7.20886H195.449Z" fill="#0D6E38"/>
<path d="M200.765 13.7463H199.188V12.2954H200.765V13.7463ZM199.37 13.5642H200.588V12.4718H199.37V13.5642Z" fill="#0D6E38"/>
<path d="M205.616 26.0984C205.616 26.0984 203.441 25.831 199.973 28.3913C199.973 28.3913 197.001 26.0074 194.461 25.8367C194.461 25.8367 198.914 27.902 199.518 28.7953C199.518 28.7953 198.675 29.8251 198.356 29.9389C198.356 29.9389 197.866 28.8579 197.371 29.3813C197.371 29.3813 197.069 29.5975 197.348 29.8934C197.348 29.8934 197.621 30.1892 197.821 29.9958L197.946 30.1551C197.946 30.1551 197.769 30.4282 197.445 30.5022C197.445 30.5022 196.796 30.1608 196.784 30.9175C196.784 30.9175 197.16 31.7368 198.39 30.6729C198.39 30.6729 198.948 31.3442 199.352 31.2304C199.352 31.2304 200.121 30.9972 199.489 30.468C199.489 30.468 199.278 30.2689 198.965 30.6501L198.709 30.4339C198.709 30.4339 199.854 29.3699 199.933 29.3073C200.013 29.2391 201.123 30.4282 201.123 30.4282L200.97 30.6387C200.97 30.6387 200.52 30.1665 200.195 30.7468C200.195 30.7468 200.315 31.6799 201.106 31.0654L201.505 30.7013C201.505 30.7013 202.416 31.6287 202.934 31.2418C202.934 31.2418 203.333 30.9004 203.054 30.6217C203.054 30.6217 202.837 30.3258 202.519 30.542C202.519 30.542 202.296 30.5932 201.932 30.1949L202.109 30.0015C202.109 30.0015 202.49 30.3144 202.695 29.7967C202.695 29.7967 202.86 29.3244 202.103 29.3301C202.103 29.3301 201.864 29.4439 201.619 30.0015L200.474 28.8806C200.486 28.8863 202.04 27.2363 205.616 26.0984Z" fill="#0D6E38"/>
<path d="M199.812 22.3716C199.812 22.3716 199.459 22.8097 199.562 23.3502C199.562 23.3502 198.855 22.6162 199.402 21.7969C199.402 21.7969 198.855 21.8652 198.65 22.9917C198.65 22.9917 198.263 22.0529 198.952 21.2222C198.952 21.2222 198.218 21.6717 198.024 22.309C198.024 22.309 197.967 21.1824 198.975 20.7557C198.975 20.7557 198.417 20.7386 198.087 20.9833C198.087 20.9833 198.383 20.1014 199.522 20.3574C199.522 20.3574 199.106 19.8283 198.833 19.8397C198.833 19.8397 199.579 19.7429 199.932 20.1071C199.932 20.1071 199.897 19.8055 200.097 19.6292C200.097 19.6292 200.296 20.0445 200.421 20.1298C200.421 20.1298 200.883 19.7771 201.315 19.9023C201.315 19.9023 200.905 20.1924 200.837 20.3688C200.837 20.3688 202.01 20.3347 202.192 21.2052C202.192 21.2052 201.503 20.6988 201.133 20.8354C201.133 20.8354 202.181 21.2166 202.283 22.3716C202.283 22.3716 201.612 21.3759 201.258 21.319C201.258 21.319 201.885 22.3602 201.509 22.986C201.509 22.986 201.253 21.8652 200.917 21.7002C200.917 21.7002 201.071 22.9462 200.678 23.3445C200.678 23.3445 200.524 22.4512 200.216 22.326L200.165 25.9674C200.199 26.2746 200.285 26.3714 200.285 26.3714C200.251 26.5591 200.273 26.7184 200.273 26.7184C200.359 26.8379 200.364 26.9176 200.364 26.9176C200.41 27.1224 200.353 27.2646 200.353 27.2646C200.421 27.4695 200.569 27.6231 200.569 27.6231L199.345 27.6686C199.448 27.606 199.59 27.1679 199.59 27.1679C199.522 26.946 199.67 26.6331 199.67 26.6331C199.664 26.4283 199.829 25.9503 199.829 25.9503L199.812 22.3716Z" fill="#0D6E38"/>
<path d="M199.95 38.3993C190.042 38.3993 181.984 30.3427 181.984 20.4428C181.984 10.5428 190.048 2.49194 199.956 2.49194C209.864 2.49194 217.922 10.5485 217.922 20.4484C217.916 30.3484 209.853 38.3993 199.95 38.3993ZM199.956 2.96987C190.31 2.96987 182.463 10.8045 182.463 20.4428C182.463 30.081 190.31 37.9213 199.95 37.9213C209.597 37.9213 217.444 30.081 217.444 20.4484C217.444 10.8102 209.597 2.97556 199.956 2.96987Z" fill="#3CA3DD"/>
<path d="M4.99169 33.62C2.15017 33.62 0.726562 31.9757 0.726562 28.6814C0.726562 27.7142 0.85184 26.7356 1.0967 25.7342L3.73891 25.2392C3.43141 26.3316 3.27766 27.3956 3.27766 28.4197C3.27766 30.468 3.91544 31.4921 5.1853 31.4921C6.39821 31.4921 7.00751 30.468 7.00751 28.4197V21.6206H9.54722V21.8823C9.54722 22.7073 9.48459 23.4356 9.35931 24.0728H9.38778C9.71806 23.2307 10.2476 22.5651 10.9651 22.0814C11.6542 21.6206 12.4058 21.3873 13.2258 21.3873C14.3761 21.3873 15.2587 21.7344 15.8737 22.4342C16.4603 23.1113 16.7507 24.0557 16.7507 25.279C16.7507 26.6161 16.3635 27.6687 15.5833 28.4254C14.7121 29.2618 13.408 29.6828 11.6712 29.6828H9.41625C9.13153 32.3057 7.65668 33.62 4.99169 33.62ZM11.8762 27.5492C13.3796 27.5492 14.1312 26.838 14.1312 25.4213C14.1312 24.1638 13.6529 23.538 12.7019 23.538C11.9844 23.538 11.3182 23.9306 10.7032 24.7157C10.1053 25.4895 9.70667 26.4283 9.50736 27.5435H11.8762V27.5492ZM12.9924 20.4542C12.6393 20.4542 12.3432 20.3233 12.104 20.0616C11.8592 19.7999 11.7339 19.4756 11.7339 19.1001C11.7339 18.7302 11.8592 18.4173 12.104 18.1556C12.3489 17.8995 12.645 17.7687 12.9924 17.7687C13.3454 17.7687 13.6415 17.8995 13.8864 18.1556C14.1312 18.4116 14.2565 18.7245 14.2565 19.1001C14.2565 19.4813 14.1312 19.7999 13.8864 20.0616C13.6415 20.3233 13.3454 20.4542 12.9924 20.4542ZM18.4932 17.5923H21.0386V27.5492H22.5476V29.6771H18.4932V17.5923ZM22.3141 27.5492H26.3002V29.6771H22.3141V27.5492ZM26.1408 27.5492H30.1269V29.6771H26.1408V27.5492ZM29.9674 27.5492H32.8659V21.6206H35.4056V29.6771H29.9674V27.5492ZM32.547 32.2431C32.547 32.613 32.4274 32.9259 32.1939 33.1819C31.9662 33.438 31.6814 33.5688 31.3398 33.5688C31.0038 33.5688 30.7191 33.438 30.4856 33.1819C30.2521 32.9259 30.1326 32.613 30.1326 32.2431C30.1326 31.879 30.2521 31.5718 30.4856 31.3157C30.7191 31.0597 31.0095 30.9288 31.3398 30.9288C31.6758 30.9288 31.9605 31.0597 32.1939 31.3157C32.4274 31.5718 32.547 31.8847 32.547 32.2431ZM35.4056 32.2431C35.4056 32.613 35.2917 32.9259 35.0582 33.1819C34.8248 33.438 34.5344 33.5688 34.2041 33.5688C33.8567 33.5688 33.572 33.438 33.3385 33.1819C33.1108 32.9316 32.9969 32.6186 32.9969 32.2431C32.9969 31.879 33.1108 31.5718 33.3385 31.3157C33.572 31.0597 33.8567 30.9288 34.2041 30.9288C34.5401 30.9288 34.8248 31.0597 35.0582 31.3157C35.2917 31.5718 35.4056 31.8847 35.4056 32.2431ZM37.7688 33.9955C37.3645 33.9955 36.9887 33.9614 36.6299 33.8931L36.8121 31.7538C37.1367 31.8449 37.5012 31.8847 37.9055 31.8847C38.4009 31.8847 38.7596 31.7481 38.9874 31.4636C39.238 31.145 39.3632 30.6045 39.3632 29.8421V21.6206H41.9086V27.5549H43.3721V29.6828H41.9086V29.7511C41.9086 32.5788 40.5249 33.9955 37.7688 33.9955ZM43.1159 27.5492H44.9495V17.5923H47.512V29.6771H43.1216V27.5492H43.1159ZM50.0118 17.5923H52.5572V29.6771H50.0118V17.5923ZM61.8562 29.6771C58.9577 29.6771 57.5114 28.3628 57.5114 25.7342C57.5114 24.4995 57.8587 23.4925 58.5477 22.7016C59.3279 21.8197 60.444 21.3816 61.8904 21.3816C63.2286 21.3816 64.3902 21.5807 65.364 21.9733V27.5492H66.816V29.6771H61.8562ZM60.2276 20.5054C59.8916 20.5054 59.6069 20.3745 59.3734 20.1128C59.14 19.8568 59.0261 19.5439 59.0261 19.174C59.0261 18.8099 59.14 18.497 59.3734 18.2352C59.6069 17.9792 59.8916 17.8483 60.2276 17.8483C60.5636 17.8483 60.8483 17.9792 61.0818 18.2352C61.3152 18.497 61.4348 18.8099 61.4348 19.174C61.4348 19.5439 61.3152 19.8511 61.0818 20.1128C60.8483 20.3745 60.5636 20.5054 60.2276 20.5054ZM62.8869 23.7769C62.5566 23.6006 62.1409 23.5095 61.6455 23.5095C61.1501 23.5095 60.7515 23.6973 60.4611 24.0785C60.182 24.4426 60.0454 24.9092 60.0454 25.4781C60.0454 26.8607 60.7344 27.5549 62.1181 27.5549H62.8869V23.7769ZM63.0976 20.5054C62.7502 20.5054 62.4655 20.3745 62.232 20.1128C62.0043 19.8568 61.8904 19.5439 61.8904 19.174C61.8904 18.8042 62.0043 18.4913 62.232 18.2352C62.4655 17.9792 62.7502 17.8483 63.0976 17.8483C63.4336 17.8483 63.7183 17.9792 63.9518 18.2352C64.1795 18.497 64.2991 18.8099 64.2991 19.174C64.2991 19.5439 64.1852 19.8511 63.9518 20.1128C63.7183 20.3745 63.4336 20.5054 63.0976 20.5054ZM66.5769 27.5492H70.563V29.6771H66.5769V27.5492ZM70.4035 27.5492H70.8989C71.2121 27.5492 71.5083 27.5776 71.7873 27.6345C71.4342 27.1623 71.2634 26.5137 71.2634 25.7C71.2634 24.4199 71.6563 23.3844 72.4478 22.5764C73.2337 21.7799 74.2416 21.3816 75.4716 21.3816C76.7016 21.3816 77.6468 21.7173 78.3074 22.383C78.985 23.0657 79.321 24.0557 79.321 25.353C79.321 26.3885 79.0761 27.1509 78.5921 27.6288C78.9793 27.5719 79.3495 27.5435 79.7082 27.5435H80.4143V29.6714H70.4092V27.5492H70.4035ZM73.8771 20.5054C73.5412 20.5054 73.2564 20.3745 73.023 20.1128C72.7952 19.8568 72.6813 19.5439 72.6813 19.174C72.6813 18.8099 72.7952 18.497 73.023 18.2352C73.2564 17.9792 73.5469 17.8483 73.8771 17.8483C74.2131 17.8483 74.4978 17.9792 74.737 18.2352C74.9705 18.497 75.09 18.8099 75.09 19.174C75.09 19.5439 74.9705 19.8511 74.737 20.1128C74.5035 20.3745 74.2188 20.5054 73.8771 20.5054ZM75.2609 27.5492C75.7221 27.5492 76.0866 27.3785 76.3599 27.0314C76.6389 26.6673 76.7756 26.1666 76.7756 25.5237C76.7756 24.1809 76.2916 23.5095 75.3121 23.5095C74.8964 23.5095 74.5434 23.6632 74.27 23.9704C73.9568 24.3232 73.7974 24.8181 73.7974 25.4611C73.7974 26.855 74.2871 27.5492 75.2609 27.5492ZM76.7414 20.5054C76.3941 20.5054 76.1093 20.3745 75.8759 20.1128C75.6424 19.8568 75.5285 19.5439 75.5285 19.174C75.5285 18.8042 75.6424 18.4913 75.8759 18.2352C76.1093 17.9792 76.3998 17.8483 76.7414 17.8483C77.0774 17.8483 77.3621 17.9792 77.5956 18.2352C77.8291 18.497 77.9486 18.8099 77.9486 19.174C77.9486 19.5439 77.8291 19.8511 77.5956 20.1128C77.3621 20.3745 77.0774 20.5054 76.7414 20.5054ZM80.1695 27.5492H81.9689V17.5923H84.5314V21.8766C84.5314 22.713 84.4631 23.4413 84.3207 24.0671H84.3549C84.6852 23.2307 85.2147 22.5651 85.9436 22.0757C86.6326 21.6149 87.39 21.3816 88.2043 21.3816C89.3546 21.3816 90.2372 21.7287 90.8408 22.4285C91.4273 23.1056 91.7178 24.05 91.7178 25.2733C91.7178 26.1609 91.5469 26.9176 91.211 27.5492H92.8054V29.6771H80.1752V27.5492H80.1695ZM86.9743 27.5492C88.3922 27.5207 89.104 26.8152 89.104 25.4213C89.104 24.1638 88.6257 23.538 87.6633 23.538C86.9572 23.538 86.2967 23.9306 85.6817 24.7157C85.0781 25.4895 84.6851 26.434 84.4915 27.5435H86.9743V27.5492ZM92.4637 27.5492H94.6333V21.6206H97.1958V27.5549H98.6422V29.6828H92.4694V27.5492H92.4637ZM95.9032 20.4542C95.5558 20.4542 95.2597 20.3233 95.0148 20.0616C94.7757 19.7999 94.6561 19.4756 94.6561 19.1001C94.6561 18.7302 94.7757 18.4173 95.0148 18.1556C95.2597 17.8995 95.5558 17.7687 95.9032 17.7687C96.2562 17.7687 96.558 17.8995 96.8029 18.1556C97.0477 18.4116 97.173 18.7245 97.173 19.1001C97.173 19.4813 97.0477 19.7999 96.8029 20.0616C96.558 20.3233 96.2619 20.4542 95.9032 20.4542ZM98.3973 29.6771V27.5492H99.0863C99.4508 27.5492 99.7412 27.5947 99.9576 27.6857C99.485 27.259 99.2515 26.5364 99.2515 25.5294C99.2515 24.3744 99.6045 23.4128 100.311 22.6504C101.096 21.8083 102.167 21.3873 103.522 21.3873C104.804 21.3873 105.76 21.7571 106.404 22.5025C106.996 23.1909 107.292 24.1468 107.292 25.3814V29.6828H98.3973V29.6771ZM104.821 25.6716C104.821 24.2321 104.337 23.5152 103.374 23.5152C102.873 23.5152 102.475 23.703 102.178 24.0842C101.899 24.4483 101.763 24.9149 101.763 25.4838C101.763 26.8664 102.452 27.5606 103.835 27.5606H104.815V25.6716H104.821ZM116.272 29.6771C113.374 29.6771 111.927 28.3628 111.927 25.7342C111.927 24.4995 112.275 23.4925 112.964 22.7016C113.744 21.8197 114.86 21.3816 116.301 21.3816C117.639 21.3816 118.8 21.5807 119.774 21.9733V27.5492H121.226V29.6771H116.272ZM114.644 20.5054C114.308 20.5054 114.023 20.3745 113.789 20.1128C113.562 19.8568 113.442 19.5439 113.442 19.174C113.442 18.8099 113.556 18.497 113.789 18.2352C114.023 17.9792 114.313 17.8483 114.644 17.8483C114.979 17.8483 115.264 17.9792 115.498 18.2352C115.731 18.497 115.851 18.8099 115.851 19.174C115.851 19.5439 115.731 19.8511 115.498 20.1128C115.264 20.3745 114.979 20.5054 114.644 20.5054ZM117.303 23.7769C116.973 23.6006 116.557 23.5095 116.061 23.5095C115.56 23.5095 115.167 23.6973 114.877 24.0785C114.598 24.4426 114.461 24.9092 114.461 25.4781C114.461 26.8607 115.15 27.5549 116.534 27.5549H117.303V23.7769ZM117.514 20.5054C117.166 20.5054 116.881 20.3745 116.648 20.1128C116.414 19.8568 116.301 19.5439 116.301 19.174C116.301 18.8042 116.414 18.4913 116.648 18.2352C116.876 17.9792 117.166 17.8483 117.514 17.8483C117.849 17.8483 118.134 17.9792 118.368 18.2352C118.595 18.497 118.715 18.8099 118.715 19.174C118.715 19.5439 118.601 19.8511 118.368 20.1128C118.134 20.3745 117.849 20.5054 117.514 20.5054ZM120.987 27.5492H124.973V29.6771H120.987V27.5492ZM124.819 27.5492H126.989V21.6206H129.552V29.6771H124.825V27.5492H124.819ZM128.259 20.4542C127.912 20.4542 127.615 20.3233 127.371 20.0616C127.131 19.7999 127.006 19.4756 127.006 19.1001C127.006 18.7302 127.126 18.4173 127.371 18.1556C127.615 17.8995 127.912 17.7687 128.259 17.7687C128.612 17.7687 128.919 17.8995 129.164 18.1556C129.409 18.4116 129.534 18.7245 129.534 19.1001C129.534 19.4813 129.409 19.7999 129.164 20.0616C128.919 20.3233 128.618 20.4542 128.259 20.4542ZM131.846 17.5923H134.392V27.5492H135.901V29.6771H131.846V17.5923ZM135.662 27.5492H139.648V29.6771H135.662V27.5492ZM139.494 29.6771V27.5492H140.189C140.553 27.5492 140.844 27.5947 141.06 27.6857C140.587 27.259 140.354 26.5364 140.354 25.5294C140.354 24.3744 140.707 23.4128 141.413 22.6504C142.199 21.8083 143.269 21.3873 144.625 21.3873C145.906 21.3873 146.863 21.7571 147.506 22.5025C148.098 23.1909 148.394 24.1468 148.394 25.3814V29.6828H139.494V29.6771ZM145.912 25.6716C145.912 24.2321 145.428 23.5152 144.465 23.5152C143.964 23.5152 143.565 23.703 143.269 24.0842C142.99 24.4483 142.854 24.9149 142.854 25.4838C142.854 26.8664 143.543 27.5606 144.926 27.5606H145.906V25.6716H145.912ZM149.288 15.8456C149.624 15.8456 149.909 15.874 150.143 15.9366C149.949 15.7944 149.852 15.5611 149.852 15.2311C149.852 14.7532 150.046 14.3549 150.427 14.0192C150.877 13.6209 151.521 13.4275 152.358 13.4275C152.557 13.4275 152.779 13.4446 153.018 13.4844L153.354 13.5356L153.126 14.8783L152.859 14.8328C152.665 14.8101 152.477 14.7987 152.295 14.7987C151.805 14.7987 151.555 14.9637 151.555 15.2994C151.555 15.6635 151.908 15.8456 152.614 15.8456H153.593V17.2168H149.277V15.8456H149.288ZM150.274 18.1101H152.819V29.6771H150.274V18.1101Z" fill="white"/>
<path d="M0 38.9456H1.01361V46.655H0V38.9456ZM0.444165 42.3707H2.90985C3.10346 42.3707 3.27429 42.3195 3.42235 42.2228C3.5704 42.1204 3.68429 41.9838 3.76971 41.8018C3.84943 41.6197 3.88929 41.4092 3.88929 41.1759C3.88929 40.9369 3.84943 40.7321 3.76971 40.55C3.68999 40.368 3.5761 40.2257 3.42804 40.129C3.27999 40.0323 3.10916 39.9811 2.90985 39.9811H0.444165V38.9569H2.86999C3.29138 38.9569 3.65582 39.048 3.97471 39.23C4.2879 39.4121 4.53276 39.6738 4.70929 40.0095C4.88582 40.3452 4.97123 40.7378 4.97123 41.1816C4.97123 41.6254 4.88582 42.0123 4.70929 42.348C4.53276 42.6837 4.2879 42.9454 3.96901 43.1274C3.65013 43.3095 3.28568 43.4005 2.86999 43.4005H0.444165V42.3707ZM2.41444 43.1616L3.42804 42.9169L5.27304 46.655H4.07151L2.41444 43.1616Z" fill="white"/>
<path d="M8.27142 38.9512H7.25781V46.6549H8.27142V38.9512Z" fill="white"/>
<path d="M12.848 43.5256V46.6549H11.8287V43.5256L9.625 38.9512H10.7582L12.3412 42.4275L13.9186 38.9512H15.0518L12.848 43.5256Z" fill="white"/>
<path d="M17.5869 38.9512H18.4524L21.1231 46.6549H20.0298L18.0253 40.4419L16.0152 46.6549H14.9219L17.5869 38.9512ZM16.1519 43.941H19.9557V44.9708H16.1519V43.941Z" fill="white"/>
<path d="M22.8281 38.9512H23.8417V46.6549H22.8281V38.9512ZM23.5171 45.6308H25.1514C25.6867 45.6308 26.0967 45.4829 26.3928 45.187C26.6889 44.8912 26.8313 44.4758 26.8313 43.941V41.6765C26.8313 41.136 26.6832 40.7263 26.3928 40.4305C26.1024 40.1346 25.6867 39.9867 25.1514 39.9867H23.5171V38.9569H25.123C25.7038 38.9569 26.1992 39.065 26.6092 39.2812C27.0192 39.4974 27.3324 39.8103 27.5488 40.2256C27.7652 40.641 27.8734 41.136 27.8734 41.722V43.9068C27.8734 44.4872 27.7652 44.9879 27.5488 45.4032C27.3324 45.8186 27.0192 46.1315 26.6092 46.3477C26.1935 46.5468 25.6981 46.6549 25.1173 46.6549H23.5171V45.6308Z" fill="white"/>
<path d="M30.0547 38.9512H31.0683V46.6549H30.0547V38.9512ZM30.6868 42.3479H34.7013V43.3777H30.6868V42.3479ZM34.1661 38.9512H35.1797V46.6549H34.1661V38.9512Z" fill="white"/>
<path d="M40.9219 38.9456H41.9355V46.655H40.9219V38.9456ZM41.366 42.3707H43.8317C44.0253 42.3707 44.1962 42.3195 44.3442 42.2228C44.4923 42.1204 44.6062 41.9838 44.6916 41.8018C44.7713 41.6197 44.8112 41.4092 44.8112 41.1759C44.8112 40.9369 44.7713 40.7321 44.6916 40.55C44.6119 40.368 44.498 40.2257 44.3499 40.129C44.2019 40.0323 44.031 39.9811 43.8374 39.9811H41.3717V38.9569H43.7976C44.2133 38.9569 44.5834 39.048 44.9023 39.23C45.2212 39.4121 45.466 39.6738 45.6369 40.0095C45.8134 40.3452 45.8988 40.7378 45.8988 41.1816C45.8988 41.6254 45.8134 42.0123 45.6369 42.348C45.4603 42.6837 45.2155 42.9454 44.8966 43.1274C44.5777 43.3095 44.2133 43.4005 43.7976 43.4005H41.3717V42.3707H41.366ZM43.3306 43.1616L44.3442 42.9169L46.1949 46.655H44.9877L43.3306 43.1616Z" fill="white"/>
<path d="M48.1719 38.9512H49.1855V46.6549H48.1719V38.9512ZM48.6673 38.9512H52.8242V39.9753H48.6673V38.9512ZM48.6673 42.3194H52.2719V43.3493H48.6673V42.3194ZM48.6673 45.6308H52.8242V46.6549H48.6673V45.6308Z" fill="white"/>
<path d="M59.8231 42.5073V43.8501C59.8231 44.4247 59.7206 44.9254 59.5099 45.3635C59.2992 45.8016 59.0031 46.1373 58.6216 46.3763C58.24 46.6153 57.7959 46.7347 57.2891 46.7347C56.7766 46.7347 56.3324 46.6209 55.9452 46.3991C55.5579 46.1772 55.2618 45.8585 55.0455 45.4489C54.8348 45.0392 54.7266 44.5613 54.7266 44.0208V41.7449C54.7266 41.1703 54.8291 40.6696 55.0398 40.2372C55.2505 39.7991 55.5466 39.4634 55.9281 39.2244C56.3096 38.9855 56.7538 38.866 57.2606 38.866C57.6763 38.866 58.0578 38.9627 58.4052 39.1504C58.7525 39.3382 59.0486 39.6056 59.2821 39.9527C59.5213 40.2998 59.675 40.698 59.7604 41.1532H58.6614C58.6045 40.8915 58.502 40.6753 58.3596 40.4875C58.2172 40.2998 58.0464 40.1575 57.8585 40.0608C57.6649 39.9641 57.4656 39.9129 57.2606 39.9129C56.9645 39.9129 56.7025 39.9868 56.4748 40.1404C56.247 40.2941 56.0761 40.5046 55.9509 40.7777C55.8313 41.0508 55.7686 41.3751 55.7686 41.7335V44.0094C55.7686 44.3394 55.8313 44.6296 55.9566 44.8799C56.0818 45.1303 56.2641 45.3237 56.4918 45.4603C56.7196 45.5968 56.9872 45.6651 57.2891 45.6651C57.5852 45.6651 57.8471 45.5911 58.0749 45.4489C58.3027 45.3066 58.4735 45.0961 58.5988 44.8287C58.7184 44.5556 58.781 44.2313 58.781 43.8558V43.5201H57.3118V42.4903H59.8231V42.5073Z" fill="white"/>
<path d="M63.0839 38.9512H62.0703V46.6549H63.0839V38.9512Z" fill="white"/>
<path d="M66.4551 46.3819C66.0679 46.1486 65.7718 45.8129 65.5611 45.3862C65.3504 44.9595 65.2422 44.4588 65.2422 43.8955V41.7107C65.2422 41.1474 65.3447 40.6468 65.5611 40.22C65.7718 39.7933 66.0679 39.4576 66.4551 39.2243C66.8423 38.9911 67.2865 38.8716 67.7876 38.8716C68.2887 38.8716 68.7329 38.9911 69.1201 39.2243C69.5073 39.4576 69.8034 39.7933 70.0141 40.22C70.2248 40.6468 70.3273 41.1474 70.3273 41.7107V43.8955C70.3273 44.4588 70.2248 44.9595 70.0141 45.3862C69.8034 45.8129 69.5073 46.1486 69.1201 46.3819C68.7329 46.6152 68.2887 46.7347 67.7876 46.7347C67.2865 46.7347 66.8423 46.6209 66.4551 46.3819ZM68.5791 45.4545C68.8069 45.3123 68.9777 45.1074 69.103 44.8457C69.2283 44.584 69.2909 44.2767 69.2909 43.9297V41.6709C69.2909 41.3238 69.2283 41.0223 69.103 40.7549C68.9777 40.4931 68.8012 40.2883 68.5791 40.1461C68.3513 40.0038 68.0894 39.9299 67.7933 39.9299C67.4972 39.9299 67.2295 39.9981 67.0018 40.1461C66.774 40.2883 66.5975 40.4931 66.4722 40.7549C66.3469 41.0166 66.2843 41.3238 66.2843 41.6709V43.9297C66.2843 44.2767 66.3469 44.5783 66.4722 44.8457C66.5975 45.1074 66.774 45.3123 67.0018 45.4545C67.2295 45.5967 67.4915 45.6707 67.7933 45.6707C68.0894 45.6707 68.3513 45.6024 68.5791 45.4545Z" fill="white"/>
<path d="M72.5156 38.9512H73.4381L76.9744 44.9082L76.8548 45.0448V38.9512H77.857V46.6549H76.9288L73.404 40.7832L73.5235 40.6467V46.6549H72.5156V38.9512Z" fill="white"/>
<path d="M88.7928 38.9512H89.7437V46.6549H88.7529V40.8856L88.8041 41.227L87.0218 45.5853H86.3157L84.5333 41.3294L84.5846 40.8856V46.6549H83.5938V38.9512H84.5447L86.6687 44.0377L88.7928 38.9512Z" fill="white"/>
<path d="M93.2085 46.3989C92.827 46.177 92.5366 45.847 92.343 45.4203C92.1437 44.9936 92.0469 44.4758 92.0469 43.867V38.9512H93.0605V43.9068C93.0605 44.4701 93.1915 44.9025 93.4591 45.2098C93.721 45.517 94.0969 45.6706 94.5809 45.6706C95.0706 45.6706 95.4464 45.517 95.7141 45.2098C95.9817 44.9025 96.1127 44.4701 96.1127 43.9068V38.9512H97.1263V43.867C97.1263 44.4701 97.0295 44.9879 96.8302 45.4203C96.6309 45.847 96.3405 46.177 95.959 46.3989C95.5774 46.6208 95.1162 46.7346 94.5809 46.7346C94.0456 46.7403 93.5901 46.6265 93.2085 46.3989Z" fill="white"/>
<path d="M99.4375 38.9512H100.354L103.896 44.9082L103.771 45.0448V38.9512H104.779V46.6549H103.851L100.32 40.7832L100.44 40.6467V46.6549H99.4375V38.9512Z" fill="white"/>
<path d="M108.193 38.9512H107.18V46.6549H108.193V38.9512Z" fill="white"/>
<path d="M112.117 46.7347C112.117 46.7347 111.929 46.6152 111.547 46.3819C111.166 46.1429 110.875 45.8129 110.665 45.3748C110.454 44.9424 110.352 44.436 110.352 43.8671V41.7505C110.352 41.1816 110.454 40.6752 110.665 40.2428C110.875 39.8047 111.166 39.469 111.547 39.23C111.929 38.9911 112.367 38.8716 112.869 38.8716C113.284 38.8716 113.666 38.9683 114.013 39.1561C114.36 39.3438 114.651 39.6112 114.884 39.9583C115.118 40.3054 115.277 40.7036 115.357 41.1588H114.315C114.252 40.9199 114.144 40.7036 113.996 40.5159C113.848 40.3281 113.677 40.1802 113.478 40.0778C113.278 39.9754 113.073 39.9242 112.863 39.9242C112.567 39.9242 112.31 39.9981 112.088 40.1518C111.866 40.3054 111.695 40.5159 111.57 40.789C111.451 41.0621 111.388 41.3807 111.388 41.7449V43.8614C111.388 44.2198 111.451 44.5385 111.57 44.8173C111.695 45.0904 111.866 45.3066 112.088 45.4545C112.31 45.6024 112.567 45.6764 112.863 45.6764C113.079 45.6764 113.284 45.6309 113.483 45.5341C113.677 45.4374 113.854 45.2952 114.002 45.1074C114.15 44.9197 114.258 44.6978 114.321 44.4417H115.363C115.283 44.8969 115.123 45.3009 114.884 45.6423C114.651 45.9893 114.355 46.2567 114.007 46.4445C113.66 46.6322 113.279 46.729 112.869 46.729H112.117V46.7347Z" fill="white"/>
<path d="M118.435 38.9512H117.422V46.6549H118.435V38.9512Z" fill="white"/>
<path d="M120.836 38.9512H121.85V46.6549H120.836V38.9512ZM121.36 42.6381H123.672C123.894 42.6381 124.082 42.5812 124.253 42.4731C124.418 42.365 124.549 42.2113 124.634 42.0065C124.725 41.8017 124.771 41.5741 124.771 41.3124C124.771 41.0506 124.725 40.8117 124.634 40.6125C124.543 40.4077 124.418 40.2541 124.253 40.146C124.087 40.0322 123.894 39.981 123.672 39.981H121.36V38.9512H123.638C124.065 38.9512 124.452 39.0479 124.776 39.247C125.107 39.4405 125.357 39.7193 125.54 40.0777C125.722 40.4362 125.813 40.8458 125.813 41.3181C125.813 41.7846 125.722 42.2 125.54 42.5527C125.357 42.9112 125.107 43.1843 124.776 43.3777C124.452 43.5712 124.065 43.6679 123.638 43.6679H121.36V42.6381Z" fill="white"/>
<path d="M129.11 38.9512H129.976L132.641 46.6549H131.548L129.543 40.4419L127.539 46.6549H126.445L129.11 38.9512ZM127.67 43.941H131.473V44.9708H127.67V43.941Z" fill="white"/>
<path d="M134.344 38.9512H135.357V46.6549H134.344V38.9512ZM134.856 45.6308H138.996V46.6549H134.856V45.6308Z" fill="white"/>
<path d="M141.81 38.9512H140.797V46.6549H141.81V38.9512Z" fill="white"/>
<path d="M143.219 38.9512H148.321V39.9753H143.219V38.9512ZM145.263 39.5827H146.277V46.6549H145.263V39.5827Z" fill="white"/>
<path d="M152.121 43.5256V46.6549H151.102V43.5256L148.898 38.9512H150.032L151.615 42.4275L153.192 38.9512H154.325L152.121 43.5256Z" fill="white"/>
</g>
<defs>
<clipPath id="clip0_7_435">
<rect width="231" height="62" fill="white"/>
</clipPath>
</defs>
</svg>
