<?xml version="1.0" encoding="utf-8"?>
<!-- Generator: Adobe Illustrator 27.9.0, SVG Export Plug-In . SVG Version: 6.00 Build 0)  -->
<svg version="1.1" id="Layer_1" xmlns="http://www.w3.org/2000/svg" xmlns:xlink="http://www.w3.org/1999/xlink" x="0px" y="0px"
	 viewBox="0 0 108.98 108.97" style="enable-background:new 0 0 108.98 108.97;" xml:space="preserve">
<style type="text/css">
	.st0{fill:#FFFFFF;}
	.st1{fill:#8CADDB;}
	.st2{fill:#3CA3DD;}
	.st3{fill:#0D6E38;}
</style>
<path class="st0" d="M54.48,108.97h-0.01c-14.53,0-28.21-5.68-38.51-15.98C5.67,82.69,0,69.01,0,54.48C0,24.44,24.45,0,54.48,0h0.01
	C69.02,0,82.7,5.68,93,15.98c10.31,10.3,15.98,23.98,15.98,38.51c0,14.53-5.68,28.21-15.98,38.51
	C82.69,103.3,69.01,108.97,54.48,108.97 M54.48,0.69C24.82,0.69,0.7,24.82,0.69,54.48c0,14.35,5.6,27.85,15.77,38.03
	c10.17,10.17,23.67,15.77,38.02,15.78h0.01c14.34,0,27.85-5.6,38.02-15.76c10.17-10.17,15.78-23.68,15.78-38.02
	c0.01-14.35-5.59-27.85-15.77-38.02C82.34,6.3,68.84,0.69,54.48,0.69L54.48,0.69z"/>
<path class="st1" d="M93.44,42.12c0,21.87-17.73,39.6-39.6,39.6c-21.87,0-39.6-17.73-39.6-39.6c0-21.87,17.73-39.6,39.6-39.6
	C75.71,2.52,93.44,20.25,93.44,42.12"/>
<path class="st0" d="M54.5,2.8C25.95,2.79,2.8,25.93,2.8,54.48c0,28.55,23.14,51.69,51.68,51.69c28.54,0,51.69-23.13,51.7-51.68
	C106.18,25.95,83.04,2.8,54.5,2.8 M54.45,68.92c-18.14,0-32.85-14.71-32.84-32.85c0-18.14,14.72-32.85,32.85-32.84
	c18.14,0,32.85,14.71,32.84,32.85C87.3,54.21,72.59,68.92,54.45,68.92"/>
<path class="st2" d="M54.49,106.34L54.49,106.34c-13.86,0-26.88-5.4-36.67-15.19C8.03,81.35,2.64,68.33,2.64,54.48
	c0-28.59,23.27-51.85,51.85-51.85h0.01c28.59,0,51.85,23.27,51.85,51.86C106.34,83.08,83.08,106.34,54.49,106.34 M54.49,2.96
	c-28.41,0-51.52,23.11-51.53,51.52c0,13.76,5.35,26.7,15.09,36.43c9.73,9.73,22.67,15.1,36.43,15.1h0.01
	c28.41,0,51.52-23.11,51.52-51.52C106.02,26.08,82.91,2.97,54.49,2.96L54.49,2.96z M54.46,69.08L54.46,69.08
	c-18.21,0-33.01-14.81-33.01-33.02c0-8.82,3.44-17.11,9.68-23.34c6.24-6.23,14.52-9.67,23.34-9.67h0c8.82,0,17.11,3.44,23.34,9.67
	c6.24,6.24,9.67,14.52,9.67,23.34C87.46,54.27,72.66,69.08,54.46,69.08 M54.45,68.75L54.45,68.75c18.03,0,32.69-14.66,32.69-32.68
	c0-8.73-3.4-16.94-9.57-23.11C71.4,6.79,63.19,3.38,54.46,3.38h0c-8.73,0-16.93,3.4-23.11,9.57c-6.17,6.17-9.58,14.38-9.58,23.11
	C21.77,54.08,36.43,68.75,54.45,68.75"/>
<path class="st2" d="M74.58,69.35c0,0,2.8,0.74,5.74-0.91c0,0-0.02,1.33,0.28,1.66c0.22,0.25,10.88,10.3,10.88,10.3l-2.17,2.84
	L74.58,69.52C74.58,69.52,74.42,69.31,74.58,69.35"/>
<path class="st2" d="M73.31,70.85c0,0,0.58,2.97-0.63,5.83l1.5,0.16l4.17,3.78c0,0-3.33,2.96-5.85,4.38c0,0-0.21,0.16-0.29,0
	c-0.08-0.16-2.94-4.49-2.94-4.49s-0.45,3.83-1.76,5.25v0.36c0,0,0.55-0.02,0.97,0.16c0.42,0.18,0.52,0.34,0.52,0.34l2.97,4.62
	c0,0,0.13,1.42-0.06,1.94c-0.18,0.52-0.42,1.62-3.05,2.26c0,0-0.21,0.79,2.78,0.58c2.93-0.21,4.61-3.31,3.88-6.22
	c-0.01-0.06-0.03-0.12-0.04-0.18c0,0,6.8-4.29,9.36-7.71c0.02-0.02,0.03-0.04,0.05-0.07C84.9,81.84,74.36,71.55,73.31,70.85"/>
<path class="st2" d="M63.21,81.8c0,0,0.21-0.03,0.25,0.24c0.03,0.28,3.71,11.41,3.71,11.41s-12.51,5.11-27.57-0.72l6.06-18.53
	c0,0,0.09-0.07,0.09,0c0,0.07,1.19,3.4,3.18,4.65l-0.02,0.19c0,0-1.03,0.1-1.45,1.4c-0.42,1.29-2.58,7.79-2.58,8
	c0,0.21,0.4,0.21,0.6,0.27c0.21,0.05,3.45,1.02,7.91,1.1c4.45,0.08,8.47-0.71,8.47-0.71s-0.08-1.73-1.76-2.41l-0.11-0.26
	C59.98,86.44,62.63,84.8,63.21,81.8"/>
<path class="st2" d="M38.12,78.58c-4.44-0.28-7.28,1.47-7.28,1.47c0.52-1.24,0.48-3.61,0.48-3.61c-2.02,1.34-3.88,1-4.54,0.86
	c-0.66-0.13-0.34,0.32-0.34,0.32c0.02,0.03,0.03,0.07,0.05,0.11c1.65,3.81-2.12,4.35-2.12,4.35c-3.2-0.32-2.7-3.05-2.67-3.36
	c0.02-0.31,0.5-2.75,4.67-3.75c4.17-1,3.25-0.97,3.41-1.1c0.16-0.13,0.81-0.76,0.55-1.13c-0.26-0.37-0.76,0-0.76,0
	c-0.13,0.05-0.6,0.13-0.6,0.13c-4.49,0.68-5.71,1.31-5.71,1.31c-5.25,2.8-4.03,7.38-4.03,7.38c1.93,7.04,7.98,3.46,7.98,3.46
	c4.44,4.55,10.74,6.83,10.74,6.83s3.05-9.31,3.11-9.59C41.13,81.97,42.57,78.86,38.12,78.58 M36.97,82.78
	c-0.25,0.91-0.49,1.97-0.73,2.07l-3.92-2.81c0,0,1.92-0.7,3.92-0.42C36.23,81.63,37.21,81.87,36.97,82.78"/>
<path class="st2" d="M35.15,74.49c0-1.2,0.97-2.17,2.17-2.17c1.2,0,2.18,0.98,2.18,2.17c0,1.2-0.98,2.17-2.18,2.17
	C36.12,76.66,35.15,75.69,35.15,74.49"/>
<path class="st2" d="M48.58,98.74c0-1.2,0.97-2.17,2.17-2.17c1.2,0,2.17,0.97,2.17,2.17c0,1.2-0.97,2.17-2.17,2.17
	C49.55,100.91,48.58,99.94,48.58,98.74"/>
<path class="st2" d="M56.04,98.64c0-1.2,0.98-2.17,2.17-2.17c1.2,0,2.17,0.98,2.17,2.17c0,1.2-0.97,2.17-2.17,2.17
	C57.01,100.81,56.04,99.83,56.04,98.64"/>
<path class="st0" d="M72.87,48.12l2.72-11.06c0,0,0.88-0.67,3.33-0.67c2.24,0,3.35,0.62,3.35,0.62l1.7,7.82c0,0-2.1,6.32-4.49,9.24
	C77.65,56.3,72.87,48.12,72.87,48.12"/>
<path class="st3" d="M78.71,54.53c-2.15,0-5.76-6.11-5.91-6.37l-0.01-0.03l2.74-11.12l0.02-0.01c0.03-0.03,0.93-0.69,3.37-0.69
	c2.23,0,3.35,0.61,3.39,0.63l0.03,0.02l1.72,7.87l-0.01,0.02c-0.02,0.06-2.13,6.37-4.5,9.26C79.32,54.39,79.03,54.53,78.71,54.53
	 M72.95,48.1c0.27,0.45,3.76,6.26,5.76,6.26c0.28,0,0.52-0.12,0.72-0.35c2.29-2.79,4.33-8.8,4.47-9.2l-1.7-7.76
	c-0.19-0.1-1.29-0.59-3.27-0.59c-2.18,0-3.11,0.54-3.26,0.64L72.95,48.1z"/>
<path class="st3" d="M82.56,36.77c0,0-1.56-0.72-3.64-0.72c-2.08,0-3.62,0.72-3.62,0.72l0.31,0.25c0,0,1.19-0.63,3.32-0.63
	c2.13,0,3.33,0.59,3.33,0.59L82.56,36.77z"/>
<path class="st0" d="M82.45,36.64l-0.92-4.35h-0.19v0.37h-0.17v0.14h-0.13v-0.05h-0.16v-0.22l-0.09-0.08h-0.12l0-0.41h-0.19v0.35
	h-0.14l-0.08,0.08v0.14h-0.14v-0.05h-0.08v-0.18l-0.08-0.08h-0.11v-0.4l-0.21,0v0.38l-0.19,0.08v0.17h-0.26v-0.2l-0.08-0.08H79
	l0-0.4h-0.2v0.41h-0.1l-0.11,0.11v0.14h-0.23v-0.2l-0.06-0.06h-0.14V31.9h-0.2v0.39h-0.1l-0.1,0.1v0.13h-0.15v0.07H77.5v-0.13
	l-0.07-0.07h-0.12v-0.35h-0.18v0.41h-0.1l-0.1,0.09v0.2h-0.15v0.04h-0.09v-0.15h-0.2v-0.35h-0.21l-0.88,4.35c0,0,1.35-0.59,3.5-0.59
	C81.06,36.05,82.45,36.64,82.45,36.64"/>
<path class="st3" d="M75.29,36.78l0.92-4.57h0.36v0.36h0.2v0.12h0.09v-0.16l0.14-0.14h0.06v-0.41h0.34v0.34h0.08l0.11,0.12v0.01h0.1
	v-0.08l0.15-0.15h0.06v-0.39h0.36v0.35h0.09l0.1,0.1v0.15h0.08v-0.1l0.15-0.16h0.06v-0.41h0.36v0.41h0.06l0.12,0.12v0.15h0.1v-0.13
	l0.19-0.08v-0.41h0.37v0.4h0.06l0.13,0.13v0.14l0.06-0.01v-0.03l0.13-0.12h0.1v-0.35h0.35v0.41h0.07l0.13,0.13v0.17h0.13v-0.09h0.17
	v-0.37h0.34l0.97,4.56l-0.14-0.06c-0.01-0.01-1.4-0.59-3.52-0.59c-2.11,0-3.46,0.58-3.47,0.59L75.29,36.78z M76.34,32.37l-0.84,4.15
	c0.4-0.15,1.64-0.54,3.4-0.54c1.76,0,3.03,0.4,3.44,0.54l-0.88-4.15h-0.05v0.37h-0.17v0.14h-0.28v-0.05H80.8v-0.26l-0.04-0.04H80.6
	v-0.41h-0.03v0.34h-0.19l-0.04,0.04v0.19h-0.3l-0.01-0.05h-0.08v-0.23l-0.03-0.03h-0.16v-0.4h-0.06v0.35l-0.18,0.08v0.19h-0.42
	v-0.24l-0.03-0.04h-0.15v-0.4h-0.04v0.41h-0.16l-0.06,0.06v0.19h-0.38v-0.24l-0.02-0.02h-0.18v-0.34h-0.04v0.39h-0.14l-0.05,0.06
	l0,0.17h-0.15v0.07h-0.27V32.5l-0.02-0.02h-0.17v-0.34h-0.02v0.41h-0.15l-0.05,0.05v0.25h-0.15v0.03h-0.24v-0.15h-0.2v-0.36H76.34z"
	/>
<rect x="78.52" y="35.32" class="st0" width="0.8" height="0.73"/>
<path class="st3" d="M78.6,35.39h0.64v0.58H78.6V35.39z M78.44,36.13h0.96v-0.89h-0.96V36.13z"/>
<path class="st0" d="M35.69,48.11l-2.72-11.07c0,0-0.88-0.67-3.33-0.67c-2.24,0-3.35,0.61-3.35,0.61l-1.7,7.82
	c0,0,2.1,6.32,4.48,9.24C30.9,56.29,35.69,48.11,35.69,48.11"/>
<path class="st3" d="M29.84,54.52L29.84,54.52c-0.32,0-0.61-0.14-0.84-0.42c-2.37-2.89-4.48-9.2-4.5-9.26l-0.01-0.02l1.72-7.87
	l0.03-0.02c0.05-0.02,1.16-0.63,3.38-0.63c2.44,0,3.34,0.66,3.38,0.68L33.04,37l0.01,0.03l2.73,11.1l-0.02,0.03
	C35.61,48.41,32,54.52,29.84,54.52 M24.67,44.81c0.13,0.4,2.18,6.41,4.46,9.2c0.2,0.24,0.43,0.36,0.71,0.36c2,0,5.49-5.81,5.76-6.26
	l-2.71-11c-0.15-0.1-1.08-0.64-3.25-0.64c-1.98,0-3.09,0.5-3.28,0.59L24.67,44.81z"/>
<path class="st3" d="M26,36.76c0,0,1.56-0.72,3.64-0.72c2.08,0,3.63,0.72,3.63,0.72l-0.32,0.24c0,0-1.19-0.63-3.32-0.63
	c-2.13,0-3.33,0.59-3.33,0.59L26,36.76z"/>
<path class="st0" d="M26.11,36.63l0.92-4.35h0.2v0.37h0.16v0.14h0.13v-0.05h0.16v-0.21l0.08-0.09h0.12v-0.41h0.19v0.34h0.14
	l0.08,0.08v0.14h0.15v-0.05h0.08v-0.18l0.08-0.08h0.11v-0.4h0.21v0.38l0.18,0.08v0.16h0.26v-0.2l0.08-0.08h0.11v-0.4h0.2v0.41h0.11
	l0.11,0.11v0.14h0.23v-0.2l0.06-0.06h0.14V31.9h0.2v0.4h0.1l0.1,0.1v0.13h0.15v0.07h0.11v-0.13l0.07-0.07h0.12l0-0.34h0.18v0.41h0.1
	l0.1,0.1v0.2h0.15v0.03h0.09v-0.15h0.2v-0.36h0.21l0.88,4.35c0,0-1.35-0.59-3.51-0.59C27.5,36.04,26.11,36.63,26.11,36.63"/>
<path class="st3" d="M33.27,36.77l-0.14-0.06c-0.01-0.01-1.36-0.59-3.47-0.59c-2.11,0-3.5,0.58-3.52,0.59L26,36.76l0.97-4.56h0.34
	v0.38h0.17v0.09h0.13v-0.17l0.13-0.13h0.08v-0.41h0.35v0.34h0.1l0.12,0.12v0.04h0.07v-0.14l0.13-0.13h0.06v-0.4H29v0.4l0.19,0.08
	v0.14h0.1v-0.15l0.13-0.13h0.06v-0.4h0.36v0.41h0.06l0.16,0.15v0.1h0.07v-0.15l0.11-0.1h0.09v-0.34h0.35v0.39h0.06l0.15,0.15v0.08
	h0.1v-0.01l0.11-0.11h0.08v-0.34h0.34v0.41h0.06l0.14,0.14v0.16h0.08v-0.12h0.2v-0.36h0.36L33.27,36.77z M29.66,35.96
	c1.76,0,3,0.4,3.4,0.55l-0.84-4.15h-0.07v0.36h-0.2v0.15H31.7v-0.03h-0.15v-0.25l-0.05-0.05h-0.15v-0.41h-0.03v0.34h-0.17
	l-0.02,0.02v0.18h-0.27V32.6h-0.15v-0.18l-0.05-0.06h-0.15v-0.39h-0.04v0.34H30.3l-0.02,0.02v0.24h-0.39v-0.19l-0.07-0.06h-0.15
	v-0.41h-0.04v0.4h-0.16l-0.04,0.04v0.24h-0.42V32.4l-0.19-0.08v-0.35h-0.05v0.4h-0.16L28.6,32.4v0.23h-0.08v0.05h-0.3V32.5
	l-0.03-0.03h-0.19v-0.34h-0.03v0.41H27.8l-0.04,0.04v0.26H27.6v0.05h-0.28v-0.14h-0.17v-0.37H27.1l-0.88,4.15
	C26.62,36.36,27.89,35.96,29.66,35.96"/>
<rect x="29.24" y="35.31" class="st0" width="0.8" height="0.74"/>
<path class="st3" d="M29.32,35.39h0.64v0.58h-0.64V35.39z M29.16,36.12h0.96v-0.89h-0.96V36.12z"/>
<path class="st0" d="M66.24,33.27L42.63,33.5l-12.66,6.74l-1.26,12.45c0,0,6.11,14.02,27.36,14.28"/>
<path class="st3" d="M56.07,67.12c-11.03-0.14-17.92-4.03-21.75-7.28c-4.16-3.52-5.74-7.06-5.75-7.1l-0.02-0.04l0-0.04l1.27-12.54
	l12.77-6.79h0.04l23.61-0.23l0,0.31l-23.57,0.23l-12.55,6.68l-1.25,12.33c0.18,0.38,1.78,3.68,5.66,6.96
	c3.79,3.2,10.61,7.05,21.54,7.19L56.07,67.12z"/>
<path class="st0" d="M56.07,66.97c0,0,15.43,0,24.28-14.13l-1.4-12.67l-12.72-6.9"/>
<path class="st3" d="M56.07,67.12v-0.31c0.04,0,3.9-0.02,8.78-1.76c4.49-1.6,10.79-5.02,15.34-12.25l-1.38-12.53L66.17,33.4
	l0.15-0.28l12.79,6.94l1.41,12.8l-0.03,0.05c-4.6,7.34-10.99,10.81-15.54,12.43C60.01,67.11,56.11,67.12,56.07,67.12"/>
<path class="st0" d="M64.74,26.92c0,0-3.41-1.89-10.24-1.89c-7.46,0-10.17,2.04-10.17,2.04L36,60.91c5.16,3.8,11.54,6.05,18.45,6.05
	c7.14,0,13.31-2.09,18.57-6.13L64.74,26.92z"/>
<path class="st3" d="M54.45,67.12c-6.73,0-13.14-2.1-18.54-6.08l-0.08-0.06l0.02-0.1l8.34-33.89l0.04-0.03
	c0.11-0.09,2.83-2.07,10.27-2.08h0.02c6.78,0,10.27,1.89,10.3,1.91l0.06,0.03l0.02,0.07l8.3,34.01l-0.08,0.06
	C67.79,65.05,61.51,67.12,54.45,67.12 M36.18,60.85c5.33,3.9,11.64,5.96,18.27,5.96c6.95,0,13.14-2.03,18.39-6.04L64.6,27.03
	c-0.48-0.24-3.87-1.84-10.09-1.84H54.5c-6.83,0-9.66,1.73-10.03,1.98L36.18,60.85z"/>
<path class="st3" d="M65.6,26.21c0,0-4.78-2.21-11.14-2.21c-6.36,0-11.08,2.21-11.08,2.21l0.96,0.75c0,0,3.64-1.92,10.16-1.92
	c6.52,0,10.17,1.8,10.17,1.8L65.6,26.21z"/>
<path class="st0" d="M65.47,26.05l-2.99-13.53h-0.6v1.14h-0.51v0.43h-0.38v-0.14H60.5v-0.66l-0.26-0.26h-0.38v-1.25H59.3v1.05h-0.44
	l-0.24,0.24v0.43h-0.44v-0.16h-0.25v-0.56l-0.24-0.24h-0.33v-1.23h-0.64v1.15l-0.56,0.25v0.5h-0.8v-0.59l-0.25-0.25h-0.33v-1.23
	h-0.62v1.26h-0.33l-0.34,0.33v0.43h-0.7v-0.6l-0.18-0.18h-0.42v-1.05h-0.61v1.21h-0.32l-0.31,0.31v0.4h-0.45v0.22h-0.34v-0.4
	l-0.2-0.2h-0.38V11.8h-0.56v1.24h-0.32l-0.29,0.29v0.63h-0.46v0.1h-0.27V13.6h-0.62v-1.09h-0.64l-2.88,13.61
	c0,0,4.33-2.13,10.91-2.13C61.05,24,65.47,26.05,65.47,26.05"/>
<path class="st3" d="M43.32,26.41l2.97-14.06h0.93v1.09h0.62v0.35h0.42v-0.54l0.38-0.38h0.22v-1.25h0.88v1.06h0.28l0.29,0.3v0.31
	h0.03v-0.22h0.45v-0.31l0.4-0.4h0.22v-1.21h0.92l0,1.05h0.33l0.28,0.28V13h0.39v-0.33l0.42-0.43H54v-1.26h0.93v1.23h0.23l0.34,0.34
	v0.5h0.49v-0.44l0.56-0.25v-1.21h0.96v1.23h0.25l0.33,0.33v0.47h0.25v0.16h0.13v-0.34l0.34-0.33h0.34v-1.05h0.89v1.25h0.28
	l0.35,0.35v0.56h0.49v0.14h0.07V13.5h0.51v-1.14h0.89l3.09,13.97l-0.29-0.13c-0.04-0.02-4.47-2.03-10.95-2.03
	c-6.48,0-10.8,2.09-10.84,2.11L43.32,26.41z M46.55,12.67l-2.79,13.18c1.07-0.47,5.1-2.01,10.69-2.01c5.61,0,9.71,1.5,10.8,1.94
	l-2.9-13.11h-0.32v1.14h-0.51v0.43h-0.7V14.1h-0.49v-0.75l-0.16-0.16h-0.47v-1.25h-0.26v1.05h-0.52l-0.15,0.15v0.52h-0.75V13.5
	h-0.25v-0.66l-0.15-0.15H57.2v-1.23h-0.33v1.1l-0.56,0.25v0.55h-1.12v-0.68l-0.16-0.15h-0.42V11.3h-0.3v1.26l-0.42,0l-0.24,0.24
	v0.52h-1.02v-0.69l-0.09-0.09h-0.51l0-1.05h-0.29v1.2h-0.41l-0.21,0.22v0.49h-0.45v0.22H50v-0.5l-0.11-0.11h-0.47v-1.06h-0.25v1.25
	h-0.41l-0.2,0.2v0.72h-0.46v0.1h-0.59v-0.46h-0.62v-1.09H46.55z"/>
<path class="st3" d="M55.89,24.16h-2.77v-2.55h2.77L55.89,24.16z M53.44,23.84h2.14v-1.92l-2.14,0V23.84z"/>
<path class="st3" d="M64.4,45.87c0,0-3.82-0.47-9.91,4.03c0,0-5.22-4.19-9.68-4.49c0,0,7.82,3.63,8.88,5.2c0,0-1.48,1.81-2.04,2.01
	c0,0-0.86-1.9-1.73-0.98c0,0-0.53,0.38-0.04,0.9c0,0,0.48,0.52,0.83,0.18l0.22,0.28c0,0-0.31,0.48-0.88,0.61c0,0-1.14-0.6-1.16,0.73
	c0,0,0.66,1.44,2.82-0.43c0,0,0.98,1.18,1.69,0.98c0,0,1.35-0.41,0.24-1.34c0,0-0.37-0.35-0.92,0.32l-0.45-0.38
	c0,0,2.01-1.87,2.15-1.98c0.14-0.12,2.09,1.97,2.09,1.97l-0.27,0.37c0,0-0.79-0.83-1.36,0.19c0,0,0.21,1.64,1.6,0.56l0.7-0.64
	c0,0,1.6,1.63,2.51,0.95c0,0,0.7-0.6,0.21-1.09c0,0-0.38-0.52-0.94-0.14c0,0-0.39,0.09-1.03-0.61l0.31-0.34c0,0,0.67,0.55,1.03-0.36
	c0,0,0.29-0.83-1.04-0.82c0,0-0.42,0.2-0.85,1.18l-2.01-1.97C55.39,50.77,58.12,47.87,64.4,45.87"/>
<path class="st3" d="M54.21,39.32c0,0-0.62,0.77-0.44,1.72c0,0-1.24-1.29-0.28-2.73c0,0-0.96,0.12-1.32,2.1c0,0-0.68-1.65,0.53-3.11
	c0,0-1.29,0.79-1.63,1.91c0,0-0.1-1.98,1.67-2.73c0,0-0.98-0.03-1.56,0.4c0,0,0.52-1.55,2.52-1.1c0,0-0.73-0.93-1.21-0.91
	c0,0,1.31-0.17,1.93,0.47c0,0-0.06-0.53,0.29-0.84c0,0,0.35,0.73,0.57,0.88c0,0,0.81-0.62,1.56-0.4c0,0-0.72,0.51-0.84,0.82
	c0,0,2.06-0.06,2.38,1.47c0,0-1.21-0.89-1.86-0.65c0,0,1.84,0.67,2.02,2.7c0,0-1.18-1.75-1.8-1.85c0,0,1.1,1.83,0.44,2.93
	c0,0-0.45-1.97-1.04-2.26c0,0,0.27,2.19-0.42,2.89c0,0-0.27-1.57-0.81-1.79l-0.09,6.4c0.06,0.54,0.21,0.71,0.21,0.71
	c-0.06,0.33-0.02,0.61-0.02,0.61c0.15,0.21,0.16,0.35,0.16,0.35c0.08,0.36-0.02,0.61-0.02,0.61c0.12,0.36,0.38,0.63,0.38,0.63
	l-2.15,0.08c0.18-0.11,0.43-0.88,0.43-0.88c-0.12-0.39,0.14-0.94,0.14-0.94c-0.01-0.36,0.28-1.2,0.28-1.2L54.21,39.32z"/>
<path class="st2" d="M54.45,67.49c-17.4,0-31.55-14.16-31.55-31.56c0-17.4,14.16-31.55,31.56-31.55c17.4,0,31.55,14.16,31.55,31.56
	C86,53.34,71.84,67.49,54.45,67.49 M54.46,5.22c-16.94,0-30.72,13.77-30.72,30.71c0,16.94,13.78,30.72,30.71,30.72
	c16.94,0,30.72-13.78,30.72-30.71C85.17,19,71.39,5.23,54.46,5.22"/>
</svg>
