<svg width="24" height="24" viewBox="0 0 24 24" fill="none" xmlns="http://www.w3.org/2000/svg">
<path d="M22 6.00003V8.42003C22 10 21 11 19.42 11H16V4.01003C16 2.90003 16.91 2.00003 18.02 2.00003C19.11 2.01003 20.11 2.45003 20.83 3.17003C21.55 3.90003 22 4.90003 22 6.00003Z" stroke="#545454" stroke-width="1.5" stroke-miterlimit="10" stroke-linecap="round" stroke-linejoin="round"/>
<path d="M2 7.00003V21C2 21.83 2.94 22.3 3.6 21.8L5.31 20.52C5.71 20.22 6.27 20.26 6.63 20.62L8.29 22.29C8.68 22.68 9.32 22.68 9.71 22.29L11.39 20.61C11.74 20.26 12.3 20.22 12.69 20.52L14.4 21.8C15.06 22.29 16 21.82 16 21V4.00003C16 2.90003 16.9 2.00003 18 2.00003H7H6C3 2.00003 2 3.79003 2 6.00003V7.00003Z" stroke="#545454" stroke-width="1.5" stroke-miterlimit="10" stroke-linecap="round" stroke-linejoin="round"/>
<path d="M9 13.01H12" stroke="#545454" stroke-width="1.5" stroke-linecap="round" stroke-linejoin="round"/>
<path d="M9 9.01004H12" stroke="#545454" stroke-width="1.5" stroke-linecap="round" stroke-linejoin="round"/>
<path d="M5.99561 13H6.00459" stroke="#545454" stroke-width="1.5" stroke-linecap="round" stroke-linejoin="round"/>
<path d="M5.99561 9.00003H6.00459" stroke="#545454" stroke-width="1.5" stroke-linecap="round" stroke-linejoin="round"/>
</svg>
