<svg width="484" height="112" viewBox="0 0 484 112" fill="none" xmlns="http://www.w3.org/2000/svg">
<path d="M38.9732 390.977C46.1185 376.197 59.7245 366.097 72.8823 356.332C75.7956 354.169 78.8094 351.932 81.6838 349.693C95.8479 338.657 112.27 321.238 110.069 300.926C107.895 280.869 88.927 267.636 72.1921 255.96C70.7312 254.942 69.2817 253.932 67.8597 252.926C41.7126 234.472 22.8415 213.424 11.7651 190.369C-1.32038 163.124 -2.83361 132.28 7.71772 107.861C19.5865 80.4012 47.0315 61.9909 74.4641 63.0885C86.4838 63.569 98.0618 67.5455 109.26 71.3895C115.147 73.412 121.238 75.5009 127.315 77.0592C143.999 81.3299 165.864 80.8393 177.194 66.6387C182.973 59.392 184.931 49.9258 186.821 40.7706C188.586 32.2304 190.412 23.3953 195.301 16.1281C208.41 -3.34992 238.802 -3.40974 258.959 8.76231C274.38 18.0725 285.899 32.4684 297.039 46.3887C300.349 50.5267 303.773 54.8063 307.239 58.8711C326.51 81.4854 345.947 92.8231 365.016 92.5685C381.858 92.3417 399.143 83.017 416.393 64.853C420.877 60.1308 425.213 55.077 429.407 50.1925C438.196 39.95 447.286 29.3601 458.29 21.1636C487.418 -0.530305 530.1 -4.97521 572.463 9.28305C610.45 22.0695 642.79 46.4698 674.07 70.0654L673.255 71.1448C642.068 47.6132 609.814 23.2769 572.033 10.5635C530.09 -3.55304 487.873 0.816337 459.099 22.2473C448.216 30.3545 439.174 40.8874 430.434 51.0726C426.23 55.9708 421.883 61.036 417.378 65.7834C399.868 84.2219 382.26 93.6906 365.041 93.9197C345.554 94.1813 325.764 82.6837 306.219 59.7492C302.739 55.6662 299.308 51.3797 295.991 47.2349C284.925 33.406 273.481 19.1038 258.266 9.92164C238.639 -1.92582 209.107 -1.9576 196.426 16.8871C191.683 23.9346 189.887 32.6349 188.145 41.047C186.221 50.36 184.23 59.9862 178.25 67.4845C163.488 85.9865 135.278 80.4945 126.981 78.3717C120.852 76.8019 114.736 74.7016 108.823 72.6722C97.7186 68.858 86.2367 64.918 74.4135 64.4421C47.5274 63.365 20.613 81.4414 8.96148 108.4C-1.43661 132.465 0.0652389 162.89 12.9861 189.788C23.9597 212.635 42.6869 233.512 68.6419 251.829C70.0662 252.832 71.511 253.843 72.9696 254.858C89.9423 266.699 109.178 280.117 111.416 300.786C113.683 321.718 96.9522 339.518 82.516 350.763C79.6301 353.013 76.6094 355.252 73.6915 357.42C60.6663 367.09 47.193 377.088 40.1941 391.567L38.9732 390.977Z" fill="#BFD8BD"/>
</svg>
