<svg width="100" height="29" viewBox="0 0 100 29" fill="none" xmlns="http://www.w3.org/2000/svg">
<path d="M100 14.6074C100 22.4415 93.9569 28.793 86.5 28.793C85.3589 28.793 84.2518 28.6447 83.1949 28.3638C83.161 27.1577 83.0768 25.9858 82.9452 24.8467C82.8041 23.6277 82.6576 22.4344 82.507 21.2696C82.355 20.1034 82.2601 18.9486 82.2193 17.8038C82.7227 17.6341 83.2736 17.513 83.8678 17.4388C84.4635 17.3647 85.0727 17.3276 85.6981 17.3276C86.5651 17.3276 87.3521 17.3647 88.0589 17.4388C88.7645 17.513 89.3994 17.6085 89.9652 17.724C90.5296 17.8409 91.0344 17.9849 91.478 18.1545L92.6571 15.1335C92.4766 13.1204 92.0832 11.4296 91.478 10.0623C90.8729 8.69511 90.1063 7.65722 89.1783 6.94722C88.2502 6.23723 87.2015 5.88224 86.0319 5.88224C85.1839 5.88224 84.397 6.10465 83.6711 6.54946C82.9452 6.99428 82.3496 7.60446 81.8869 8.37718C81.4216 9.15133 81.1393 10.0253 81.0389 11.0004L83.6711 11.6049C83.8326 10.9049 84.1148 10.3175 84.5191 9.83994C84.9221 9.36376 85.4865 9.12425 86.2124 9.12425C86.7374 9.12425 87.2272 9.33097 87.6804 9.74442C88.1349 10.1579 88.527 10.7624 88.8608 11.5565C89.1932 12.352 89.451 13.3215 89.6315 14.4663C89.2488 14.4021 88.8296 14.3494 88.3764 14.3066C87.9219 14.2653 87.4131 14.2439 86.8487 14.2439C85.9804 14.2439 85.1337 14.3023 84.3074 14.4178C83.4798 14.5347 82.7281 14.7315 82.0525 15.0066C81.3768 15.2818 80.8273 15.6738 80.404 16.1828C79.94 16.7132 79.6116 17.2849 79.4203 17.8993C79.229 18.5138 79.1327 19.1924 79.1327 19.9338C79.1327 20.189 79.2032 20.6495 79.3443 21.3167C79.4854 21.9853 79.6469 22.8479 79.8287 23.9086C79.9901 24.8524 80.1326 25.9459 80.2547 27.1848C75.9429 24.8182 73 20.0735 73 14.6074C73 6.77329 79.0445 0.421875 86.5 0.421875C93.9569 0.421875 100 6.77329 100 14.6074Z" fill="#61AA8B"/>
<path d="M12.72 16.1H14.04V17.72H12.52C11.8 17.72 11.1533 17.56 10.58 17.24C10.3933 18.6133 9.77333 19.6933 8.72 20.48C7.78667 21.1733 6.63333 21.52 5.26 21.52C3.47333 21.52 2.09333 20.92 1.12 19.72C0.373333 18.7867 0 17.6733 0 16.38C0 15.2467 0.273333 14.28 0.82 13.48L2.54 13.1C1.92667 14.0467 1.62 15.08 1.62 16.2C1.62 17.3067 1.97333 18.2133 2.68 18.92C3.33333 19.5733 4.19333 19.9 5.26 19.9C6.47333 19.9 7.40667 19.54 8.06 18.82C8.62 18.2067 8.9 17.42 8.9 16.46V5.74L10.64 4.82V14.1C10.64 15.4333 11.3333 16.1 12.72 16.1Z" fill="#61AA8B"/>
<path d="M12.8438 17.72V16.1H16.3638V17.72H12.8438Z" fill="#61AA8B"/>
<path d="M15.168 17.72V16.1H18.688V17.72H15.168Z" fill="#61AA8B"/>
<path d="M17.4922 17.72V16.1H21.0122V17.72H17.4922Z" fill="#61AA8B"/>
<path d="M19.8164 17.72V16.1H23.3364V17.72H19.8164Z" fill="#61AA8B"/>
<path d="M24.3806 6.76C23.7273 6.76 23.4006 6.42667 23.4006 5.76C23.4006 5.10667 23.7273 4.78 24.3806 4.78C25.0206 4.78 25.3406 5.10667 25.3406 5.76C25.3406 6.42667 25.0206 6.76 24.3806 6.76ZM26.9406 6.76C26.2873 6.76 25.9606 6.42667 25.9606 5.76C25.9606 5.10667 26.2873 4.78 26.9406 4.78C27.5806 4.78 27.9006 5.10667 27.9006 5.76C27.9006 6.42667 27.5806 6.76 26.9406 6.76ZM29.1006 16.1H30.4206V17.72H28.9006C27.794 17.72 26.9206 17.3667 26.2806 16.66C25.6406 17.3667 24.7673 17.72 23.6606 17.72H22.1406V16.1H23.4606C24.7673 16.1 25.4206 15.4333 25.4206 14.1V9.96L27.1406 9.04V14.1C27.1406 15.4333 27.794 16.1 29.1006 16.1Z" fill="#61AA8B"/>
<path d="M40.2109 4.78C39.6243 4.78 39.3309 4.48 39.3309 3.88C39.3309 3.29333 39.6243 3 40.2109 3C40.7976 3 41.0909 3.29333 41.0909 3.88C41.0909 4.48 40.7976 4.78 40.2109 4.78ZM38.9509 7.16C38.2976 7.16 37.9709 6.82667 37.9709 6.16C37.9709 5.50667 38.2976 5.18 38.9509 5.18C39.5909 5.18 39.9109 5.50667 39.9109 6.16C39.9109 6.82667 39.5909 7.16 38.9509 7.16ZM41.4909 7.16C40.8376 7.16 40.5109 6.82667 40.5109 6.16C40.5109 5.50667 40.8376 5.18 41.4909 5.18C42.1309 5.18 42.4509 5.50667 42.4509 6.16C42.4509 6.82667 42.1309 7.16 41.4909 7.16ZM29.2109 17.72V16.1H31.0109C32.3043 16.1 32.9509 15.4333 32.9509 14.1V11.3L34.6709 10.38V14.1C34.6709 15.4333 35.3243 16.1 36.6309 16.1H37.5509C38.8576 16.1 39.5109 15.4333 39.5109 14.1V10.62L41.2309 9.72V14.1C41.2309 15.4333 41.8776 16.1 43.1709 16.1H44.1109C45.4176 16.1 46.0709 15.4333 46.0709 14.1V9.96L47.7909 9.04V13.92C47.7909 15.3733 48.4843 16.1 49.8709 16.1H51.5309V17.72H49.7309C48.5309 17.72 47.6176 17.3133 46.9909 16.5C46.4309 17.3 45.5576 17.7067 44.3709 17.72H42.9909C41.8176 17.72 40.9443 17.3267 40.3709 16.54C39.7976 17.3133 38.9443 17.7067 37.8109 17.72H36.4309C35.2843 17.72 34.4109 17.3267 33.8109 16.54C33.2376 17.3267 32.3643 17.72 31.1909 17.72H29.2109Z" fill="#61AA8B"/>
<path d="M53.6042 12.3C53.6042 11.14 53.9509 10.24 54.6442 9.6C55.2576 9.05333 56.0576 8.78 57.0442 8.78C58.3109 8.78 59.2842 9.24667 59.9642 10.18C60.5509 10.9667 60.8442 11.9933 60.8442 13.26C60.8442 14.7 60.4709 15.8267 59.7242 16.64C59.0709 17.36 58.2176 17.72 57.1642 17.72C55.9642 17.72 55.0509 17.3867 54.4242 16.72C53.7842 17.3867 52.9242 17.72 51.8442 17.72H50.3242V16.1H51.6442C52.9509 16.1 53.6042 15.4333 53.6042 14.1V12.3ZM55.3242 14.24C55.3242 15.48 55.9309 16.1 57.1442 16.1C57.7709 16.1 58.2575 15.8467 58.6042 15.34C58.9642 14.8333 59.1442 14.1267 59.1442 13.22C59.1442 12.3267 58.9576 11.6333 58.5842 11.14C58.2109 10.6333 57.6976 10.38 57.0442 10.38C55.8976 10.38 55.3242 11.0467 55.3242 12.38V14.24Z" fill="#61AA8B"/>
</svg>
