<svg width="67" height="123" viewBox="0 0 67 123" fill="none" xmlns="http://www.w3.org/2000/svg">
<g id="Group 119">
<g id="Group">
<path id="Vector" d="M26.8088 67.4276C25.1593 63.7847 23.4232 60.0253 20.4195 57.3845C16.5301 53.9664 10.6852 52.9508 5.87221 54.8602C5.26551 55.1013 4.64527 55.4074 4.26879 55.9409C3.3777 57.2058 4.25255 58.9392 5.2276 60.1418C8.08234 63.6628 11.8146 66.3442 15.4982 68.9823C17.4212 70.3582 19.3442 71.7368 21.2672 73.1127C22.4427 73.9523 23.778 74.838 25.2081 74.624C26.3592 74.4507 27.3505 73.4919 27.559 72.3489C27.7703 71.2032 27.8651 69.7542 26.8088 67.4276Z" fill="#BFD8BD"/>
<path id="Vector_2" d="M32.1303 6.8958C31.6292 8.46401 31.7105 10.1514 31.659 11.7981C31.6482 12.1096 31.6157 12.4644 31.3719 12.6594C31.12 12.8626 30.7544 12.8084 30.4348 12.7651C26.4777 12.2369 22.6614 15.4248 21.5916 19.2708C20.5217 23.1169 21.746 27.3069 23.9155 30.66C25.0395 32.3961 26.4614 34.0104 28.3113 34.9367C30.1612 35.8603 32.4986 35.993 34.2456 34.8852C37.6962 32.6968 37.4606 27.009 40.9491 24.8774C43.0184 23.6152 45.6727 24.073 48.0263 23.4934C51.7126 22.5833 54.2531 19.2573 56.1626 15.9719C57.0158 14.5039 57.8229 12.933 57.8717 11.2375C57.9258 9.36864 56.9697 7.49979 55.4205 6.4489C53.8712 5.39801 51.783 5.20029 50.0658 5.94241C48.503 6.61682 47.2382 8.00357 45.5562 8.27983C45.2366 8.33129 44.8926 8.33942 44.6055 8.18774C43.7307 7.7273 44.0611 6.43806 44.2074 5.4603C44.4945 3.53186 43.2865 1.64947 41.5937 0.685252C36.3826 -2.29678 32.6313 5.32488 32.1303 6.8958Z" fill="#BFD8BD"/>
<g id="Group_2">
<path id="Vector_3" d="M37.8676 57.5309C37.8535 57.5534 37.8423 57.5731 37.8676 57.5309Z" fill="#54816E"/>
<path id="Vector_4" d="M66.6258 29.6173C66.5933 29.528 66.4904 29.4982 66.4092 29.4738C66.271 29.4305 66.1329 29.3898 65.9948 29.3492C65.5208 29.2111 65.0441 29.0838 64.5647 28.9619C62.3925 28.3958 60.1363 28.1737 57.8937 28.2577C56.4257 28.3335 54.9875 28.6748 53.5737 29.0675C52.6636 29.3004 51.7563 29.5469 50.8679 29.853C49.752 30.2538 48.6307 30.633 47.5121 31.0203C46.5885 31.3589 45.8491 31.6731 44.9688 32.1498C44.4921 32.4071 44.0182 32.6752 43.6065 33.03C42.9212 33.6015 42.3389 34.2841 41.7457 34.9503C41.3422 35.4108 40.9413 35.8739 40.5865 36.3723C40.1992 36.9248 39.8606 37.5071 39.5492 38.103C39.2864 38.6014 39.0454 39.116 38.891 39.6577C38.7366 40.1885 38.6689 40.7384 38.631 41.2909C38.5579 42.4853 38.826 43.6635 39.0264 44.8336C39.3135 46.5128 39.0752 46.6185 38.7908 46.9949C38.5172 47.3579 38.2085 47.691 37.878 48.0025C37.6316 48.2354 37.274 48.5523 37.0872 48.6905C36.7486 48.9423 36.1744 49.3378 35.8006 49.7197C35.7979 49.7224 35.7952 49.7278 35.7898 49.7305C35.8521 46.9706 36.1934 44.2242 36.5211 41.4859C36.6673 40.1614 36.7026 38.791 36.9057 37.5721C37.079 36.486 37.3255 35.4108 37.6451 34.3572C37.8726 33.523 38.1624 32.659 38.4901 31.9602C38.7447 31.3833 39.0129 30.8091 39.2269 30.2159C39.5817 29.2273 39.9284 28.2414 40.5432 27.4506C41.0605 26.7924 41.8053 26.2697 42.4066 25.8011C42.7831 25.5032 43.1866 25.2296 43.5279 24.891C43.7663 24.6067 43.9477 24.2816 44.1238 23.9566C44.1996 23.8158 44.2727 23.6749 44.3486 23.5341C44.3621 23.5287 44.373 23.5206 44.3838 23.5097C44.8144 23.0466 45.3236 22.8786 45.9764 22.6918C46.4883 22.5428 46.9975 22.3803 47.504 22.2124C48.5278 21.8575 49.4893 21.324 50.3425 20.6577C50.6485 20.4112 50.9681 20.1675 51.2173 19.8587C51.6723 19.3387 51.9188 18.6913 52.2276 18.0846C52.5526 17.4319 52.9534 16.8496 53.376 16.3539C54.137 15.4439 54.9875 14.5961 55.5807 13.5588C56.0357 12.7923 56.2713 11.9255 56.4663 11.0643C56.7155 9.99711 56.9078 8.91643 57.1272 7.84387C57.2139 7.40781 57.3168 6.97445 57.4306 6.5438C57.4495 6.45442 57.4847 6.37046 57.4928 6.28108C57.4955 6.20253 57.4062 6.14024 57.3303 6.16461C57.1895 6.23233 57.0622 6.32712 56.9132 6.38129C56.4203 6.58172 55.7161 6.67922 55.131 6.73069C54.175 6.82548 53.2053 6.81736 52.2574 6.98799C50.6052 7.30488 49.1832 8.27723 47.8398 9.24415C47.2765 9.65855 46.7212 10.1109 46.2364 10.4819C45.608 10.9776 44.9824 11.5003 44.4759 12.1233C44.354 11.1618 44.0561 10.2057 43.7771 9.20353C43.5604 8.40182 43.3735 7.58657 43.0268 6.82819C42.4933 5.62021 41.7918 4.75079 40.6921 4.01137C40.0529 3.58343 39.3514 3.26112 38.6337 2.98486C38.1218 2.79526 37.5909 2.66255 37.0655 2.51629C36.4155 2.32128 35.8927 2.06397 35.3131 1.83105C34.9935 1.71729 34.9502 1.99355 34.8662 2.24273C34.7768 2.46212 34.7443 2.58129 34.6089 2.80881C33.9616 3.85699 32.8403 4.69662 32.1198 5.80438C31.746 6.384 31.4806 7.03674 31.3235 7.70845C31.1962 8.30431 31.1827 8.91914 31.2341 9.52584C31.2829 10.035 31.3885 10.5334 31.4752 11.0345C31.5646 11.5951 31.616 11.9933 31.681 12.5756C31.7731 13.2744 31.9058 13.9677 32.0873 14.6503C32.1523 14.8588 32.2254 15.0647 32.3094 15.2678C31.5348 14.9726 30.752 14.6963 29.9286 14.5799C29.0267 14.4309 28.114 14.4011 27.2039 14.3578C26.3805 14.3253 25.3351 14.133 24.6065 14.5988C24.3681 14.7749 24.1948 15.0241 24.0214 15.2624C23.7533 15.6389 23.5095 16.0343 23.2333 16.4081C22.5507 17.3344 21.8682 18.2878 21.4646 19.3739C21.1017 20.4329 21.0827 21.5759 21.0719 22.6836C21.08 23.4041 21.1261 24.1327 21.294 24.8342C21.4944 25.6088 21.8222 26.3428 22.1824 27.0578C23.0572 28.8075 23.951 30.3649 25.7847 31.2478C26.3237 31.5133 26.8951 31.7002 27.4748 31.8464C27.9325 31.9656 28.3902 32.0848 28.8534 32.1687C29.4249 32.2771 29.9991 32.3664 30.576 32.4206C31.115 32.4694 31.5266 32.5317 32.1063 32.6319C32.7346 32.7538 33.3413 32.9677 33.9751 33.0571C34.2974 33.0977 34.7037 33.2007 34.8743 32.8783C34.9745 33.263 35.0612 33.653 35.1912 34.0295C35.4296 34.7905 35.7708 35.4758 35.9902 36.1583C36.1338 36.635 36.1419 36.9546 36.1934 37.4611C36.1934 37.4855 36.1988 37.5071 36.2096 37.5261C36.2069 38.1761 36.0742 38.856 35.9713 39.5358C35.7627 40.974 35.4702 42.3987 35.1912 43.826C34.9772 44.95 34.8147 46.0876 34.7849 47.2306C34.7768 48.0188 34.8066 48.8096 34.7227 49.5951C34.6495 50.1964 34.4301 51.1227 34.2974 51.8458C34.2135 52.355 34.1349 52.8669 34.097 53.3815C34.0645 54.0262 34.0645 54.7195 33.9914 55.3614C33.9534 55.7108 33.7909 57.0597 33.7286 57.344C33.7043 57.2655 33.6772 57.1815 33.6474 57.0976C33.5499 56.8321 33.4334 56.5748 33.3061 56.3257C32.3527 54.4406 32.1035 54.5516 32.9648 52.6367C33.2682 51.9623 33.5553 51.2798 33.8234 50.5918C34.1918 49.6493 34.3841 48.6363 34.3949 47.6233C34.4003 46.9949 34.2974 46.372 34.1782 45.7572C33.9995 44.8173 33.7801 43.8721 33.317 43.027C32.583 41.773 31.6783 40.6138 30.6274 39.6116C29.9016 38.8722 29.1026 38.1788 28.1708 37.713C27.1958 37.2065 26.1205 36.96 25.0778 36.6404C24.379 36.4346 23.6775 36.2152 22.9543 36.115C22.4099 36.0337 21.8628 36.0094 21.3157 36.0121C21.313 35.9958 21.3103 35.9823 21.3048 35.966C20.9148 34.3843 20.1104 33.0625 18.9512 31.925C18.2741 31.2587 17.5563 30.6303 16.7898 30.0697C16.0721 29.5469 15.3164 29.0811 14.5526 28.626C13.8782 28.2333 13.2092 27.8297 12.5212 27.4641C11.947 27.1824 11.362 26.9251 10.7716 26.6786C10.5982 26.6136 10.4222 26.5297 10.2353 26.5486C10.0186 26.5784 9.88589 26.787 9.82088 26.9793C9.72879 27.2285 9.67463 27.4885 9.6015 27.7431C9.40378 28.4364 9.20064 28.9511 8.84583 29.5632C8.52082 30.1347 8.17684 30.6926 7.83828 31.256C7.48347 31.8275 7.17199 32.4315 6.99594 33.0842C6.71426 34.0267 6.63842 35.0126 6.62759 35.9931C6.58154 38.0407 7.01761 40.1073 7.93578 41.9436C8.35018 42.7914 8.88375 43.585 9.52837 44.2756C9.89943 44.6873 10.3328 45.0313 10.7634 45.378C11.1941 45.7382 11.6329 46.0876 12.0743 46.4343C12.5402 46.8054 13.0006 47.1845 13.5017 47.5068C14.3143 47.9754 15.1755 48.2544 15.7335 48.9721C16.0287 49.3188 16.3131 49.6763 16.6273 50.0095C16.8358 50.2099 17.0417 50.4428 17.3125 50.5593C17.4886 50.6081 17.5861 50.4266 17.6213 50.283C17.6403 50.1937 17.6484 50.1016 17.6484 50.0122C17.7784 50.5376 17.9301 51.055 18.1765 51.5398C18.5097 52.1871 19.0189 52.7125 19.4983 53.2515C20.0481 53.9151 20.5817 54.5949 21.1261 55.2639C21.7247 56.0738 22.5507 57.1897 23.1249 58.1674C23.5637 58.9421 23.8833 59.7898 24.295 60.5888C24.7852 61.6343 25.1644 62.8964 25.7413 64.0096C26.1557 64.8492 26.6351 65.6564 27.0577 66.4933C27.491 67.4006 27.8133 68.1969 28.1817 69.1124C28.3036 69.3968 28.4363 69.7922 28.4661 70.0333C28.1654 69.9303 27.6616 69.673 27.25 69.543C26.1991 69.2451 26.0095 69.2695 25.7657 68.1725C25.568 67.1758 25.4759 66.1574 25.2538 65.1661C25.0588 64.3428 24.7554 63.5465 24.444 62.761C23.8156 61.1955 22.9489 59.6977 21.7274 58.5168C21.248 58.0808 20.7225 57.6907 20.1673 57.3576C19.6283 57.0407 19.0541 56.7915 18.4799 56.545C17.8624 56.2877 17.2448 56.0196 16.5948 55.849C15.7172 55.6296 14.8045 55.5294 13.8999 55.5483C13.4042 55.57 12.914 55.6431 12.4183 55.6702C11.8712 55.7135 11.3241 55.7162 10.777 55.7108C9.98339 55.719 9.18981 55.6079 8.39893 55.6594C7.94391 55.6919 7.51055 55.83 7.08803 55.9952C6.27278 56.2959 5.53336 56.7536 4.75603 57.1355C3.4072 57.7855 1.93921 58.4572 0.663513 58.9881C0.549757 59.0341 0.436002 59.0802 0.322246 59.1289C0.346623 59.1181 0.362873 59.1127 0.330371 59.1262C0.257242 59.1533 0.184115 59.1966 0.162447 59.2752C0.140779 59.3619 0.20578 59.4377 0.273492 59.481C0.370997 59.5433 0.47663 59.5894 0.576844 59.6435C0.937072 59.8358 1.28105 60.0525 1.62773 60.2665C2.18839 60.6267 2.75717 60.9761 3.31512 61.3418C4.07349 61.8618 4.83186 62.3845 5.57128 62.9343C6.2484 63.4652 6.94448 63.9744 7.63514 64.4863C8.22559 64.9251 8.8025 65.3855 9.43899 65.7539C10.6876 66.4879 12.0581 66.9917 13.2444 67.8394C14.1734 68.484 15.1187 69.5891 16.1154 70.3691C16.5731 70.7185 17.0634 71.03 17.5482 71.3442C18.2361 71.7748 18.9837 72.1378 19.7773 72.3247C20.709 72.5359 21.6759 72.433 22.5968 72.219C22.9381 72.1378 23.2685 72.0132 23.5989 71.9021C23.9592 71.7884 24.3167 71.6557 24.6363 71.4498C24.9884 71.2304 25.308 70.9514 25.5599 70.6183C25.8795 70.2202 25.8199 69.8003 25.5003 69.4266C25.2105 69.0799 24.8638 68.782 24.5333 68.4759C23.9971 67.9694 23.4229 67.5008 22.8487 67.0377C22.1038 66.4066 21.3563 65.7783 20.5519 65.2284C19.78 64.7165 18.9674 64.2561 18.1224 63.8715C17.3613 63.5438 16.565 63.3027 15.7877 63.0156C14.9237 62.6879 14.0407 62.417 13.1794 62.0839C12.096 61.6424 11.1291 61.228 10.0078 60.7296C9.20877 60.3721 8.4829 59.8629 7.66494 59.5406C7.302 59.4025 6.91198 59.3564 6.52738 59.3185C6.32153 59.3077 6.11298 59.2996 5.90713 59.2969C5.98568 59.2914 6.06964 59.286 6.15902 59.2833C7.01219 59.2454 7.70556 59.3023 8.49373 59.4594C8.99209 59.5379 9.4742 59.6842 9.95089 59.8494C10.4736 60.0336 10.8203 60.1744 11.3051 60.4453C11.8333 60.7188 12.291 61.1061 12.8192 61.3851C13.5667 61.7914 14.3711 62.0731 15.162 62.3845C15.6875 62.5931 16.1885 62.826 16.7898 63.0481C17.8678 63.4463 18.786 63.8336 19.8287 64.3834C20.2648 64.6082 20.709 64.8167 21.1288 65.0713C21.5676 65.3476 21.8276 65.5589 22.2203 65.9083C22.8405 66.4527 23.3416 67.1108 23.886 67.7256C24.4115 68.2971 24.9857 68.8226 25.503 69.4022C25.717 69.6243 25.9282 69.8518 26.1882 70.0197C26.6947 70.3258 27.2689 70.51 27.7646 70.8377C29.219 71.8425 30.2157 73.5001 30.446 75.3798C30.6951 77.0591 30.6166 79.2286 30.5678 81.0676C30.5516 81.761 30.5001 82.4517 30.5272 83.145C30.5651 83.9603 30.6979 84.7701 30.8685 85.5664C31.0879 86.5794 31.2152 87.6086 31.4373 88.6189C31.4968 88.906 31.5619 89.1931 31.6269 89.4775C31.6296 89.4937 31.6377 89.5072 31.6458 89.5208C31.7433 89.9731 31.8029 90.4308 31.8679 90.8886C31.9654 91.6415 32.071 92.6978 32.1604 93.5781C32.35 95.4524 32.5748 97.3239 32.7725 99.1955C32.9621 100.97 33.2872 102.394 33.344 104.195C33.4172 106.554 33.2032 108.908 33.0949 111.262C33.0678 111.736 33.0488 112.21 33.0271 112.684C33.0217 112.819 33.0163 112.952 33.0109 113.087C33.0028 113.141 33.0298 113.198 33.0813 113.217C33.1219 113.239 33.1761 113.225 33.2086 113.193C33.2411 113.163 33.2438 113.117 33.2438 113.076C33.2519 112.941 33.2601 112.806 33.2682 112.67C33.2899 112.277 33.3115 111.885 33.3359 111.495C33.4659 109.081 33.688 106.668 33.6257 104.252C33.5905 102.622 33.2899 101.113 33.1165 99.6505C32.9269 97.9198 32.7346 96.1891 32.5342 94.4584C32.415 93.3885 32.3121 92.3159 32.1794 91.2488C32.0954 90.6584 32.0223 90.0625 31.8923 89.4775C31.8977 89.4531 31.8977 89.4287 31.8923 89.4043C31.8679 89.296 31.8435 89.1904 31.8192 89.082C31.7325 88.7001 31.6539 88.3155 31.5808 87.9336C31.4671 87.3459 31.3777 86.7554 31.2748 86.165C31.1773 85.6639 31.0662 85.1656 30.9768 84.6618C30.8441 83.898 30.7656 83.0069 30.8116 82.1293C30.8522 81.0189 30.8874 79.9057 30.8956 78.7925C30.9227 77.6387 30.8793 76.4822 30.7222 75.3392C30.511 73.5408 29.5711 71.8236 28.114 70.7375C27.5696 70.2987 26.6351 70.0143 26.1882 69.673C25.8172 69.3562 25.503 68.9797 25.1671 68.6276C24.8421 68.2863 24.49 67.9694 24.1731 67.62C23.6233 67.0187 23.1358 66.3579 22.5291 65.8053C22.158 65.4641 21.7653 65.1418 21.34 64.8682C20.9202 64.6028 20.4706 64.3915 20.0319 64.1667C18.9214 63.5736 17.754 63.0996 16.5731 62.6662C15.9908 62.4387 15.4681 62.1949 14.8207 61.9539C14.0922 61.683 13.5071 61.4528 12.8002 61.0628C12.3073 60.7784 11.8604 60.4209 11.3512 60.1636C10.9205 59.9252 10.4601 59.7465 9.99694 59.584C9.49858 59.4079 8.98938 59.2644 8.46664 59.1858C7.60535 59.0125 6.72509 58.9718 5.85026 59.0396C5.5117 59.0693 5.18397 59.1533 4.85083 59.2129C4.42559 59.2996 3.99765 59.3673 3.56971 59.4377C3.47221 59.4621 3.43971 59.6056 3.52638 59.6625C3.55346 59.6869 3.59409 59.6923 3.63201 59.6923C3.74035 59.6923 3.84869 59.6896 3.95432 59.6869C4.44455 59.6788 4.92937 59.6056 5.41419 59.5542C5.7365 59.5298 6.05881 59.5379 6.38111 59.5515C6.80905 59.584 7.15303 59.6138 7.59722 59.7763C8.32039 60.0607 9.22231 60.6782 10.0457 61.0276C11.1047 61.4961 12.1637 61.962 13.239 62.3899C14.2195 62.7502 15.2108 63.0779 16.1912 63.4408C16.974 63.7171 17.7324 63.9582 18.4014 64.294C19.0541 64.6272 19.696 64.9847 20.3081 65.3855C21.0936 65.9191 21.7057 66.4175 22.4397 67.0431C23.1412 67.6227 23.8481 68.1888 24.5063 68.8172C24.8692 69.1584 25.2321 69.4726 25.3946 69.7651C25.6465 70.1362 25.3432 70.491 24.8719 70.9C24.4711 71.2358 23.951 71.4715 23.3714 71.6421C22.5507 71.9373 21.8384 72.0836 21.0313 72.1215C19.7068 72.1838 18.5449 71.634 17.3938 70.8729C16.8602 70.5181 16.4025 70.231 15.98 69.8599C14.9697 68.9797 14.0786 67.9477 12.9221 67.2517C11.7277 66.4933 10.3842 66.0112 9.20064 65.2366C8.66436 64.8872 8.166 64.4836 7.65139 64.1098C6.86864 63.5492 6.11027 62.9587 5.33564 62.3899C4.71269 61.9512 4.08703 61.5124 3.45325 61.0872C2.93593 60.7513 2.40777 60.4344 1.89045 60.1013C1.50856 59.8684 0.880193 59.4783 0.555176 59.3212C1.8092 58.812 3.33678 58.1078 4.6531 57.4849C6.11297 56.7996 7.38325 55.8435 8.96501 55.9221C10.089 55.9708 11.2157 56.0304 12.3425 55.9519C13.0656 55.9113 13.7861 55.7867 14.512 55.83C15.2703 55.8733 15.8364 55.9438 16.5623 56.1306C17.234 56.3148 17.9192 56.6155 18.4609 56.843C19.7095 57.3549 20.8254 57.9968 21.7328 58.9095C23.3416 60.5915 24.2842 62.7637 24.945 65.0253C25.1617 65.911 25.2728 66.8183 25.4163 67.7175C25.5219 68.2484 25.5788 68.8388 25.9445 69.2668C26.1503 69.4943 26.4618 69.5783 26.7462 69.6595C27.2879 69.7868 27.6996 69.9818 28.1681 70.185C28.2954 70.2364 28.4254 70.3068 28.5663 70.3041C28.6232 70.2987 28.68 70.2608 28.6963 70.2039C28.7098 70.1524 28.699 70.0983 28.6936 70.0468C28.6665 69.8112 28.6042 69.581 28.5175 69.3589C28.095 68.2917 27.6589 67.2246 27.1524 66.1926C26.4645 64.898 25.7278 63.6223 25.2457 62.3222C25.0588 61.8591 24.8936 61.3905 24.6986 60.9301C24.5225 60.5076 24.3113 60.1013 24.1135 59.6896C23.8454 59.11 23.607 58.5168 23.2793 57.967C22.957 57.4172 22.586 56.8999 22.223 56.3771C21.8249 55.8029 21.4186 55.2287 20.9717 54.6897C20.4517 54.0587 19.9669 53.3978 19.417 52.7911C18.8401 52.1708 18.5016 51.6914 18.2551 51.12C18.3418 51.2608 18.4366 51.3989 18.5395 51.5371C19.0839 52.3036 19.7746 52.9401 20.5383 53.479C20.5925 53.5522 20.644 53.6226 20.6981 53.693C21.0475 54.1453 21.5567 54.706 21.8276 55.0662C22.242 55.6621 22.5589 56.3148 22.9299 56.9378C23.2089 57.4172 23.5095 57.8857 23.7804 58.3706C24.0837 58.915 24.3654 59.4729 24.6471 60.0309C25.01 60.7405 25.3107 61.4799 25.6411 62.2031C26.2559 63.5708 26.8166 64.768 27.315 66.1547C27.5994 66.9023 27.8729 67.6552 28.2223 68.3757C28.5744 69.1043 29.0023 69.7976 29.3599 70.5235C30.1047 72.0078 30.7006 73.4866 31.0445 75.1713C31.3668 76.7503 31.421 78.3266 31.4481 80.0005C31.4562 81.046 31.4725 82.0941 31.4996 83.1396C31.5212 83.9467 31.4969 84.7593 31.6296 85.5583C31.6648 85.7018 31.7135 85.8535 31.8219 85.9537C31.8652 85.9998 31.9383 85.9971 31.9925 85.9673C32.0385 85.9375 32.0629 85.886 32.0792 85.8373C32.1848 85.3931 32.1686 84.9299 32.1794 84.4776C32.1794 83.8357 32.1686 83.1965 32.1577 82.5546C32.1415 81.0866 32.1658 79.6186 32.1929 78.1506C32.2092 77.4328 32.1956 76.7151 32.1929 76.0001C32.2011 75.954 32.1956 75.9026 32.2038 75.8565C32.2308 75.5369 32.2742 75.22 32.2986 74.9004C32.3365 74.4481 32.3175 73.9904 32.3365 73.5353C32.3554 72.842 32.4042 72.1513 32.4204 71.4606C32.434 70.2852 32.5125 69.1097 32.564 67.9342C32.5802 67.36 32.648 66.7885 32.6209 66.2143C32.5911 65.2582 32.6805 64.3021 32.7996 63.3542C32.8863 62.5904 32.9405 61.981 33.1436 61.2145C33.2844 60.6646 33.4605 60.1257 33.5661 59.5677C33.8045 58.3164 33.6636 57.8641 32.8646 56.3582C32.6209 55.8977 32.3365 55.4617 32.1279 54.985C32.0169 54.7574 31.9221 54.4351 31.7812 54.1237C31.6567 53.8799 31.4806 53.6686 31.3073 53.4574C30.8658 52.9157 30.4108 52.3821 29.9124 51.8919C29.5007 51.4748 29.043 51.1037 28.6177 50.7001C28.2792 50.3535 27.9867 49.9661 27.6644 49.6059C27.296 49.1915 26.9899 48.7067 26.6785 48.165C26.3616 47.6233 26.0528 47.0735 25.7495 46.5237C25.5247 46.1039 25.3161 45.6732 25.0371 45.2859C24.8313 45.0015 24.4954 44.6061 24.3546 44.4192C23.9239 43.8396 23.4852 43.2654 23.0058 42.7237C22.5616 42.1982 22.0903 41.6999 21.6299 41.188C21.5351 41.0823 21.443 40.9767 21.3509 40.8711C21.5974 39.3543 21.6624 37.8024 21.3753 36.291C22.0172 36.291 22.6618 36.3398 23.2008 36.44C23.9023 36.5727 24.5848 36.7921 25.2701 36.9952C26.4482 37.3473 27.4991 37.6074 28.5229 38.233C29.3599 38.7341 30.0478 39.4193 30.7872 40.1533C31.4373 40.8034 31.96 41.4642 32.4529 42.1549C32.9838 42.9106 33.3792 43.5931 33.6122 44.4436C33.7503 44.9257 33.8505 45.4186 33.9453 45.9116C34.1105 46.7214 34.1782 47.4527 34.0672 48.3952C34.0239 48.6986 33.948 49.2267 33.8343 49.6411C33.7151 50.0934 33.5472 50.5295 33.3738 50.9629C33.1707 51.4639 33.0109 51.835 32.7563 52.4065C32.5342 52.9211 32.2877 53.4357 32.1875 53.991C32.0575 54.6979 32.61 55.5158 32.8484 55.9708C33.0542 56.3636 33.2763 56.7807 33.4009 57.1111C33.493 57.3197 33.5174 57.5689 33.6582 57.753C33.7124 57.8153 33.818 57.8289 33.8749 57.7612C33.9264 57.6962 33.9399 57.6068 33.9643 57.5282C34.0212 57.317 34.0509 57.0976 34.0889 56.8809C34.1214 56.6832 34.1701 56.2309 34.1728 56.1957C34.2108 55.8517 34.2351 55.505 34.2676 55.1583C34.3624 54.362 34.3408 53.5576 34.4464 52.764C34.5303 51.9786 34.7822 50.9331 34.9475 50.0366C35.1641 48.8638 35.026 47.6639 35.1398 46.4803C35.2454 45.1396 35.5081 43.8639 35.7817 42.4718C35.9604 41.6132 36.1094 40.7465 36.2367 39.8798C36.3315 39.246 36.4182 38.7666 36.4723 38.0895C36.494 37.7482 36.5075 37.4069 36.4588 37.0684C36.4479 36.9817 36.4344 36.895 36.4209 36.8084C36.4209 36.8084 36.4209 36.8084 36.4209 36.8056C36.3965 36.6079 36.364 36.4129 36.3098 36.2206C36.2421 35.9416 36.0606 35.5029 35.9902 35.3512C35.76 34.7716 35.5244 34.1974 35.3591 33.5961C35.1804 33.0544 35.091 32.4856 34.877 31.9548C34.5683 31.1639 34.1322 30.4299 33.7584 29.6715C33.3413 28.8021 32.9405 27.9245 32.5315 27.0497C32.2958 26.5134 32.0765 25.9365 31.7677 25.3515C31.1041 24.1462 30.2835 23.0357 29.4682 21.9334C29.2055 21.5704 28.9807 21.1804 28.718 20.8148C28.3821 20.3652 28.0598 19.9914 27.7727 19.5851C27.3393 18.9459 26.9926 18.2498 26.6026 17.5836C26.4672 17.3615 26.3237 17.1421 26.1639 16.9389C26.0664 16.8252 25.9716 16.6708 25.8118 16.6546C25.3649 16.7006 25.7576 17.3127 25.8443 17.5375C26.1801 18.2526 26.5972 18.9243 27.0252 19.5851C27.4748 20.2893 27.9596 20.9665 28.4552 21.6382C28.7559 22.0634 29.0186 22.513 29.2949 22.9545C29.7011 23.6181 30.1101 24.2789 30.4487 24.9804C31.0175 26.1505 31.4183 27.2122 31.9438 28.3579C32.3961 29.4115 33.0515 30.3649 33.7693 31.256C33.9697 31.5024 34.1593 31.757 34.357 32.0035C34.6062 32.2933 34.8391 32.6833 34.6035 32.8404C34.4816 32.9027 33.9832 32.8161 33.5255 32.7104C33.0217 32.575 32.5234 32.4152 32.0088 32.3285C31.3533 32.2066 30.4839 32.1254 29.9611 32.0604C28.8805 31.9033 27.8106 31.6541 26.7706 31.3237C25.0209 30.7089 23.97 29.7311 23.0383 28.0545C22.4316 26.9468 21.8817 25.9528 21.573 24.7719C21.4078 24.0866 21.3753 23.3987 21.3698 22.6213C21.3861 21.5434 21.3861 20.5737 21.6759 19.5905C22.0009 18.5694 22.7051 17.5538 23.3877 16.6193C23.6964 16.1968 24.0594 15.6253 24.3221 15.2678C24.6173 14.8859 24.8069 14.6828 25.243 14.6178C25.9472 14.4769 26.9304 14.6313 27.7564 14.6557C28.7369 14.7017 29.5549 14.7559 30.4758 14.9618C31.0418 15.0836 31.5862 15.2814 32.1252 15.4899C32.2363 15.536 32.3554 15.5793 32.4773 15.6253C32.5965 15.8718 32.7319 16.1102 32.8917 16.3295C33.4415 17.0581 34.1647 17.635 34.8987 18.1659C35.4079 18.518 35.936 18.8511 36.5021 19.1084C36.5996 19.1491 36.6971 19.187 36.7946 19.2249C36.9653 19.447 37.1278 19.6583 37.274 19.8479C37.5205 20.1729 37.7751 20.4979 37.9593 20.8635C38.2112 21.3538 38.3845 22.0661 38.4658 22.7134C38.4901 22.922 38.5551 23.5206 38.5172 23.8645C38.4847 24.5254 38.2924 25.2323 38.0785 25.9473C37.7941 26.8493 37.5232 27.6347 37.117 28.4229C36.9328 28.7858 36.7053 29.1217 36.494 29.4684C36.28 29.8286 36.0823 30.1997 35.8683 30.5599C35.5569 31.1097 35.11 31.6514 35.1208 32.3123C35.1154 32.4369 35.1777 32.789 35.3077 33.049C35.714 33.8588 36.1094 34.5251 36.2773 35.3945C36.2963 35.4731 36.299 35.557 36.3396 35.6275C36.3857 35.706 36.5021 35.7223 36.5563 35.6437C36.6159 35.5489 36.6213 35.427 36.6565 35.3214C36.7215 35.0939 36.7919 34.8718 36.8596 34.647C37.033 34.0674 37.2388 33.5013 37.4528 32.9352C37.7859 32.0468 38.046 31.4726 38.417 30.5924C38.826 29.6363 39.1077 28.9402 39.4842 28.0979C39.9906 26.9414 40.7707 25.9365 41.3015 24.7935C41.632 24.0758 41.8297 23.3039 41.9435 22.5238C41.9597 22.3992 42.0816 21.5082 41.6591 20.7254C41.5751 20.5196 41.4586 20.2948 41.372 20.1025C41.2772 19.8776 41.1797 19.6149 41.1011 19.3685C40.8276 18.388 40.6759 17.3723 40.3238 16.4162C39.8254 15.0863 39.1348 13.8377 38.4901 12.5756C38.2274 12.0637 38.0785 11.6087 37.8428 11.0697C37.6857 10.6688 37.4338 10.1352 37.2795 9.69105C36.9571 8.78642 36.7784 7.84116 36.5861 6.90403C36.5102 6.49505 36.3938 6.09419 36.3179 5.68521C36.2042 5.05955 36.1311 4.46098 36.0606 3.96262C36.0336 3.78115 36.0065 3.60239 35.974 3.42363C35.9523 3.33154 35.9442 3.23133 35.89 3.15008C35.8467 3.08236 35.7437 3.06882 35.6896 3.13382C35.6273 3.20695 35.649 3.31529 35.6435 3.40467C35.649 4.22263 35.741 5.03789 35.8196 5.85043C35.9929 7.56761 36.3504 9.27937 37.0465 10.8638C37.4257 11.7495 37.9376 12.5702 38.3466 13.4396C38.6797 14.179 39.0643 15.3382 39.4977 16.2618C39.7442 16.8008 39.9175 17.2206 40.1396 17.8084C40.313 18.2499 40.4863 18.6886 40.6028 19.1491C40.6109 19.1761 40.6163 19.2032 40.6217 19.2303C40.2642 19.2655 39.904 19.3116 39.5465 19.3468C39.0643 19.3847 38.4333 19.4037 38.0757 19.3224C37.6695 19.2384 37.3038 19.1355 36.9544 19.0082C36.5021 18.4178 36.0525 17.8246 35.611 17.2233C35.2833 16.7494 34.8581 16.3512 34.3543 16.0695C33.8722 15.8149 33.344 15.6714 32.8375 15.4791C32.7807 15.4574 32.7265 15.4357 32.6696 15.4141C32.4313 14.8995 32.2877 14.3686 32.1658 13.7565C31.9925 12.9629 31.9383 12.3372 31.8246 11.5274C31.7108 10.6444 31.4779 9.86981 31.4725 9.04102C31.4318 8.03346 31.6837 7.13425 32.1415 6.27295C32.4286 5.76376 32.6994 5.44145 33.0759 5.00268C33.7963 4.16575 34.7064 3.42905 35.091 2.36191C35.11 2.30774 35.1289 2.25357 35.1479 2.1994C35.1587 2.1669 35.1695 2.1344 35.1804 2.10189C35.1858 2.08835 35.1912 2.07481 35.1939 2.06127V2.05856C35.2048 2.06397 35.2508 2.07752 35.2671 2.08293C35.9604 2.36732 36.494 2.63546 37.2253 2.82506C38.7989 3.22591 40.2832 3.84886 41.4397 4.93767C42.1385 5.57958 42.6477 6.52484 42.9673 7.35093C43.2164 8.03346 43.3817 8.74038 43.5794 9.43646C43.8665 10.4305 44.1671 11.4272 44.2619 12.4104C43.7609 13.0983 43.4737 13.9109 43.2489 14.7261C43.0485 15.4412 42.8779 16.167 42.8237 16.9064C42.3497 17.5998 41.8432 18.2742 41.5047 19.0434C41.4993 19.0543 41.204 19.5851 41.5345 20.2135C41.8378 20.7931 42.1547 21.2075 42.2874 21.8278C42.4283 22.5238 42.1303 23.4014 41.8351 24.1977C41.567 24.845 41.288 25.5573 40.8899 26.2317C40.8059 26.3726 40.7165 26.508 40.6353 26.6516C40.6028 26.7138 40.5567 26.7761 40.5513 26.8466C40.5513 26.9089 40.6082 26.963 40.6678 26.9657C40.3671 27.2799 40.099 27.6239 39.8904 28.0166C39.4517 28.7723 39.1943 29.6119 38.8802 30.4245C38.6147 31.1016 38.2085 31.9114 37.9187 32.686C37.3309 34.387 36.8624 36.1339 36.5996 37.9161C36.448 38.9318 36.3911 39.9583 36.3017 40.9821C36.2204 41.857 36.0931 42.7291 36.0011 43.6012C35.8494 45.0042 35.7031 46.4099 35.6164 47.821C35.5569 48.5686 35.5487 49.3215 35.5271 50.0718C35.5244 50.1395 35.5867 50.1991 35.6544 50.1991C35.7004 50.1991 35.7437 50.172 35.7654 50.1314C35.8006 50.0934 35.8277 50.0447 35.8629 50.0122C36.3288 49.5192 36.7784 49.2376 37.3255 48.8286C37.8645 48.3871 38.3737 47.905 38.8341 47.3823C39.7279 46.3693 39.43 45.7274 39.281 44.7713C39.1321 43.8098 39.0075 43.222 38.9398 42.2768C38.8693 41.0553 39.0779 39.7606 39.5519 38.7585C39.9256 37.9811 40.3427 37.22 40.8384 36.5131C41.2311 35.9687 41.8514 35.2699 42.3904 34.6903C42.8941 34.1242 43.5496 33.4661 44.0479 33.0977C44.809 32.556 45.6487 32.1308 46.4991 31.7489C47.5175 31.2939 48.8718 30.8741 50.0391 30.4407C51.1767 30.0047 52.3386 29.6471 53.5195 29.3438C54.4025 29.0973 55.2854 28.8563 56.1901 28.7019C58.197 28.3308 60.5507 28.4662 62.5631 28.775C63.5788 28.9456 64.5809 29.1948 65.5749 29.4711C65.8295 29.5442 66.0841 29.6146 66.3333 29.6959C66.2385 29.7744 66.1464 29.8557 66.0625 29.9424C65.7375 30.2403 65.5858 30.6574 65.4449 31.0664C65.277 31.5458 65.1308 31.8708 64.9168 32.3312C64.4618 33.3063 63.9851 34.2678 63.503 35.2293C62.8692 36.5104 62.1298 37.7455 61.2224 38.7747C59.294 40.9361 56.9647 42.4826 54.6977 44.2404C53.0591 45.5486 51.2444 46.8568 49.1995 47.4121C47.7965 47.7777 46.4612 47.8725 44.9905 47.9646C44.0479 48.016 42.9456 47.9727 42.1249 47.8481C41.5859 47.7831 41.0632 47.6423 40.5296 47.5529C40.3807 47.5312 40.229 47.5231 40.1342 47.515C40.2669 47.3904 40.405 47.2712 40.5459 47.1547C41.0226 46.7485 41.4668 46.391 41.9949 46.0551C42.5366 45.6813 43.1189 45.3726 43.6823 45.0313C44.6953 44.4002 45.7082 43.7583 46.6075 42.9701C47.6231 42.1197 48.6063 41.2313 49.6464 40.4106C50.2043 39.9908 50.9221 39.422 51.5531 38.9778C52.1598 38.5526 52.7936 38.1707 53.4112 37.759C54.351 37.1496 55.3044 36.5619 56.2171 35.9118C56.8482 35.4893 57.4576 35.0316 58.0914 34.6145C58.9446 34.0755 59.8167 33.5636 60.7376 33.1519C60.8487 33.0977 60.9624 33.0463 61.0653 32.9786C61.1276 32.9352 61.2008 32.8756 61.1764 32.789C61.1655 32.7375 61.1141 32.6996 61.0599 32.6996C60.9137 32.7213 60.7809 32.8106 60.6455 32.8675C60.4315 32.9704 60.2176 33.0788 60.0063 33.1871C58.5952 33.9374 57.2518 34.8068 55.8948 35.6464C54.2914 36.635 52.688 37.6317 51.1144 38.6691C50.467 39.097 49.8197 39.525 49.1778 39.9637C46.6075 41.7242 44.0832 43.5552 41.6293 45.4782C40.7734 46.1499 39.9256 46.7729 39.0616 47.5312C38.9939 47.5908 38.4631 48.0025 38.3141 48.1217C37.9241 48.4386 37.5205 48.7202 37.1386 49.1103C36.7351 49.4976 36.3532 49.9066 35.974 50.3155C35.7519 50.5593 35.4946 50.7814 35.3429 51.0766C35.1045 51.4937 34.9691 51.9569 34.831 52.4119C34.701 52.8561 34.5737 53.3057 34.5114 53.7661C34.3462 54.9416 34.3922 56.1334 34.2893 57.3143C34.2189 58.1268 33.9643 59.0829 33.7774 59.974C33.5472 61.079 33.409 62.2031 33.233 63.319C33.0732 64.4159 32.8782 65.5074 32.7834 66.6125C32.7455 67.3221 32.7752 68.0561 33.0136 68.7305C33.1084 68.9986 33.3684 69.5268 33.7936 69.0555C33.9372 68.8957 34.0618 68.7197 34.1999 68.5572C34.4545 68.2267 34.7308 67.899 34.8743 67.5063C35.0341 67.0269 35.0287 66.5068 35.0341 66.0058C34.9989 64.4051 34.5439 63.6873 35.1804 62.1164C35.3537 61.6641 35.5162 61.2659 35.8006 60.8082C36.1554 60.2232 36.5915 59.6923 36.9409 59.1019C37.2307 58.6224 37.4663 58.1105 37.7859 57.6501C37.8103 57.6176 37.8374 57.5851 37.8618 57.5499C37.8699 57.5391 37.878 57.5282 37.8834 57.5228C37.962 57.4253 38.0432 57.3305 38.1272 57.2357C38.3141 57.0299 38.5118 56.8294 38.7231 56.6453C39.1754 56.2579 39.9284 55.8517 40.4782 55.6377C41.093 55.3939 41.5968 55.2585 42.2251 55.2937C43.0268 55.3344 43.7744 55.5077 44.633 55.6052C45.3345 55.7 46.0468 55.7325 46.7537 55.7406C47.4363 55.7406 48.3328 55.635 48.8799 55.5402C49.0288 55.524 49.2401 55.4942 49.3132 55.5077C49.2889 55.5862 49.1832 55.7596 49.1101 55.8815C48.9503 56.155 48.7851 56.4259 48.6253 56.6994C48.3003 57.233 48.0023 57.7855 47.7586 58.3624C47.3685 59.2562 47.1085 60.2015 46.7456 61.1061C46.5397 61.6397 46.1904 62.2979 45.8247 62.8612C45.1963 63.8011 44.5219 64.6217 43.6796 65.4451C43.2246 65.892 42.7695 66.3145 42.3064 66.6287C41.8812 66.9104 41.5318 67.0187 41.0984 67.2165C40.5784 67.4467 40.1938 67.6227 39.6927 67.8042C38.8233 68.1482 37.9105 68.3676 36.9951 68.5599C36.4832 68.6736 35.974 68.7928 35.4539 68.8632C35.2535 68.893 35.1018 68.9282 34.9502 68.9445C35.007 68.8307 35.0666 68.7197 35.1289 68.6059C35.4242 68.075 35.76 67.5686 36.0904 67.0594C36.6484 66.2008 37.2578 65.3774 37.8699 64.5594C38.4306 63.7767 39.0616 63.0481 39.7252 62.3547C40.5053 61.5287 41.2718 60.6863 42.0735 59.8792C42.366 59.584 42.6775 59.3104 42.9781 59.026C43.0729 58.9366 43.165 58.85 43.2598 58.7606C43.3112 58.7064 43.3762 58.6658 43.4006 58.5954C43.4169 58.5358 43.3817 58.4681 43.3221 58.4518C43.2598 58.4356 43.2056 58.4762 43.1541 58.5006C43.0052 58.5791 42.8562 58.6577 42.71 58.747C41.4559 59.5352 40.4348 60.6403 39.4814 61.7616C38.9723 62.3845 38.4441 62.9912 37.962 63.6358C37.4582 64.3103 37.0005 65.0172 36.5319 65.716C36.0715 66.4093 35.5975 67.0919 35.0937 67.75C34.7849 68.1319 34.4599 68.503 34.1674 68.8957C33.0055 70.4152 32.9594 71.1979 32.8619 73.0397C32.7942 74.2287 32.7996 75.4204 32.7996 76.6122C32.7888 78.8033 32.8213 80.9972 32.7455 83.1884C32.675 85.1818 32.4746 87.1725 32.4719 89.1714C32.4692 90.7071 32.6534 92.232 32.8159 93.7569C32.9459 94.954 33.0624 96.1539 33.2709 97.3375C33.4767 98.4344 33.7747 99.5124 33.9182 100.62C34.208 102.454 34.208 104.623 34.1322 106.598C34.078 108.009 33.9697 109.417 33.9155 110.826C33.8614 112.299 33.8343 113.773 33.753 115.246C33.6718 117.12 33.6826 118.997 33.6555 120.874C33.6474 121.264 33.6365 121.657 33.6176 122.047C33.6149 122.125 33.688 122.199 33.7666 122.196C33.8451 122.196 33.9182 122.128 33.9155 122.047C33.9968 120.311 33.9589 118.572 34.013 116.836C34.0374 115.761 34.0997 114.688 34.143 113.613C34.1837 112.462 34.1972 111.311 34.2487 110.159C34.3868 107.088 34.6279 103.992 34.2243 100.932C34.1457 100.338 34.0509 99.7453 33.9291 99.1576C33.7557 98.3531 33.4984 97.2508 33.4145 96.571C33.2763 95.5634 33.1653 94.5504 33.0651 93.5375C32.9567 92.5489 32.843 91.5603 32.7834 90.569C32.6967 89.1579 32.7563 87.7467 32.8403 86.3383C32.9053 85.2035 32.9784 84.0659 33.0136 82.9284C33.0515 81.7285 33.0488 80.5286 33.0515 79.3315C33.0705 76.9914 32.9865 74.6485 33.149 72.3138C33.1815 71.7017 33.2872 70.9623 33.4957 70.4802C33.7666 69.8464 34.162 69.2722 34.5872 68.7332C34.8337 68.4271 35.0856 68.1292 35.3294 67.8204C35.1289 68.1482 34.9366 68.4813 34.7552 68.8199C34.7064 68.9147 34.5954 69.0609 34.7118 69.1476C34.8202 69.2153 34.9637 69.1584 35.0829 69.1503C35.3808 69.1043 35.5298 69.0826 35.8331 69.0366C36.8976 68.8334 37.9647 68.6113 39.0048 68.2998C39.7713 68.048 40.5188 67.7365 41.2528 67.4033C41.6807 67.2165 42.2279 67.0214 42.71 66.6395C43.5198 65.9976 44.2484 65.2555 44.9201 64.4728C45.4997 63.7713 46.0495 63.0373 46.4802 62.2329C47.0164 61.2768 47.3117 60.215 47.6854 59.1912C47.9617 58.4437 48.2488 57.7937 48.6795 57.0678C48.8718 56.7401 49.0668 56.4123 49.2591 56.0846C49.3593 55.8869 49.5272 55.7081 49.5407 55.4806C49.5353 55.3994 49.4812 55.3262 49.4053 55.2991C49.3024 55.2558 49.1832 55.2748 49.0749 55.2829C48.8718 55.3046 48.6686 55.3371 48.4682 55.3669C48.1053 55.4129 47.6827 55.4752 47.2385 55.486C46.277 55.5267 45.1909 55.4481 44.3513 55.3235C43.406 55.2125 42.4608 54.9579 41.5047 55.0743C40.9576 55.1556 40.4403 55.3669 39.9419 55.5917C39.2837 55.9004 38.6608 56.2959 38.1597 56.8267C37.9132 57.0813 37.6803 57.3468 37.4826 57.642C37.1467 58.1837 36.8813 58.7687 36.5238 59.2969C36.104 59.9361 35.611 60.5346 35.2806 61.2307C34.7443 62.3927 34.4301 63.3135 34.6604 64.6055C34.7524 65.2934 34.8229 65.9868 34.7741 66.6829C34.7443 67.1406 34.6956 67.4683 34.4247 67.8584C34.1918 68.2078 33.8641 68.6194 33.6528 68.8497C33.4388 69.0826 33.3224 68.8605 33.2899 68.8063C33.019 68.2186 32.9757 67.444 33.0082 66.691C33.0949 65.5751 33.2845 64.5242 33.4524 63.3623C33.6338 62.1976 33.7747 61.0249 34.0239 59.8738C34.2053 59.0287 34.4247 58.1891 34.5087 57.3278C34.6089 56.1957 34.5845 55.0554 34.7172 53.9259C34.7579 53.517 34.9068 52.9265 35.0558 52.4363C35.1966 51.9623 35.3104 51.5696 35.5325 51.185C35.676 50.9033 35.9117 50.7137 36.1338 50.4645C36.5102 50.0609 36.8867 49.6547 37.2849 49.2755C37.6343 48.9261 37.9485 48.6877 38.3358 48.3898C38.566 48.2138 39.6765 47.2983 40.1532 46.9218C40.6434 46.5345 41.1661 46.1445 41.7132 45.7111C44.1102 43.8287 46.7537 41.9247 49.3484 40.1398C50.5077 39.3489 51.6804 38.5797 52.8613 37.824C52.3955 38.1274 51.9296 38.4307 51.4692 38.7395C50.6187 39.3516 49.7845 39.9908 48.9666 40.6463C48.2569 41.2313 47.5717 41.8434 46.8675 42.4339C46.5262 42.7237 46.0874 43.1083 45.7949 43.3358C45.2316 43.7583 44.6411 44.1483 44.0479 44.5275C43.3004 45.0096 42.5041 45.4105 41.7728 45.917C41.1147 46.3395 40.5242 46.8568 39.9446 47.3768C39.8877 47.4337 39.8146 47.4852 39.8119 47.5718C39.8119 47.6558 39.8931 47.7073 39.969 47.7181C40.0529 47.7371 40.4511 47.775 40.4267 47.7723C40.7192 47.8102 41.0009 47.8996 41.2907 47.9565C42.9944 48.3167 44.7522 48.2815 46.4747 48.1027C47.3848 48.0133 48.2976 47.9023 49.1832 47.6666C49.8901 47.4743 50.5781 47.2008 51.2308 46.8676C52.4551 46.2312 53.5818 45.424 54.6598 44.5627C55.1933 44.1429 55.8488 43.6581 56.4501 43.2004C57.9316 42.0926 59.3996 40.9577 60.7159 39.655C61.4147 38.9589 62.0268 38.1843 62.5658 37.3609C63.094 36.5592 63.5165 35.6952 63.9472 34.8393C64.4293 33.8724 64.9114 32.9054 65.3474 31.9195C65.6074 31.3833 65.7212 30.7387 66.0408 30.2999C66.1437 30.178 66.2548 30.0642 66.3739 29.9559C66.439 29.8963 66.5094 29.8476 66.569 29.7826C66.6177 29.7257 66.6448 29.6688 66.6258 29.6173ZM17.3505 50.2966C17.3478 50.2993 17.345 50.3047 17.3423 50.3101C17.0904 50.1828 16.7031 49.7738 16.4594 49.4976C16.1533 49.1482 15.8906 48.7582 15.552 48.4386C14.8776 47.8156 13.9567 47.5664 13.2417 46.9977C12.3344 46.2962 11.3295 45.4511 10.3653 44.6927C9.46878 43.9398 8.86479 43.1218 8.32581 42.0926C7.89516 41.2584 7.60264 40.5054 7.36158 39.552C7.03115 38.2113 6.93635 37.4123 6.92552 35.9904C6.93364 35.0235 6.97427 34.2055 7.22075 33.3117C7.39951 32.594 7.64868 32.0821 8.036 31.4429C8.38539 30.8497 8.74562 30.2592 9.08147 29.658C9.43357 29.0458 9.68004 28.3796 9.86151 27.6997C9.92381 27.4803 9.96714 27.2555 10.0484 27.0443C10.0592 27.0253 10.089 26.9387 10.0646 27.0037C10.0836 26.9468 10.1134 26.898 10.1594 26.8601C10.1892 26.8249 10.2217 26.7924 10.2678 26.7789C10.2326 26.7951 10.2488 26.7897 10.2678 26.7843C10.284 26.7843 10.3003 26.7843 10.3165 26.7843C10.349 26.7897 10.3815 26.7951 10.414 26.8059C10.5522 26.8466 10.6876 26.9007 10.8203 26.9549C11.2591 27.131 11.9768 27.4587 12.4996 27.7241C13.3229 28.1764 14.1301 28.6531 14.9345 29.1352C16.1425 29.8746 17.1852 30.5951 18.2009 31.5485C18.9999 32.2825 19.6635 32.9813 20.1971 33.8805C20.6006 34.5522 20.8769 35.2699 21.0557 36.0175C20.82 36.0229 20.5817 36.0283 20.346 36.0391C19.5389 36.0744 18.8916 36.2017 18.1305 36.2992C17.884 36.3235 17.7703 36.356 17.4859 36.3669C17.2855 36.3885 17.0688 36.4102 16.8981 36.5267C16.8331 36.5727 16.8033 36.6513 16.7817 36.7217C16.7275 36.8923 16.7221 37.0738 16.7492 37.2498C16.7817 37.5315 16.8142 37.8132 16.844 38.0976C16.9523 39.0754 17.1202 39.8771 17.1257 40.9848C17.1744 42.8374 17.0336 44.69 17.1257 46.5426C17.1148 46.4966 17.104 46.4533 17.0904 46.4072C16.6002 44.7225 15.9366 43.0866 15.0591 41.5672C14.5201 40.5677 14.0272 39.5466 13.6425 38.5662C13.2904 37.6426 13.0304 36.6865 12.7298 35.7439C12.3669 34.5847 11.9877 33.4309 11.6383 32.2662C11.5218 31.8708 11.4162 31.4726 11.316 31.0745C11.2835 30.9418 11.251 30.8064 11.2158 30.6736C11.2076 30.5978 11.1426 30.5111 11.0559 30.5409C11.0153 30.5518 10.9828 30.5843 10.972 30.6249C10.9693 30.782 11.0126 30.9445 11.0289 31.1016C11.1101 31.6595 11.2076 32.2175 11.3241 32.7673C11.5245 33.8263 11.8279 34.8582 12.1177 35.8956C12.4183 37.0521 12.6946 38.2222 13.1469 39.3299C13.4069 39.9827 13.7184 40.6084 14.0109 41.2476C14.3522 41.9978 14.6772 42.7562 15.032 43.501C15.6035 44.6765 16.0531 45.7193 16.5 46.9516C16.8142 47.8102 17.1148 48.6742 17.3288 49.5626C17.3775 49.8578 17.4398 50.0203 17.3505 50.2966ZM17.2502 48.295C16.89 47.1791 16.4702 46.0795 16.0125 44.9988C15.6929 44.2594 15.3299 43.5389 14.9941 42.8076C14.7016 42.1684 14.4199 41.5238 14.1247 40.8873C13.8376 40.2806 13.564 39.7118 13.3446 39.1512C12.8869 38.0109 12.616 36.8056 12.2964 35.622C12.1502 35.0885 11.985 34.5603 11.8468 34.024C11.7656 33.6963 11.6924 33.3659 11.622 33.0354C11.7602 33.485 11.901 33.9319 12.0445 34.3761C12.3912 35.4595 12.719 36.5483 13.0602 37.6344C13.4557 38.9183 14.038 40.1344 14.6474 41.3261C14.9724 41.9436 15.3326 42.5449 15.6224 43.1787C16.091 44.17 16.4756 45.229 16.8115 46.3476C16.9902 46.9922 17.1175 47.645 17.2502 48.295ZM17.8867 49.5111C17.559 48.4413 17.4886 47.5312 17.4073 46.4235C17.3153 44.8634 17.4317 43.3033 17.4425 41.7432C17.4425 40.8792 17.4182 40.0125 17.2963 39.1539C17.1744 38.3468 17.0552 37.7644 16.9875 37.0657C16.9875 36.8815 17.0011 36.8219 17.0525 36.7244C17.2015 36.6404 17.3857 36.6215 17.6078 36.6106C17.8109 36.5998 18.014 36.57 18.2172 36.5456C19.1137 36.4346 19.8368 36.3019 20.755 36.2965C20.8742 36.291 20.9961 36.2883 21.118 36.2856C21.4051 37.694 21.3509 39.1891 21.1342 40.6219C20.6792 40.1019 20.2269 39.5764 19.7529 39.0726C19.5931 38.9128 19.4224 38.7666 19.2356 38.642C19.1381 38.5824 19.027 38.4822 18.9105 38.5445C18.8428 38.5824 18.8347 38.6772 18.8753 38.7422C19.0785 39.032 19.3358 39.2785 19.5579 39.5548C20.0427 40.1398 20.5356 40.7194 21.0205 41.3071C21.0177 41.3234 21.015 41.3369 21.0123 41.3532C20.7523 42.5801 20.4842 43.8044 20.151 45.0123C19.9018 45.9359 19.566 46.8324 19.287 47.7479C18.981 48.7067 18.8428 49.5843 19.0568 50.581C19.2329 51.3475 19.5877 52.049 20.0102 52.7044C19.046 51.854 18.2415 50.7326 17.8867 49.5111ZM21.08 40.955C21.08 40.9605 21.0773 40.9632 21.0773 40.9686C20.9636 40.8332 20.8498 40.6977 20.7361 40.565C20.8498 40.695 20.9663 40.825 21.08 40.955ZM19.4441 51.0062C19.1299 50.0772 19.1408 49.2349 19.3954 48.2923C19.6635 47.3037 20.0346 46.3449 20.3135 45.359C20.6358 44.2485 20.8769 43.1137 21.1315 41.987C21.1613 41.8434 21.1911 41.6999 21.2209 41.5563C21.4105 41.8028 21.6109 42.0872 21.8222 42.3689C22.1797 42.8266 22.4587 43.1895 22.808 43.6987C23.2712 44.3298 23.7316 44.9609 24.1487 45.6245C24.6959 46.5128 25.243 47.4012 25.8361 48.2625C26.9872 49.958 28.7315 51.4314 29.8474 52.9861C30.1697 53.4222 30.5299 53.8284 30.8712 54.251C31.0039 54.4243 31.2287 54.6789 31.3073 54.8956C31.1312 54.8739 30.7385 54.8279 30.5272 54.8089C29.9964 54.7629 29.4872 54.9254 28.9942 55.0987C28.3008 55.3452 27.77 55.421 27.0522 55.4021C26.3589 55.3804 25.8957 55.3127 25.2376 55.1908C24.4819 55.0554 23.7343 54.8631 23.022 54.5814C22.6374 54.4378 22.1716 54.1724 21.7328 53.9097C21.3834 53.7039 21.0367 53.498 20.709 53.2624C20.1835 52.5555 19.7177 51.8025 19.4441 51.0062ZM28.5148 50.9547C28.9428 51.3448 29.3869 51.7212 29.7932 52.1356C30.1995 52.5446 30.576 52.9807 30.9443 53.4249C31.2016 53.7553 31.3885 53.9259 31.5727 54.3051C31.7054 54.6897 32.006 55.4129 32.2877 55.8733C33.6176 58.0618 33.5174 58.5629 33.1869 59.9252C33.0028 60.6755 32.7753 61.4176 32.6642 62.1814C32.5423 63.2079 32.3934 64.2344 32.3554 65.2691C32.3311 65.743 32.3581 66.2197 32.3554 66.6937C32.2931 67.983 32.2363 69.2695 32.1713 70.5587C32.1577 71.8534 32.0683 73.148 32.0575 74.4427C32.0521 74.8219 32.006 75.2011 31.9654 75.5775C31.9654 75.5884 31.9627 75.6019 31.9627 75.6127C31.9438 75.6371 31.9302 75.6669 31.9302 75.6967C31.9302 76.7991 31.9167 77.8987 31.8815 79.0011C31.876 80.2795 31.8679 81.5606 31.9031 82.839C31.9167 83.4619 31.9356 84.0822 31.9356 84.7051C31.9329 84.9895 31.9275 85.3118 31.8923 85.5502C31.8842 85.5204 31.8788 85.4879 31.8706 85.4581C31.8652 85.4202 31.8571 85.3849 31.8517 85.347C31.784 84.808 31.7812 84.2609 31.7677 83.7165C31.7542 82.6142 31.7217 81.5118 31.7189 80.4068C31.7054 78.6571 31.6675 76.8966 31.3316 75.174C30.9795 73.343 30.2591 71.6015 29.4005 69.9547C29.024 69.2397 28.6096 68.5436 28.2819 67.8015C27.9189 66.9781 27.5506 65.9164 27.1768 64.9711C26.7678 63.9663 26.3074 62.9831 25.8632 61.9945C25.4786 61.1359 25.1103 60.2719 24.6688 59.4404C24.4115 58.9448 24.1596 58.4491 23.8779 57.9697C23.6179 57.5201 23.3335 57.0813 23.0789 56.629C22.6482 55.9004 22.2853 55.1231 21.7192 54.4866C21.5594 54.2997 21.3969 54.1101 21.2371 53.9151C21.313 53.9612 21.3915 54.0072 21.4701 54.0532C21.9576 54.3458 22.4424 54.6464 22.9706 54.8604C24.0594 55.3019 25.2186 55.5592 26.3832 55.6892C27.0604 55.7596 27.7483 55.7406 28.4146 55.5944C29.0863 55.44 29.7445 55.0662 30.3403 55.0825C30.6951 55.0798 30.8631 55.1339 31.2314 55.1718C31.3154 55.1773 31.4048 55.2043 31.486 55.1718C31.811 55.0093 31.4914 54.5895 31.3587 54.3891C31.0147 53.9124 30.7466 53.6199 30.3674 53.1567C30.083 52.7992 29.8095 52.4336 29.517 52.0815C29.1648 51.6617 28.7965 51.2608 28.4254 50.8599C28.4498 50.8952 28.4823 50.9249 28.5148 50.9547ZM21.4511 41.3803C22.2474 42.2524 23.1574 43.2545 23.7939 44.1077C24.1894 44.6657 24.6011 45.099 24.9423 45.6109C25.5219 46.5589 26.0122 47.5583 26.5891 48.509C26.9006 49.0669 27.2879 49.5734 27.7104 50.0501C27.8837 50.2478 28.049 50.4564 28.225 50.6541C27.6806 50.0718 27.1335 49.4895 26.6297 48.8692C25.8984 47.9429 25.1428 46.7024 24.4602 45.6001C24.0133 44.8796 23.5123 44.1971 23.0112 43.5118C22.7132 43.0731 22.3151 42.5585 22.0578 42.2307C21.8276 41.9274 21.6109 41.6132 21.3698 41.318C21.3428 41.2828 21.313 41.2503 21.2859 41.2178C21.2886 41.2096 21.2886 41.2015 21.2913 41.1934C21.3428 41.2557 21.3969 41.318 21.4511 41.3803ZM34.487 31.7652C34.3435 31.5756 34.2026 31.386 34.0564 31.1964C33.5418 30.5409 32.9296 29.7311 32.4638 28.8265C31.8327 27.5481 31.3398 26.2074 30.7195 24.9235C30.1968 23.851 29.544 22.8488 28.913 21.8413C28.6204 21.389 28.2819 20.9692 27.9731 20.5277C27.2689 19.5066 26.5701 18.4747 26.023 17.3588C25.9418 17.2017 25.8713 17.0283 25.8443 16.9444C26.0176 17.1096 26.2884 17.5456 26.4726 17.8625C26.822 18.4909 27.1497 19.1355 27.556 19.7287C28.0083 20.3598 28.4417 20.8121 28.8263 21.4486C29.1892 22.0282 29.6172 22.5672 30.018 23.1197C30.5164 23.8347 31.0147 24.5552 31.4454 25.3163C31.8056 25.9582 32.0088 26.5134 32.2877 27.1553C32.5884 27.8216 32.9053 28.4798 33.2086 29.1434C33.6095 30.0426 34.181 30.9987 34.5331 31.8302C34.5195 31.8085 34.5033 31.7868 34.487 31.7652ZM40.4484 17.8517C40.2046 17.2017 39.9365 16.5598 39.644 15.9314C39.3054 15.2028 39.0102 14.3469 38.6581 13.5236C38.4143 12.9439 38.0812 12.405 37.7914 11.847C37.3851 11.0697 37.0899 10.4115 36.8217 9.60438C36.4371 8.47766 36.2096 7.11529 36.0904 6.14294C36.0525 5.79084 36.0092 5.43874 35.9713 5.08664C36.0552 5.63646 36.169 6.18086 36.3044 6.72256C36.4425 7.4701 36.5996 8.21764 36.7892 8.95435C37.0628 9.97544 37.5151 10.8476 37.8672 11.7305C38.1516 12.4591 38.5362 13.1417 38.9045 13.8296C39.2512 14.504 39.6331 15.3003 39.9121 15.9368C40.2507 16.7006 40.4375 17.5131 40.6298 18.323V18.3257C40.573 18.1659 40.5107 18.0088 40.4484 17.8517ZM38.2924 19.6203C39.1131 19.707 40.8574 19.4849 40.8953 19.4416C40.9088 19.4822 40.9197 19.5255 40.9332 19.5662C41.0632 19.9941 41.2934 20.4708 41.4505 20.8256C41.6293 21.2265 41.8378 21.8792 41.5345 23.2172C41.288 24.3033 40.8276 25.1673 40.2344 26.1342C39.8119 26.7978 39.4435 27.4912 39.1321 28.2116C38.7772 29.035 38.4333 29.8611 38.0866 30.6818C37.7805 31.3887 37.3228 32.4856 36.9978 33.4038C36.7892 33.9699 36.6159 34.5468 36.4507 35.1237C35.9875 33.0381 34.6576 33.0165 35.9794 30.8903C36.2259 30.4922 36.448 30.0805 36.6836 29.6769C36.8542 29.3871 37.0465 29.1081 37.209 28.8156C37.5747 28.1602 37.8509 27.4587 38.0893 26.7491C38.4008 25.793 38.7149 24.8233 38.7691 23.8131C38.7962 23.3878 38.7474 22.9626 38.6933 22.5428C38.6066 21.9063 38.4522 21.2725 38.1624 20.6983C37.9051 20.2135 37.5313 19.7612 37.2361 19.3766C37.5828 19.4876 37.9349 19.5716 38.2924 19.6203ZM34.032 16.1995C34.4328 16.3972 34.6631 16.5706 34.9691 16.8577C35.2643 17.1637 35.4404 17.4563 35.7275 17.83C35.9604 18.1415 36.2123 18.4719 36.4588 18.797C36.2204 18.6859 35.9848 18.5559 35.7437 18.4042C34.7362 17.7867 33.7422 17.0148 33.0786 16.1399C32.9919 16.0126 32.9161 15.8853 32.843 15.7608C33.2763 15.9124 33.7124 16.0614 34.032 16.1995ZM43.4846 14.829C43.6958 14.1113 43.8638 13.5398 44.2402 12.9196C44.2565 12.8925 44.2727 12.8654 44.289 12.8383C44.3025 13.2933 44.2619 13.7456 44.1482 14.1925C43.9477 14.9753 43.666 15.5901 43.2219 16.2862C43.1894 16.3404 43.1541 16.3945 43.1216 16.4487C43.1975 15.9151 43.3248 15.4032 43.4846 14.829ZM41.762 24.9967C42.0058 24.4496 42.2224 23.8889 42.3877 23.312C42.7777 22.058 42.4824 21.2346 41.7918 20.1729C41.4641 19.6718 41.7593 19.0299 41.7891 18.9703C42.0789 18.3961 42.4445 17.8625 42.8102 17.3317C42.8183 17.7786 42.8806 18.2228 42.9321 18.6642C43.0269 19.3576 43.1596 20.0537 43.4304 20.701C43.5902 21.0938 43.8042 21.4567 44.0182 21.8223C44.224 22.1771 44.373 22.429 44.3811 22.4317C43.9721 23.163 43.5388 23.8618 43.0133 24.4279C42.5529 24.8992 42.1195 25.1646 41.5995 25.5709C41.5426 25.6223 41.4857 25.6765 41.4316 25.7334C41.5453 25.4896 41.6537 25.2431 41.762 24.9967ZM40.9928 26.6082C41.2474 26.3076 41.4911 25.9907 41.7891 25.728C42.1439 25.4517 42.7587 25.04 43.1514 24.6337C43.6011 24.1625 43.9613 23.6126 44.2998 23.0601C44.4271 22.857 44.5328 22.6403 44.6574 22.4344C44.7684 22.2449 44.9038 22.0715 45.0095 21.8819C45.2857 21.3375 45.6432 20.8392 45.9791 20.33C46.2987 19.8154 46.5993 19.2872 46.9325 18.7807C47.2981 18.2119 47.6881 17.6621 48.0673 17.1042C48.5061 16.427 48.9747 15.9178 49.4947 15.2651C50.1339 14.4092 50.8679 13.334 51.4367 12.5756C51.7346 12.2072 52.0407 11.8416 52.3792 11.5084C52.6988 11.2132 53.0374 10.9451 53.3516 10.6444C53.7281 10.3005 54.0802 9.9294 54.4485 9.58001C54.7789 9.26582 55.1311 8.97872 55.4344 8.63746C55.475 8.59683 55.494 8.52912 55.4615 8.47766C55.4398 8.43974 55.3992 8.41536 55.3559 8.41536C55.2448 8.43161 55.1744 8.54266 55.0877 8.60495C54.8873 8.78371 54.6869 8.96518 54.4837 9.14394C53.9881 9.58542 53.4572 9.98357 52.9534 10.4115C52.2411 11.0074 51.5423 11.6141 50.8814 12.2641C50.4183 12.7191 49.9579 13.185 49.5841 13.7186C48.9747 14.6042 48.5386 15.5982 47.9373 16.4893C47.2819 17.4671 46.4693 18.3203 45.7516 19.3332C45.283 19.9697 44.8849 20.6685 44.6492 21.4242C44.5707 21.6625 44.4976 21.9334 44.4136 22.1176C44.3134 21.8982 43.4169 20.6062 43.2083 18.8674C43.1514 18.3853 43.0431 17.6594 43.0675 17.0608C43.0702 17.0256 43.0729 16.9904 43.0756 16.9552C43.509 16.316 43.9206 15.666 44.1807 14.932C44.5003 14.0923 44.5788 13.2933 44.5219 12.5025C45.0447 11.7955 45.8274 11.1293 46.4368 10.658C47.3144 9.97544 48.07 9.36062 49.0153 8.73496C50.6593 7.65698 51.7888 7.15862 53.7199 7.07737C54.741 7.00966 55.6619 6.98257 56.6072 6.73881C56.813 6.68193 57.0134 6.6061 57.2057 6.5113C56.8211 7.93325 56.618 9.39854 56.2821 10.8313C56.033 11.9716 55.7486 12.9737 55.085 13.9109C54.2941 15.108 53.0482 16.1427 52.2871 17.4725C51.8863 18.1226 51.6561 18.8701 51.201 19.4876C50.9925 19.7991 50.6187 20.1322 50.2531 20.4193C49.668 20.896 48.8149 21.4106 48.0213 21.7573C47.5283 21.9713 46.8052 22.1907 46.1904 22.3803C45.7868 22.5049 45.3724 22.6078 44.9878 22.7893C44.2646 23.1278 43.8746 23.9837 43.6552 24.3304C43.5523 24.4902 43.4656 24.6337 43.3546 24.7556C43.1298 24.9804 42.7452 25.2648 42.5502 25.4165C42.0003 25.8417 41.418 26.2561 40.9088 26.7382C40.9332 26.6868 40.963 26.6461 40.9928 26.6082ZM44.7792 21.7871C44.8117 21.6842 44.8442 21.5813 44.8767 21.4784C45.0555 20.9231 45.302 20.4329 45.6514 19.8993C46.2283 19.0272 46.8593 18.2986 47.4958 17.4806C46.9162 18.3203 46.3583 19.1734 45.8464 20.0591C45.5159 20.5927 45.134 21.091 44.8469 21.649C44.8307 21.7005 44.8063 21.7438 44.7792 21.7871ZM48.3273 16.316C48.6551 15.7878 48.9476 15.2407 49.2536 14.699C49.7358 13.789 50.3181 13.1335 51.0548 12.4212C51.3798 12.1016 51.7157 11.7928 52.0569 11.4895C52.0217 11.5274 51.9865 11.5626 51.9513 11.6005C51.2363 12.3616 50.6594 13.2365 50.0499 14.0815C49.7493 14.4905 49.4487 14.9374 49.1859 15.2624C48.8988 15.6118 48.6036 15.9558 48.3273 16.316ZM39.0833 62.6093C39.9365 61.5639 40.814 60.5292 41.846 59.6544C42.0653 59.4621 42.2956 59.2833 42.5366 59.1181C41.7024 59.8954 40.9278 60.7324 40.1504 61.5639C39.5925 62.1624 39.021 62.7529 38.4929 63.3785C38.2085 63.7252 37.9403 64.0855 37.6749 64.4457C38.1137 63.8146 38.5741 63.1944 39.0833 62.6093Z" fill="#54816E"/>
</g>
</g>
</g>
</svg>
