<svg width="164" height="273" viewBox="0 0 164 273" fill="none" xmlns="http://www.w3.org/2000/svg">
<path opacity="0.3" d="M55.1303 0.0209035C56.7085 3.424 56.5308 7.6816 55.8735 11.3132C55.2487 15.01 54.0851 18.4843 52.7971 21.9467C50.1855 28.8835 46.9373 35.8321 44.6425 45.1809C39.9613 63.9707 49.5815 79.6451 52.9688 86.2792C54.5204 89.2966 57.0579 94.0853 59.3793 98.0521C59.9093 98.9541 60.4127 99.8116 60.8835 100.61C53.5936 94.2811 49.7384 87.4037 46.7182 80.4492C43.3516 72.8122 41.1249 64.8578 34.9483 55.8323C30.7822 49.8302 25.5147 45.5043 20.5581 43.3266C15.6369 41.048 11.1836 40.956 8.09235 41.6058C4.99222 42.1517 2.91952 43.7212 1.71145 44.7033C0.488569 45.7654 0 46.5754 0 46.5754C6.90202 48.0589 10.7602 52.7971 12.895 57.7757C15.1158 62.8729 16.0751 68.4419 18.7548 75.2362C21.399 82.0484 26.48 86.9884 31.7298 90.3351C36.9885 93.7145 42.3271 95.4293 45.3147 96.6339C48.0121 97.705 52.4122 99.2745 56.1608 100.408C58.266 101.01 60.1403 101.547 61.3898 101.906C62.8673 113.015 64.7031 124.075 66.9387 135.059C61.452 130.359 57.8722 125.499 54.4907 120.491C50.2417 114.27 46.1704 107.629 38.6081 101.832C28.2714 94.1951 19.1338 94.5689 14.1268 96.5865C8.94508 98.6693 6.98792 101.927 6.98792 101.927C12.9187 103.407 16.6702 107.063 19.6046 111.13C22.5685 115.255 24.7715 119.818 28.2418 124.574C31.6824 129.324 36.6065 131.632 41.6756 133.074C46.6974 134.507 51.7489 134.952 54.6003 135.498C57.7389 136.074 63.6016 137.151 67.522 137.872C67.9187 139.762 68.3244 141.652 68.7478 143.536C68.9137 146.146 69.3666 149.274 70.1868 151.71C70.6014 152.834 70.9952 153.798 71.3979 154.585C71.9575 156.789 72.5083 158.996 73.1064 161.189C74.4684 166.084 75.9518 170.953 77.4974 175.804C73.2514 171.431 70.1425 167.482 67.2703 163.322C65.1947 160.361 63.2345 157.397 61.0493 154.481C58.7635 151.517 56.7677 148.876 53.0606 145.693C48.5451 141.951 45.1282 140.447 42.1554 139.512C39.2299 138.631 36.7101 138.441 34.3532 138.257C32.1709 138.109 29.9946 137.961 28.3572 137.851C26.8086 137.747 25.8196 137.777 25.8196 137.777C28.6266 143.77 31.2353 148.238 33.6159 153.241C34.8062 155.596 36.1031 158.169 37.3112 160.56C37.9685 161.8 38.5992 162.993 39.1796 164.091C39.751 165.197 40.3403 166.322 41.3085 167.696C44.8113 172.852 49.7946 174.991 54.7039 176.154C59.5984 177.294 64.4663 177.498 67.2703 177.982C69.7546 178.388 73.8792 179.124 77.4353 180.038C77.9683 180.172 78.4775 180.308 78.975 180.445C83.1144 192.864 87.9378 205.067 93.5755 216.885C84.5327 210.868 78.0956 205.435 71.8746 199.89C64.9637 193.766 58.2985 187.648 49.1373 182.557C47.5916 181.7 46.0964 180.94 44.5833 180.246C42.866 179.48 41.4388 178.958 40.0679 178.522C37.3319 177.653 34.9986 177.181 32.926 176.893C28.7984 176.335 25.6183 176.496 22.8646 176.721C20.1257 176.967 17.831 177.317 16.1936 177.614C14.5621 177.902 13.6056 178.228 13.6056 178.228C19.4536 184.061 24.505 188.079 29.1626 192.802C31.5077 195.116 33.7432 197.407 35.8159 199.765C38.0751 202.216 40.6778 204.785 43.6713 207.296C49.6584 212.339 56.1844 214.17 62.2396 215.054C68.2799 215.903 73.8732 215.817 77.2014 216.134C80.1298 216.428 85.0124 216.911 89.1696 217.603C91.1535 217.905 92.9567 218.232 94.3217 218.493C97.3567 224.753 100.629 230.904 104.167 236.912C107.045 241.866 110.154 246.694 113.399 251.426C90.5909 246.127 80.5917 234.74 62.0323 225.753C49.1106 219.439 39.9405 218.543 33.6899 219.246C27.4808 219.929 24.3155 222.335 24.3155 222.335C38.9842 230.168 44.077 240.976 58.7693 251.058C73.509 261.027 89.9069 256.562 96.8326 255.577C101.324 254.915 109.879 253.441 114.246 252.681C120.941 262.306 128.399 271.406 136.578 279.817C126.741 280.84 118.187 278.488 110.172 275.841C100.791 272.815 91.5088 268.605 78.5013 267.934C62.663 267.068 52.9717 271.138 47.7456 275.037C42.4603 278.977 41.2493 282.784 41.2493 282.784C49.8035 281.903 56.6049 283.475 63.2907 285.653C66.5922 286.804 70.178 288.053 73.5416 289.225C77.1392 290.489 81.0477 291.56 84.589 292.756C92.48 295.186 100.306 294.945 107.255 293.583C114.178 292.245 119.884 289.715 123.244 288.397C126.271 287.252 131.041 285.101 134.769 283.054C135.965 282.404 137.037 281.775 137.966 281.208C144.161 287.46 150.719 293.358 157.716 298.731C160.721 301.025 163.804 303.226 166.939 305.342C160.369 304.894 154.548 304.902 149.088 304.932C141.869 305.054 135.278 305.223 128.823 305.623C122.404 306.009 115.969 306.585 109.586 307.617C103.524 308.549 97.0724 309.581 89.8773 311.584C80.3045 314.239 72.6563 318.052 67.1904 322.256C61.6948 326.443 58.4348 330.875 56.6819 334.498C54.9527 338.207 54.6092 341.052 54.6773 342.977C54.7247 344.867 55.0859 345.799 55.0859 345.799C62.056 338.168 70.4474 335.765 78.4864 334.637C86.6883 333.51 95.0501 333.744 105.932 332.427C117.308 330.964 125.211 326.95 132.341 323.259C139.352 319.521 145.197 315.723 149.058 313.919C152.454 312.284 158.19 309.771 163.531 308.228C165.545 307.62 167.481 307.145 169.116 306.789C176.723 311.765 184.691 316.189 193.026 319.85C196.745 321.497 200.514 323.01 204.331 324.392C204.049 324.389 203.762 324.386 203.481 324.383C197.677 324.401 192.125 324.659 186.574 325.372C180.992 326.012 175.36 327.012 169.45 328.715C163.525 330.398 157.296 332.715 150.69 336.426C144.096 340.073 138.39 345.164 134.292 350.383C130.102 355.697 127.313 361.117 125.379 366.194C121.551 376.4 121.095 385.025 120.751 390.093C120.399 394.638 120.467 401.907 121.468 407.541C122.377 413.253 124.082 417 124.082 417C123.458 409.01 125.746 400.75 128.873 393.899C132.047 386.954 136.11 380.96 140.64 375.715C149.801 365.004 159.984 358.171 173.984 350.549C192.576 340.613 203.738 335.892 211.135 332.207C214.161 330.801 216.551 329.59 218.345 328.674C223.047 329.828 227.835 330.73 232.738 331.288L232.753 331.291C233.869 331.409 234.87 330.599 234.988 329.484C235.107 328.365 234.299 327.365 233.185 327.247L233.005 327.226C229.357 326.837 225.706 326.22 222.064 325.44C221.821 325.072 221.572 324.692 221.347 324.351C221.007 323.562 220.687 322.82 220.385 322.117C219.725 320.681 219.183 319.141 218.777 317.503C218.357 315.895 217.874 314.394 217.619 312.744C216.379 306.333 216.053 300.078 216.035 293.925C215.997 281.591 217.181 269.569 216.32 254.847C215.206 235.223 210.43 223.436 206.03 216.971C201.515 210.467 197.633 209.111 197.633 209.111C201.044 230.901 194.109 243.78 192.789 266.807C191.276 289.99 203.661 307.365 208.796 314.346C210.7 317.126 213.942 321.203 217.101 324.268C209.409 322.28 201.82 319.565 194.551 316.388C192.972 315.708 191.406 314.999 189.854 314.266C186.882 311.299 184.72 307.493 183.506 303.401C181.528 297.141 181.197 290.599 181.602 284.137C181.966 277.547 183.109 271.444 183.944 263.641C184.622 256.752 185.463 249.684 186.011 241.608C187.678 220.116 184.424 205.898 180.424 198.3C178.449 194.44 176.453 192.096 174.946 190.713C173.457 189.331 172.503 188.886 172.503 188.886C173.836 200.94 171.772 210.494 169.202 219.917C166.605 229.393 163.2 238.852 161.169 251.883C160.671 255.138 160.419 258.36 160.402 261.46C160.393 263.101 160.405 264.356 160.464 265.65C160.505 267.053 160.576 268.418 160.683 269.842C161.095 275.503 162.169 281.021 163.706 285.846C166.827 295.634 171.837 302.392 174.922 306.015C175.011 306.128 175.121 306.249 175.212 306.362C169.912 303.152 164.772 299.669 159.818 295.945C155.004 292.302 150.4 288.391 145.955 284.306C142.698 272.806 143.802 261.944 145.618 252.034C147.791 240.22 151.483 228.999 152.845 213.897C153.627 205.231 153.997 197 153.064 190.416C152.194 183.773 150.299 178.638 148.099 175.137C145.878 171.612 143.566 169.766 141.863 168.882C140.16 167.998 139.18 167.912 139.18 167.912C140.868 172.627 140.853 177.412 140.184 181.75C139.515 186.12 138.224 190.161 136.744 194.208C135.26 198.267 133.549 202.314 131.95 206.966C131.141 209.233 130.431 212.016 129.744 214.283C129.069 216.588 128.376 219.104 127.73 221.792C125.077 232.529 125.661 242.866 127.674 251.405C129.643 259.959 133.045 266.504 134.928 270.367C135.781 272.236 137.066 274.64 138.511 277.093C129.258 267.652 120.929 257.292 113.559 246.272C111.424 241.982 111.063 236.496 111.868 231.476C112.884 225.397 115.102 219.772 117.861 214.413C119.215 211.728 120.737 209.087 122.3 206.34L124.758 201.937C125.53 200.454 126.297 198.979 127.052 197.528C130.069 191.645 133.131 185.245 135.612 177.584C138.943 167.411 139.734 158.115 138.834 150.769C137.955 143.366 135.34 138.032 132.897 134.629C131.55 132.929 130.292 131.662 129.172 130.712C127.949 129.793 126.881 129.184 126.007 128.772C124.26 127.95 123.262 127.873 123.262 127.873C127.413 137.892 125.634 146.936 122.445 154.674C119.182 162.583 114.456 169.743 109.221 179.667C106.601 184.589 104.638 189.826 103.418 194.454C102.121 199.032 101.096 204.201 100.797 208.773C100.187 216.983 101.475 223.816 102.586 228.251C97.105 218.362 92.2846 208.117 88.0326 197.623C88.687 188.696 92.856 181.59 97.561 175.41C103.142 168.126 110.447 160.311 115.14 148.571C118.282 140.761 119.141 133.86 118.847 128.425C118.563 122.963 117.177 118.904 115.647 115.978C114.24 113.362 112.73 111.662 111.472 110.531C112.019 109.146 112.452 107.775 112.739 106.431C113.917 101.271 113.204 96.9811 111.901 94.1328C110.61 91.2459 108.857 89.626 107.525 88.6884C106.198 87.7568 105.298 87.4749 105.298 87.4749C105.405 94.207 101.549 98.6426 97.2116 101.494C92.8294 104.407 87.4611 106.532 81.6754 110.677C76.2805 114.178 72.3069 120.387 70.5066 126.324C69.6272 129.057 69.1742 131.706 68.9314 134.092C67.5249 127.386 66.2724 120.648 65.1591 113.884C67.3265 106.469 72.2388 101.52 77.4412 97.2896C83.1973 92.5069 90.0313 88.1929 95.7489 79.3959C99.4649 73.548 101.088 67.8248 101.12 63.2141C101.369 58.6242 100.045 55.0758 98.7809 52.5835C95.8466 47.5456 92.3438 46.166 92.3438 46.166C91.8434 52.5984 88.7729 57.1586 85.1042 60.713C81.3438 64.3149 76.932 66.8368 72.2892 70.7265C67.6345 74.5657 65.091 80.0635 63.7497 85.6769C62.8377 89.439 62.6038 93.0854 62.5328 95.9931C62.3314 94.4413 62.1212 92.8926 61.9317 91.3379C61.6918 83.8582 62.5239 77.1914 63.6964 70.768C65.5618 60.6062 68.3481 51.0021 69.5591 38.8257C71.2054 22.6707 68.126 11.6929 63.8148 5.61955C61.68 2.61402 59.4326 0.976262 57.6886 0.427375C56.0304 -0.139314 55.1303 0.0209035 55.1303 0.0209035ZM102.429 128.989C98.8135 134.661 94.4431 139.661 89.7411 146.191C87.3753 149.458 85.6638 152.813 84.3817 156.27C83.0611 159.774 82.1521 163.491 81.6873 167.046C81.0181 171.956 81.2608 176.401 81.6428 179.863C81.5333 179.762 81.4148 179.655 81.3053 179.554C79.1645 173.273 77.1895 166.933 75.3656 160.56C74.5987 157.824 73.8792 155.077 73.1745 152.324C73.7015 150.223 74.6846 148.155 75.9104 146.369C78.063 143.197 80.873 140.634 83.8695 138.329C86.8867 136.008 90.1142 133.955 93.5341 131.511C95.2722 130.244 96.9806 128.997 98.9112 127.265C100.8 125.577 102.275 124.12 104.013 122.203C105.319 120.764 106.491 119.266 107.551 117.741C106.405 121.933 104.573 125.594 102.429 128.989Z" fill="#BFD8BD"/>
</svg>
