<svg width="557" height="367" viewBox="0 0 557 367" fill="none" xmlns="http://www.w3.org/2000/svg">
<g clip-path="url(#clip0_3307_2)">
<path opacity="0.3" d="M499.966 119.059C495.442 121.244 489.734 121.09 484.862 120.28C479.898 119.515 475.223 118.022 470.563 116.361C461.224 112.994 451.852 108.773 439.289 105.878C414.037 99.9671 393.241 113.193 384.424 117.867C380.414 120.01 374.054 123.508 368.786 126.704C367.589 127.433 366.449 128.127 365.388 128.774C373.716 118.868 382.85 113.554 392.102 109.365C402.263 104.696 412.869 101.547 424.827 93.0817C432.782 87.3727 438.469 80.2148 441.285 73.5233C444.237 66.8763 444.274 60.8948 443.341 56.7604C442.55 52.6103 440.405 49.8593 439.066 48.2611C437.618 46.6393 436.528 46 436.528 46C434.678 55.2932 428.41 60.562 421.788 63.5253C415.006 66.6064 407.57 68.0055 398.525 71.7364C389.456 75.4201 382.944 82.337 378.564 89.4477C374.145 96.5742 371.955 103.769 370.402 107.804C369.019 111.443 367.007 117.38 365.564 122.431C364.799 125.269 364.118 127.794 363.662 129.476C348.818 131.68 334.044 134.363 319.383 137.583C325.565 130.129 332.003 125.227 338.644 120.587C346.892 114.762 355.699 109.166 363.314 98.9007C373.333 84.8758 372.652 72.622 369.852 65.9409C366.963 59.0267 362.559 56.467 362.559 56.467C360.694 64.4554 355.877 69.5644 350.486 73.5809C345.022 77.6419 338.958 80.689 332.658 85.4417C326.366 90.1525 323.372 96.8047 321.546 103.638C319.726 110.408 319.233 117.191 318.558 121.029C317.848 125.253 316.522 133.144 315.637 138.418C313.114 138.99 310.592 139.571 308.077 140.176C304.585 140.452 300.405 141.122 297.159 142.27C295.664 142.849 294.38 143.396 293.335 143.952C290.396 144.748 287.452 145.529 284.523 146.375C277.995 148.301 271.504 150.389 265.039 152.561C270.81 146.776 276.039 142.527 281.55 138.586C285.471 135.743 289.406 133.05 293.264 130.063C297.185 126.938 300.685 124.207 304.874 119.169C309.796 113.036 311.742 108.422 312.931 104.413C314.055 100.47 314.259 97.0824 314.458 93.9201C314.613 90.9883 314.767 88.0644 314.883 85.8662C314.993 83.7859 314.932 82.4601 314.932 82.4601C306.961 86.3456 301.031 89.935 294.38 93.231C291.25 94.8738 287.831 96.6685 284.651 98.3374C283.004 99.2413 281.419 100.114 279.96 100.916C278.49 101.704 276.995 102.519 275.177 103.842C268.343 108.645 265.579 115.375 264.115 121.986C262.687 128.575 262.509 135.115 261.92 138.885C261.422 142.228 260.521 147.775 259.371 152.567C259.203 153.282 259.03 153.971 258.858 154.642C242.308 160.442 226.067 167.157 210.353 174.96C218.23 162.706 225.375 153.958 232.679 145.5C240.741 136.102 248.801 127.037 255.434 114.642C256.55 112.551 257.537 110.531 258.436 108.485C259.426 106.163 260.096 104.238 260.652 102.391C261.762 98.7042 262.347 95.5628 262.692 92.7751C263.358 87.2233 263.077 82.9632 262.721 79.2689C262.339 75.5983 261.825 72.525 261.393 70.3347C260.974 68.1522 260.521 66.8737 260.521 66.8737C252.825 74.8359 247.549 81.6951 241.315 88.0408C238.263 91.232 235.24 94.279 232.123 97.1087C228.888 100.187 225.499 103.732 222.196 107.798C215.56 115.933 213.242 124.726 212.176 132.869C211.16 140.991 211.385 148.495 211.026 152.97C210.691 156.905 210.143 163.468 209.297 169.06C208.931 171.727 208.53 174.155 208.208 175.989C199.886 180.189 191.715 184.698 183.742 189.569C177.167 193.53 170.765 197.796 164.491 202.247C171.134 171.533 186.18 157.89 197.845 132.801C206.044 115.333 207.058 103.012 205.994 94.638C204.957 86.3194 201.675 82.1195 201.675 82.1195C191.477 101.958 177.107 109.009 163.899 128.926C150.844 148.904 157.152 170.82 158.605 180.098C159.58 186.113 161.725 197.56 162.831 203.408C150.074 212.586 138.04 222.772 126.939 233.915C125.372 220.737 128.351 209.211 131.735 198.398C135.599 185.752 141.052 173.207 141.694 155.739C142.538 134.467 136.895 121.543 131.57 114.605C126.19 107.591 121.068 106.04 121.068 106.04C122.418 117.5 120.448 126.662 117.666 135.675C116.191 140.127 114.588 144.966 113.084 149.504C111.466 154.356 110.109 159.625 108.576 164.401C105.477 175.038 105.957 185.534 107.919 194.838C109.847 204.102 113.352 211.708 115.18 216.191C116.773 220.231 119.748 226.59 122.567 231.552C123.46 233.143 124.322 234.57 125.1 235.807C116.851 244.246 109.084 253.162 102.033 262.66C99.023 266.742 96.136 270.918 93.362 275.17C93.831 266.343 93.706 258.533 93.556 251.207C93.25 241.524 92.894 232.681 92.226 224.027C91.581 215.421 90.683 206.796 89.171 198.249C87.801 190.135 86.29 181.497 83.469 171.879C79.726 159.085 74.466 148.896 68.729 141.646C63.013 134.355 57.015 130.066 52.127 127.786C47.126 125.538 43.312 125.135 40.7348 125.266C38.2044 125.366 36.9654 125.871 36.9654 125.871C47.323 135.073 50.707 146.289 52.376 157.055C54.047 168.04 53.903 179.264 55.881 193.842C58.068 209.08 63.597 219.605 68.679 229.102C73.826 238.438 79.026 246.206 81.52 251.354C83.775 255.879 87.256 263.527 89.428 270.664C90.282 273.354 90.958 275.946 91.469 278.131C84.957 288.435 79.191 299.219 74.458 310.478C72.328 315.5 70.377 320.591 68.601 325.742C68.598 325.362 68.598 324.979 68.595 324.602C68.457 316.813 68.001 309.369 66.935 301.934C65.965 294.454 64.514 286.918 62.117 279.022C59.747 271.104 56.52 262.788 51.42 253.998C46.406 245.218 39.4722 237.665 32.4075 232.27C25.2119 226.752 17.8931 223.118 11.0589 220.624C-2.6854 215.688 -14.2425 215.248 -21.0348 214.889C-27.125 214.506 -36.8589 214.742 -44.3847 216.196C-52.0152 217.53 -57 219.893 -57 219.893C-46.3126 218.895 -35.2087 221.803 -25.9751 225.864C-16.6131 229.985 -8.5059 235.317 -1.3914 241.293C13.1309 253.374 22.485 266.904 32.9707 285.54C46.644 310.291 53.19 325.181 58.269 335.035C60.213 339.067 61.882 342.25 63.147 344.64C61.693 350.972 60.58 357.418 59.93 364.007L59.928 364.025C59.791 365.524 60.894 366.85 62.393 366.989C63.891 367.125 65.216 366.022 65.352 364.523L65.376 364.279C65.824 359.377 66.578 354.462 67.55 349.563C68.037 349.23 68.54 348.887 68.994 348.578C70.041 348.106 71.029 347.661 71.964 347.242C73.874 346.327 75.925 345.567 78.112 344.991C80.26 344.394 82.259 343.718 84.461 343.346C93.022 341.551 101.391 340.993 109.629 340.843C126.145 340.547 142.265 341.899 161.958 340.45C188.213 338.567 203.901 331.925 212.469 325.888C221.087 319.7 222.824 314.463 222.824 314.463C193.717 319.472 176.331 310.423 145.474 309.107C114.399 307.538 91.385 324.505 82.138 331.535C78.452 334.147 73.059 338.577 69.02 342.877C71.527 332.512 75.01 322.275 79.123 312.458C80.001 310.328 80.92 308.214 81.871 306.113C85.787 302.065 90.837 299.088 96.291 297.377C104.631 294.6 113.388 294.024 122.048 294.44C130.881 294.799 139.072 296.212 149.537 297.176C158.776 297.949 168.255 298.936 179.082 299.51C207.896 301.321 226.866 296.673 236.961 291.152C242.088 288.425 245.187 285.7 247.01 283.651C248.833 281.626 249.406 280.337 249.406 280.337C233.292 282.365 220.461 279.787 207.788 276.525C195.045 273.229 182.314 268.845 164.827 266.38C160.457 265.775 156.138 265.502 151.989 265.542C149.794 265.56 148.109 265.602 146.383 265.707C144.507 265.788 142.679 265.911 140.772 266.087C133.202 266.749 125.833 268.303 119.403 270.462C106.36 274.843 97.407 281.702 92.618 285.917C92.472 286.038 92.309 286.187 92.157 286.316C96.351 279.139 100.914 272.173 105.8 265.45C110.583 258.916 115.725 252.662 121.108 246.615C136.442 242.014 151.009 243.282 164.311 245.519C180.174 248.202 195.27 252.934 215.521 254.459C227.141 255.337 238.169 255.669 246.962 254.286C255.842 252.986 262.679 250.343 267.324 247.317C271.997 244.267 274.422 241.128 275.572 238.823C276.722 236.52 276.819 235.204 276.819 235.204C270.54 237.565 264.133 237.638 258.31 236.829C252.445 236.017 247.007 234.366 241.559 232.461C236.094 230.551 230.641 228.335 224.38 226.281C221.328 225.241 217.59 224.342 214.539 223.464C211.437 222.605 208.058 221.724 204.443 220.91C190.013 217.564 176.185 218.552 164.79 221.421C153.374 224.232 144.68 228.927 139.546 231.531C137.063 232.715 133.867 234.487 130.611 236.475C143.067 223.87 156.777 212.489 171.381 202.378C177.083 199.431 184.42 198.833 191.16 199.813C199.322 201.055 206.898 203.919 214.125 207.516C217.748 209.277 221.315 211.271 225.022 213.312L230.968 216.521C232.969 217.53 234.96 218.531 236.92 219.513C244.856 223.446 253.488 227.426 263.795 230.606C277.482 234.874 289.945 235.749 299.766 234.397C309.662 233.072 316.753 229.456 321.258 226.11C323.508 224.266 325.18 222.555 326.427 221.035C327.634 219.374 328.425 217.928 328.962 216.749C330.026 214.388 330.112 213.05 330.112 213.05C316.779 218.822 304.633 216.613 294.21 212.484C283.554 208.263 273.875 202.061 260.479 195.234C253.839 191.814 246.787 189.286 240.561 187.738C234.405 186.09 227.463 184.814 221.334 184.507C210.332 183.85 201.206 185.718 195.288 187.295C208.42 179.744 222.044 173.073 236.011 167.157C247.976 167.86 257.577 173.309 265.943 179.503C275.808 186.847 286.417 196.494 302.231 202.562C312.75 206.623 322.005 207.637 329.279 207.139C336.587 206.646 341.997 204.71 345.881 202.596C349.36 200.657 351.602 198.595 353.093 196.884C354.958 197.591 356.804 198.142 358.607 198.503C365.538 199.981 371.269 198.941 375.057 197.133C378.897 195.344 381.032 192.959 382.258 191.154C383.478 189.354 383.84 188.141 383.84 188.141C374.826 188.419 368.812 183.331 364.909 177.567C360.92 171.742 357.968 164.582 352.304 156.9C347.511 149.729 339.115 144.52 331.131 142.223C327.456 141.096 323.899 140.543 320.7 140.266C329.651 138.246 338.649 136.43 347.686 134.803C357.656 137.564 364.383 144.057 370.151 150.955C376.668 158.585 382.583 167.668 394.475 175.169C402.381 180.04 410.074 182.105 416.251 182.057C422.401 182.298 427.129 180.454 430.44 178.706C437.128 174.669 438.906 169.94 438.906 169.94C430.283 169.395 424.114 165.365 419.281 160.513C414.383 155.538 410.917 149.666 405.618 143.514C400.384 137.344 392.971 134.043 385.43 132.353C380.374 131.206 375.489 130.962 371.594 130.925C373.669 130.624 375.738 130.31 377.815 130.027C387.827 129.555 396.77 130.54 405.393 131.986C419.035 134.287 431.952 137.834 448.279 139.218C469.942 141.107 484.582 136.757 492.626 130.849C496.608 127.923 498.756 124.876 499.458 122.525C500.196 120.262 499.966 119.059 499.966 119.059ZM328.221 185.094C320.554 180.354 313.769 174.59 304.934 168.41C300.515 165.3 295.986 163.07 291.334 161.417C286.613 159.714 281.621 158.569 276.853 158.016C270.265 157.217 264.319 157.628 259.69 158.21C259.824 158.063 259.963 157.898 260.097 157.752C268.466 154.754 276.913 151.977 285.411 149.404C289.06 148.319 292.725 147.3 296.394 146.299C299.216 146.965 302.005 148.243 304.42 149.855C308.708 152.682 312.198 156.4 315.346 160.377C318.513 164.378 321.326 168.669 324.669 173.212C326.4 175.52 328.106 177.789 330.46 180.344C332.76 182.846 334.741 184.795 337.339 187.088C339.293 188.812 341.323 190.355 343.385 191.746C337.745 190.29 332.808 187.905 328.221 185.094Z" fill="#BFD8BD"/>
<path opacity="0.4" d="M237 159.838C234.669 159.266 232.613 157.465 231.063 155.677C229.466 153.879 228.196 151.898 226.984 149.861C224.564 145.763 222.395 141.337 218.645 136.431C211.135 126.533 199.452 125.079 194.782 124.118C192.652 123.687 189.245 123.039 186.334 122.614C185.67 122.519 185.04 122.427 184.452 122.343C190.533 121.22 195.514 122.042 200.197 123.315C205.36 124.69 210.226 126.761 217.205 127.281C221.873 127.596 226.145 126.685 229.215 125.068C232.322 123.509 234.154 121.307 235.066 119.49C236.036 117.713 236.083 116.038 236.075 115.038C236.033 113.996 235.827 113.426 235.827 113.426C232.32 116.301 228.411 116.337 225.068 115.414C221.632 114.484 218.468 112.731 213.999 111.35C209.538 109.943 205.036 110.515 201.26 111.812C197.466 113.101 194.471 115.096 192.673 116.114C191.058 117.038 188.511 118.621 186.444 120.052C185.299 120.868 184.28 121.595 183.6 122.078C177.46 118.361 171.198 114.844 164.817 111.558C169.361 110.686 173.224 110.838 177.081 111.148C181.891 111.51 186.838 112.13 192.762 110.655C200.716 108.523 204.189 103.78 205.188 100.451C206.222 97.0102 205.378 94.7186 205.378 94.7186C202.263 97.1047 198.934 97.5246 195.728 97.3671C192.48 97.2018 189.318 96.4773 185.552 96.3119C181.803 96.1335 178.677 97.6822 175.928 99.6535C173.2 101.604 170.958 103.964 169.542 105.179C167.997 106.526 165.11 109.04 163.181 110.723C162.079 110.164 160.971 109.61 159.86 109.066C158.488 108.103 156.745 107.074 155.201 106.507C154.474 106.266 153.834 106.077 153.28 105.961C151.955 105.357 150.633 104.749 149.295 104.168C146.303 102.887 143.277 101.677 140.235 100.509C144.121 100.129 147.338 100.155 150.568 100.378C152.878 100.522 155.146 100.727 157.474 100.801C159.87 100.84 161.99 100.898 165.063 100.312C168.742 99.5459 170.861 98.4303 172.518 97.312C174.13 96.1938 175.236 95.0047 176.271 93.8944C177.219 92.8575 178.165 91.8207 178.873 91.0437C179.547 90.3061 179.926 89.7995 179.926 89.7995C175.808 88.8046 172.531 88.3216 169.079 87.5105C167.425 87.1641 165.622 86.7834 163.942 86.4291C163.059 86.2611 162.209 86.0983 161.431 85.9513C160.649 85.7938 159.852 85.639 158.778 85.5733C154.798 85.2636 151.736 86.912 149.188 88.9122C146.658 90.9151 144.607 93.2801 143.243 94.4981C142.044 95.5848 140.026 97.3619 138.145 98.782C137.865 98.9946 137.593 99.1967 137.324 99.3936C129.461 96.4878 121.436 94.0151 113.273 92.1042C119.9 89.9727 125.191 88.9175 130.454 88.0171C136.282 87.0013 142.007 86.1062 148.218 83.5443C149.266 83.1112 150.244 82.6649 151.195 82.1819C152.266 81.6254 153.097 81.1162 153.863 80.6017C155.394 79.5754 156.562 78.591 157.537 77.667C159.468 75.8138 160.662 74.1523 161.653 72.677C162.627 71.2018 163.372 69.9077 163.879 68.9654C164.389 68.0309 164.608 67.4193 164.608 67.4193C159.353 68.0152 155.324 68.9444 151.098 69.3906C149.002 69.64 146.964 69.8447 144.955 69.9392C142.828 70.0915 140.499 70.3671 138.048 70.8658C133.13 71.8502 129.605 74.3964 126.736 77.0869C123.893 79.7828 121.695 82.6308 120.203 84.1769C118.883 85.5313 116.686 87.794 114.676 89.6052C113.73 90.4793 112.844 91.2563 112.168 91.8391C107.825 90.8521 103.442 90.0278 99.023 89.3952C95.396 88.8545 91.741 88.4792 88.074 88.2088C99.857 78.8693 109.549 78.4125 121.47 72.6876C129.801 68.7265 133.919 64.4741 136.073 61.0486C138.218 57.6546 138.286 55.0953 138.286 55.0953C128.5 59.324 121.06 57.5469 110.14 60.8859C99.256 64.293 94.921 74.3307 92.637 78.2104C91.168 80.7356 88.479 85.6258 87.11 88.13C79.621 87.6313 72.087 87.7284 64.611 88.4634C68.039 83.1059 72.639 79.7512 77.172 76.7824C82.44 73.2808 88.263 70.3041 93.808 64.0331C100.583 56.4156 102.431 49.911 102.577 45.7164C102.726 41.4771 101.31 39.3404 101.31 39.3404C98.326 43.9944 94.814 46.7847 91.051 49.2705C89.154 50.4675 87.094 51.7695 85.161 52.9901C83.088 54.292 80.988 55.8276 78.973 57.1269C74.598 60.1194 71.585 64.1486 69.479 68.191C67.376 72.2098 66.354 76.0947 65.667 78.3128C65.026 80.2946 64.19 83.5574 63.72 86.2532C63.566 87.1142 63.451 87.9069 63.359 88.6025C57.754 89.2063 52.183 90.1355 46.698 91.4978C44.349 92.0884 42.015 92.7525 39.7 93.4823C42.556 90.3586 44.882 87.4292 47.053 84.673C49.883 80.9954 52.439 77.6119 54.825 74.2074C57.203 70.8238 59.492 67.3589 61.533 63.7339C63.495 60.311 65.562 56.6545 67.446 52.2314C69.955 46.3542 71.112 40.9757 71.201 36.5396C71.311 32.0956 70.404 28.6779 69.294 26.3391C68.133 23.9793 66.85 22.6668 65.86 21.9266C64.896 21.1916 64.287 21 64.287 21C65.309 27.5676 63.148 32.7518 60.49 37.2483C57.767 41.8262 54.302 45.9342 50.602 51.9348C46.776 58.2425 45.616 63.8258 44.605 68.8945C43.664 73.9213 43.22 78.3837 42.574 81.0506C42.031 83.4157 40.988 87.3084 39.621 90.6106C39.12 91.8679 38.581 93.0334 38.103 93.9967C32.571 95.8237 27.17 98.0549 22.004 100.774C19.691 101.982 17.425 103.271 15.207 104.636C15.322 104.494 15.437 104.352 15.552 104.213C17.867 101.289 19.963 98.3935 21.829 95.3145C23.744 92.2512 25.5 89.0172 27.016 85.3633C28.547 81.7094 29.885 77.646 30.677 72.8345C31.497 68.0545 31.239 63.1407 30.272 58.988C29.297 54.7487 27.706 51.1683 25.942 48.1602C22.377 42.1359 18.251 38.4453 15.858 36.2377C13.728 34.2375 10.069 31.3501 6.85502 29.5914C3.63802 27.754 1.08302 27.1082 1.08302 27.1082C5.32402 30.0009 8.53301 34.4685 10.702 38.7918C12.899 43.1754 14.266 47.6247 15.074 52.0083C16.754 60.9147 16.09 68.779 14.292 78.8771C11.81 92.2144 9.69601 99.7243 8.57501 104.922C8.06501 107.008 7.71202 108.696 7.45402 109.967C4.99502 111.867 2.62502 113.912 0.383021 116.154L0.377016 116.159C-0.129984 116.671 -0.12398 117.5 0.38502 118.01C0.89502 118.519 1.72002 118.514 2.22502 118.002L2.30602 117.918C3.96002 116.24 5.73202 114.652 7.57902 113.135C7.85902 113.161 8.14902 113.188 8.41002 113.211C8.94102 113.356 9.44002 113.495 9.91302 113.623C10.895 113.867 11.88 114.214 12.863 114.668C13.835 115.101 14.778 115.464 15.703 115.999C19.404 117.949 22.657 120.299 25.738 122.758C31.913 127.69 37.445 133.113 45.143 138.592C55.392 145.91 63.192 148.244 68.186 148.624C73.242 148.965 75.474 147.556 75.474 147.556C63.223 140.521 59.568 131.864 48.592 121.955C37.617 111.886 23.979 111.138 18.434 110.917C16.281 110.757 12.947 110.752 10.153 111.109C14.227 108.038 18.622 105.313 23.122 102.935C24.094 102.415 25.074 101.911 26.064 101.425C28.738 101.123 31.502 101.562 34.035 102.596C37.952 104.116 41.354 106.575 44.419 109.374C47.565 112.203 50.155 115.227 53.719 118.781C56.889 121.889 60.082 125.149 63.898 128.667C73.966 138.135 82.372 142.206 87.769 143.246C90.486 143.802 92.457 143.739 93.753 143.537C95.038 143.345 95.642 143.041 95.642 143.041C89.086 138.87 85.142 133.998 81.463 128.921C77.768 123.811 74.408 118.301 68.714 112.048C67.287 110.489 65.779 109.072 64.237 107.817C63.422 107.153 62.79 106.654 62.121 106.166C61.405 105.623 60.694 105.111 59.939 104.594C56.947 102.528 53.759 100.853 50.733 99.6876C44.594 97.3278 39.211 97.1336 36.164 97.2307C36.073 97.2307 35.968 97.2359 35.874 97.2385C39.601 95.8631 43.4 94.6766 47.244 93.6791C50.991 92.721 54.788 91.9756 58.609 91.3823C65.659 94.3616 70.642 99.2781 74.865 104.168C79.895 110.004 84.021 116.366 91.022 123.115C95.038 126.99 99 130.478 102.664 132.651C106.33 134.88 109.654 135.99 112.285 136.29C114.935 136.589 116.782 136.166 117.906 135.665C119.03 135.164 119.466 134.707 119.466 134.707C116.435 133.662 114.052 131.735 112.152 129.656C110.236 127.564 108.734 125.294 107.304 122.924C105.87 120.548 104.535 118.062 102.852 115.39C102.044 114.072 100.939 112.6 100.082 111.342C99.201 110.077 98.221 108.72 97.137 107.316C92.836 101.672 87.439 97.8134 82.367 95.3958C77.306 92.952 72.675 92.0333 69.991 91.4295C68.716 91.1093 66.999 90.7891 65.196 90.5318C73.618 89.6709 82.129 89.642 90.586 90.3612C93.583 91.0122 96.468 93.0308 98.655 95.451C101.286 98.404 103.207 101.777 104.778 105.315C105.577 107.074 106.285 108.901 107.033 110.788L108.248 113.791C108.679 114.776 109.11 115.755 109.531 116.715C111.261 120.595 113.231 124.703 116.064 129.026C119.811 134.786 124.138 138.915 128.168 141.414C132.218 143.944 135.931 144.771 138.607 144.91C139.998 144.915 141.132 144.792 142.054 144.611C143.003 144.364 143.734 144.07 144.291 143.797C145.401 143.248 145.838 142.778 145.838 142.778C139.169 140.844 135.364 136.319 132.777 131.607C130.133 126.79 128.45 121.54 125.589 114.923C124.18 111.628 122.351 108.542 120.527 106.066C118.761 103.575 116.589 100.984 114.423 98.9999C110.568 95.3958 106.636 93.3012 103.975 92.0806C111.109 93.2959 118.157 94.9864 125.103 97.06C129.299 100.974 131.181 105.922 132.383 110.77C133.786 116.5 134.766 123.312 138.748 130.384C141.393 135.098 144.495 138.3 147.325 140.337C150.168 142.387 152.75 143.322 154.824 143.723C156.696 144.067 158.148 143.991 159.217 143.81C159.69 144.642 160.202 145.409 160.756 146.094C162.86 148.758 165.29 150.12 167.234 150.609C169.194 151.118 170.705 150.887 171.705 150.596C172.701 150.302 173.205 149.963 173.205 149.963C169.798 147.314 169.129 143.592 169.442 140.269C169.743 136.896 170.83 133.344 171.078 128.772C171.491 124.653 169.978 120.162 167.736 116.873C166.725 115.335 165.58 114.043 164.488 112.965C168.4 114.949 172.27 117.025 176.093 119.183C178.928 123.249 179.435 127.706 179.464 132.022C179.547 136.836 178.967 142.004 181.068 148.412C182.503 152.627 184.708 155.743 187 157.609C189.193 159.575 191.497 160.337 193.248 160.702C196.941 161.25 199.031 160.043 199.031 160.043C196.018 157.208 194.97 153.832 194.664 150.561C194.372 147.225 194.879 143.994 194.795 140.098C194.74 136.216 193.013 132.73 190.747 129.803C189.232 127.835 187.507 126.252 186.083 125.05C186.937 125.572 187.797 126.087 188.649 126.617C192.482 129.499 195.48 132.594 198.218 135.762C202.548 140.778 206.228 146.036 211.825 151.533C219.236 158.846 225.952 161.707 230.713 161.977C233.07 162.111 234.787 161.639 235.761 160.982C236.72 160.352 237 159.838 237 159.838ZM153.636 131.838C152.251 127.743 151.501 123.538 150.123 118.55C149.439 116.049 148.448 113.841 147.236 111.81C146.013 109.739 144.521 107.788 142.932 106.129C140.747 103.822 138.43 102.158 136.548 100.961C136.642 100.948 136.744 100.929 136.836 100.916C140.831 102.362 144.787 103.914 148.702 105.557C150.374 106.271 152.036 107.011 153.693 107.762C154.532 108.87 155.169 110.195 155.572 111.529C156.293 113.883 156.45 116.327 156.4 118.758C156.351 121.207 156.084 123.653 155.935 126.354C155.872 127.738 155.81 129.097 155.901 130.764C155.987 132.392 156.126 133.717 156.387 135.36C156.583 136.594 156.863 137.786 157.2 138.93C155.567 136.67 154.472 134.279 153.636 131.838Z" fill="#98C9A3"/>
</g>
<defs>
<clipPath id="clip0_3307_2">
<rect width="557" height="367" fill="white"/>
</clipPath>
</defs>
</svg>
