<svg width="46" height="45" viewBox="0 0 46 45" fill="none" xmlns="http://www.w3.org/2000/svg">
<path d="M32.5229 0.855469V6.32912H38.0547L32.5229 0.855469Z" fill="#3CA3DD"/>
<path d="M19.9333 13.6272C18.6063 13.6189 18.4985 15.7586 19.9333 15.7834C21.3348 15.8083 21.2851 13.6023 19.9333 13.6272Z" fill="#3CA3DD"/>
<path d="M30.4246 13.627C29.106 13.6105 28.9484 15.7419 30.4246 15.7833C31.8179 15.8165 31.8179 13.6105 30.4246 13.627Z" fill="#3CA3DD"/>
<path d="M31.4282 6.9096V0.191944C-4.00122 0.324639 8.43061 -5.77931 6.25773 41.4931C6.25773 43.3177 7.76713 44.8105 9.61656 44.8105C50.1133 44.5368 36.5038 50.9559 38.8094 7.49014C38.3449 7.26622 31.2126 8.06239 31.4282 6.9096ZM11.043 4.25571C11.3831 4.46305 19.1706 3.72494 18.8471 4.75332C19.212 5.77341 11.267 5.04359 10.9601 5.25092C10.2966 5.20946 10.3049 4.24742 11.043 4.25571ZM11.043 7.40721C11.3831 7.61454 19.1706 6.87643 18.8471 7.90481C19.212 8.9249 11.267 8.19508 10.9601 8.40242C10.2966 8.36095 10.3049 7.39892 11.043 7.40721ZM35.6247 39.0051C35.5749 40.274 10.5537 39.1295 9.9483 39.5027C9.30971 39.4861 9.30141 38.5241 9.9483 38.5075H12.5524C12.7349 38.0514 12.0714 34.2696 13.0583 34.3608C14.0452 34.2613 13.3818 38.0679 13.5642 38.5075H15.6625C15.903 38.1758 15.0819 27.7758 16.1684 28.1407C17.2465 27.7344 16.4337 38.2255 16.6743 38.5075H18.7725C18.9798 38.1343 18.2417 31.0103 19.2784 31.2922C20.3068 30.9854 19.5769 38.1675 19.7843 38.5075H21.8825C22.0981 38.2255 21.3434 28.7627 22.3884 29.2189C23.4251 28.7296 22.6787 38.2587 22.8943 38.5075H24.9925C25.1916 38.0597 24.4866 33.2329 25.4984 33.3656C26.5102 33.2163 25.8053 38.0845 26.0043 38.5075H28.1026C28.3099 38.1343 27.5718 31.0103 28.6085 31.2922C29.6369 30.9854 28.907 38.1675 29.1144 38.5075H31.1794C31.4199 38.2587 30.5989 24.5331 31.6853 25.0722C32.7635 24.4833 31.9507 38.3167 32.1912 38.5075C32.6474 38.6734 35.6745 38.0679 35.6247 39.0051ZM31.8512 16.1153C31.196 16.7954 30.0515 16.8534 29.2471 16.447L26.9 18.7692C28.6831 22.833 21.3932 22.7915 23.2095 18.7692L20.8624 16.447C20.2736 16.7539 19.436 16.8036 18.8471 16.447L16.5001 18.7692C17.7773 20.8757 14.7916 22.8578 13.1413 21.2572C11.3333 19.4907 13.7301 16.8866 15.7454 18.0228L18.0924 15.7006C16.2098 11.753 23.6158 11.7861 21.783 15.7006L24.13 18.0228C24.7603 17.691 25.6809 17.691 26.3112 18.0228L28.6582 15.7006C26.8669 10.9485 35.1686 12.2506 31.8512 16.1153Z" fill="#3CA3DD"/>
<path d="M25.1339 18.7691C23.8152 18.7526 23.6576 20.884 25.1339 20.9254C26.5023 20.9503 26.5686 18.7774 25.1339 18.7691Z" fill="#3CA3DD"/>
<path d="M14.651 18.7691C13.3241 18.7608 13.2163 20.9005 14.651 20.9254C16.0028 20.9419 16.0692 18.7857 14.651 18.7691Z" fill="#3CA3DD"/>
<path d="M44.0183 18.769C42.6085 18.769 42.6085 20.9336 44.0183 20.9253C45.4199 20.9253 45.4199 18.769 44.0183 18.769Z" fill="#3CA3DD"/>
<path d="M1.05741 33.2827C-0.35247 33.2827 -0.35247 35.439 1.05741 35.439C2.48388 35.4473 2.40924 33.291 1.05741 33.2827Z" fill="#3CA3DD"/>
</svg>
