<svg width="42" height="43" viewBox="0 0 42 43" fill="none" xmlns="http://www.w3.org/2000/svg">
<g id="Group 536">
<path id="Path 772" d="M4.28289 25.7047C4.28774 25.9665 4.39393 26.2163 4.57915 26.4016C4.76436 26.5868 5.01416 26.693 5.27605 26.6978C5.40185 26.6939 5.52563 26.6651 5.64014 26.6128C5.75466 26.5606 5.85763 26.4861 5.94304 26.3936C6.02845 26.3012 6.09458 26.1926 6.13759 26.0743C6.18059 25.956 6.1996 25.8304 6.19351 25.7047C6.18942 25.4422 6.08344 25.1916 5.89796 25.0058C5.71249 24.8201 5.46205 24.7137 5.19959 24.7092C5.07382 24.7131 4.95008 24.742 4.8356 24.7942C4.72112 24.8465 4.6182 24.921 4.53286 25.0135C4.44751 25.1059 4.38144 25.2145 4.33852 25.3328C4.29561 25.4511 4.27669 25.5767 4.28289 25.7024" fill="#3CA3DD"/>
<path id="Path 773" d="M27.6626 35.7134C27.466 35.7132 27.2737 35.7714 27.1102 35.8806C26.9466 35.9897 26.8191 36.1449 26.7438 36.3266C26.6685 36.5082 26.6487 36.7081 26.687 36.901C26.7254 37.0939 26.82 37.2711 26.9591 37.4101C27.0981 37.5492 27.2753 37.6438 27.4682 37.6822C27.661 37.7205 27.8609 37.7007 28.0426 37.6254C28.2242 37.5501 28.3795 37.4226 28.4886 37.259C28.5978 37.0955 28.656 36.9032 28.6558 36.7065C28.651 36.4447 28.5448 36.1949 28.3595 36.0096C28.1743 35.8244 27.9245 35.7182 27.6626 35.7134Z" fill="#3CA3DD"/>
<path id="Path 774" d="M7.64612 35.2544C7.45543 35.2543 7.26658 35.2918 7.09039 35.3647C6.91419 35.4376 6.75409 35.5446 6.61925 35.6794C6.48441 35.8143 6.37747 35.9744 6.30454 36.1506C6.23161 36.3268 6.19413 36.5156 6.19423 36.7063C6.18981 36.8997 6.22409 37.092 6.29505 37.272C6.36601 37.452 6.47222 37.6159 6.60744 37.7543C6.74267 37.8926 6.90417 38.0026 7.08248 38.0776C7.26078 38.1527 7.45229 38.1913 7.64574 38.1913C7.8392 38.1913 8.0307 38.1527 8.209 38.0776C8.38731 38.0026 8.54881 37.8926 8.68403 37.7543C8.81926 37.6159 8.92547 37.452 8.99643 37.272C9.06739 37.092 9.10167 36.8997 9.09725 36.7063C9.09745 36.5156 9.06006 36.3268 8.98721 36.1506C8.91437 35.9744 8.8075 35.8143 8.67272 35.6795C8.53794 35.5446 8.37789 35.4377 8.20174 35.3647C8.02558 35.2918 7.83678 35.2543 7.64612 35.2544Z" fill="#3CA3DD"/>
<path id="Path 775" d="M40.4987 35.9433C40.4558 35.9038 40.4289 35.85 40.423 35.7919C40.2061 35.0923 39.8322 34.4515 39.3299 33.9184C38.8275 33.3853 38.21 32.9741 37.5245 32.7161C36.839 32.4581 36.1035 32.3601 35.3744 32.4297C34.6452 32.4993 33.9416 32.7345 33.3172 33.1175C33.259 33.1579 33.1921 33.1842 33.1219 33.1941C33.0517 33.2041 32.9802 33.1975 32.913 33.1748C32.8458 33.1521 32.7849 33.1141 32.7351 33.0636C32.6853 33.0132 32.6479 32.9518 32.6261 32.8844C32.3374 32.202 31.8936 31.5963 31.3301 31.1154C30.7665 30.6344 30.0986 30.2913 29.3794 30.1134C28.6602 29.9354 27.9094 29.9275 27.1866 30.0903C26.4638 30.253 25.7888 30.5819 25.2152 31.051C24.9881 31.2781 24.6044 31.1267 24.4514 30.8239C23.9887 29.6941 23.2535 28.6965 22.3115 27.9201V22.7249L37.2899 7.75257C37.381 7.66132 37.4322 7.5376 37.4321 7.40863C37.432 7.27966 37.3807 7.156 37.2895 7.06485C37.1982 6.9737 37.0745 6.92254 36.9455 6.92261C36.8166 6.92268 36.6929 6.97398 36.6018 7.06523L21.7028 21.9604L6.95608 7.21435C6.86483 7.12321 6.74111 7.07204 6.61214 7.07211C6.48317 7.07218 6.3595 7.12348 6.26836 7.21473C6.17721 7.30598 6.12604 7.4297 6.12611 7.55867C6.12619 7.68764 6.17749 7.8113 6.26874 7.90245L21.2441 22.8771V27.4621C20.3757 27.0021 19.416 26.7405 18.4342 26.6963C17.4524 26.6521 16.4731 26.8263 15.5668 27.2064C14.6605 27.5865 13.8499 28.163 13.1934 28.8943C12.5369 29.6257 12.0509 30.4936 11.7705 31.4355C11.7103 31.5703 11.6025 31.6781 11.4677 31.7383C11.4117 31.7759 11.3459 31.796 11.2784 31.796C11.211 31.796 11.1451 31.7759 11.0892 31.7383C10.4606 31.3567 9.75179 31.1268 9.0189 31.0668C8.286 31.0068 7.54921 31.1184 6.86695 31.3927C6.18469 31.667 5.57572 32.0965 5.08833 32.6471C4.60095 33.1977 4.24856 33.8543 4.05911 34.5649C3.98341 34.792 3.83201 34.8677 3.60492 34.9434C2.63481 35.016 1.72699 35.449 1.05993 36.1571C0.392868 36.8652 0.0148404 37.7972 0.000168826 38.7699C-0.00458235 39.2729 0.0909932 39.7719 0.281308 40.2375C0.471623 40.7032 0.752859 41.1263 1.10857 41.482C1.46429 41.8377 1.88735 42.1189 2.35302 42.3093C2.81868 42.4996 3.31762 42.5951 3.82066 42.5904H37.7478C38.2509 42.5951 38.7498 42.4996 39.2155 42.3093C39.6811 42.1189 40.1042 41.8377 40.4599 41.482C40.8156 41.1263 41.0969 40.7032 41.2872 40.2375C41.4775 39.7719 41.5731 39.2729 41.5683 38.7699C41.5893 37.7251 41.2061 36.7125 40.4987 35.9433ZM7.64569 39.0757C7.17719 39.0759 6.71917 38.9371 6.32956 38.6769C5.93994 38.4167 5.63624 38.0469 5.45685 37.6141C5.27746 37.1813 5.23044 36.705 5.32175 36.2455C5.41306 35.786 5.63859 35.3639 5.96981 35.0325C6.30103 34.7012 6.72308 34.4755 7.18256 34.3841C7.64204 34.2926 8.11833 34.3395 8.55118 34.5188C8.98403 34.698 9.35399 35.0016 9.61429 35.3911C9.87459 35.7807 10.0135 36.2386 10.0135 36.7071C10.0103 37.3342 9.75988 37.9347 9.31653 38.3782C8.87318 38.8217 8.27277 39.0723 7.64569 39.0757ZM15.2851 39.5299C14.9002 39.5299 14.531 39.377 14.2588 39.1049C13.9865 38.8328 13.8335 38.4637 13.8333 38.0788C13.8333 37.6937 13.9862 37.3244 14.2585 37.0521C14.5308 36.7799 14.9001 36.6269 15.2851 36.6269C15.6702 36.6269 16.0395 36.7799 16.3118 37.0521C16.5841 37.3244 16.737 37.6937 16.737 38.0788C16.7371 38.2694 16.6996 38.4582 16.6267 38.6344C16.5538 38.8106 16.4468 38.9706 16.312 39.1054C16.1771 39.2402 16.017 39.347 15.8408 39.4199C15.6646 39.4927 15.4758 39.5301 15.2851 39.5299ZM18.877 33.8003C18.7409 33.8005 18.6078 33.7602 18.4945 33.6847C18.3813 33.6092 18.293 33.5018 18.2408 33.3761C18.1886 33.2503 18.1748 33.112 18.2013 32.9784C18.2278 32.8449 18.2932 32.7222 18.3894 32.6259C18.4856 32.5296 18.6083 32.464 18.7418 32.4374C18.8752 32.4108 19.0136 32.4244 19.1394 32.4764C19.2652 32.5285 19.3727 32.6167 19.4483 32.7299C19.524 32.843 19.5644 32.9761 19.5644 33.1122C19.5647 33.2026 19.5471 33.2922 19.5127 33.3757C19.4782 33.4593 19.4276 33.5352 19.3638 33.5992C19.2999 33.6631 19.224 33.7138 19.1405 33.7483C19.0569 33.7829 18.9674 33.8005 18.877 33.8003ZM27.6633 38.6132C27.2856 38.6132 26.9163 38.5012 26.6023 38.2913C26.2882 38.0815 26.0434 37.7832 25.8988 37.4342C25.7543 37.0852 25.7165 36.7012 25.7901 36.3307C25.8638 35.9603 26.0457 35.62 26.3128 35.3529C26.5799 35.0858 26.9202 34.9039 27.2907 34.8302C27.6612 34.7565 28.0452 34.7943 28.3942 34.9389C28.7432 35.0834 29.0415 35.3282 29.2513 35.6423C29.4612 35.9564 29.5732 36.3256 29.5732 36.7033C29.5755 36.9548 29.5277 37.2042 29.4325 37.437C29.3374 37.6697 29.1968 37.8812 29.019 38.059C28.8412 38.2368 28.6297 38.3774 28.3969 38.4726C28.1642 38.5677 27.9148 38.6155 27.6633 38.6132ZM34.1567 40.9841C34.0208 40.9839 33.888 40.9435 33.775 40.8679C33.6621 40.7923 33.5741 40.6849 33.5222 40.5592C33.4703 40.4336 33.4568 40.2955 33.4834 40.1622C33.51 40.0289 33.5756 39.9065 33.6717 39.8104C33.7679 39.7144 33.8903 39.649 34.0236 39.6225C34.157 39.5961 34.2951 39.6097 34.4207 39.6618C34.5462 39.7138 34.6535 39.8019 34.729 39.9149C34.8045 40.028 34.8448 40.1608 34.8448 40.2967C34.8456 40.3873 34.8284 40.4771 34.7941 40.5609C34.7598 40.6447 34.7091 40.7208 34.645 40.7848C34.581 40.8488 34.5048 40.8994 34.4209 40.9336C34.3371 40.9678 34.2473 40.985 34.1567 40.9841Z" fill="#3CA3DD"/>
<path id="Path 776" d="M15.2851 37.6231C15.1941 37.6222 15.105 37.6483 15.029 37.6982C14.9529 37.748 14.8934 37.8193 14.858 37.9031C14.8226 37.9868 14.8129 38.0792 14.83 38.1685C14.8472 38.2578 14.8906 38.3399 14.9545 38.4045C15.0185 38.4691 15.1002 38.5133 15.1893 38.5314C15.2784 38.5494 15.3709 38.5406 15.455 38.506C15.5391 38.4714 15.611 38.4127 15.6616 38.3371C15.7122 38.2616 15.7392 38.1727 15.7392 38.0818C15.7314 37.9635 15.6811 37.852 15.5977 37.7677C15.5143 37.6835 15.4033 37.6321 15.2851 37.6231Z" fill="#3CA3DD"/>
<path id="Path 777" d="M22.9252 5.68568C23.3937 5.68568 23.8516 5.54676 24.2412 5.2865C24.6307 5.02624 24.9343 4.65631 25.1135 4.22351C25.2928 3.7907 25.3397 3.31446 25.2483 2.85499C25.1569 2.39553 24.9313 1.97349 24.6001 1.64223C24.2688 1.31098 23.8468 1.08539 23.3873 0.994C22.9279 0.902607 22.4516 0.949512 22.0188 1.12879C21.586 1.30806 21.2161 1.61165 20.9558 2.00116C20.6956 2.39068 20.5566 2.84862 20.5566 3.31708C20.5598 3.94429 20.8104 4.54491 21.2539 4.98842C21.6974 5.43193 22.298 5.6825 22.9252 5.68568Z" fill="#3CA3DD"/>
<path id="Path 778" d="M35.8379 23.7949C35.6472 23.7948 35.4584 23.8323 35.2822 23.9053C35.1061 23.9782 34.946 24.0851 34.8113 24.22C34.6765 24.3548 34.5696 24.5149 34.4968 24.6911C34.4239 24.8673 34.3865 25.0562 34.3867 25.2468C34.3867 25.6318 34.5396 26.001 34.8119 26.2732C35.0841 26.5454 35.4533 26.6983 35.8382 26.6983C36.2232 26.6983 36.5924 26.5454 36.8646 26.2732C37.1368 26.001 37.2897 25.6318 37.2897 25.2468C37.2898 25.0561 37.2524 24.8673 37.1794 24.6911C37.1065 24.5149 36.9996 24.3548 36.8647 24.2199C36.7299 24.0851 36.5698 23.9782 36.3936 23.9052C36.2174 23.8323 36.0285 23.7948 35.8379 23.7949Z" fill="#3CA3DD"/>
<path id="Path 779" d="M40.3475 18.0637C40.4834 18.0637 40.6163 18.104 40.7294 18.1796C40.8424 18.2551 40.9305 18.3624 40.9825 18.488C41.0345 18.6136 41.0481 18.7518 41.0216 18.8852C40.9951 19.0185 40.9296 19.141 40.8335 19.2371C40.7374 19.3332 40.6149 19.3987 40.4816 19.4252C40.3483 19.4517 40.2101 19.4381 40.0845 19.3861C39.9589 19.3341 39.8515 19.246 39.776 19.1329C39.7005 19.0199 39.6602 18.887 39.6602 18.7511C39.6602 18.5688 39.7326 18.3939 39.8615 18.265C39.9904 18.1361 40.1652 18.0637 40.3475 18.0637Z" fill="#3CA3DD"/>
<path id="Path 780" d="M28.8856 23.3359C29.0215 23.3359 29.1544 23.3762 29.2674 23.4518C29.3805 23.5273 29.4686 23.6346 29.5206 23.7602C29.5726 23.8858 29.5862 24.024 29.5597 24.1574C29.5332 24.2907 29.4677 24.4132 29.3716 24.5093C29.2755 24.6054 29.153 24.6709 29.0197 24.6974C28.8863 24.7239 28.7481 24.7103 28.6225 24.6583C28.497 24.6063 28.3896 24.5182 28.3141 24.4051C28.2386 24.2921 28.1982 24.1592 28.1982 24.0233C28.1981 23.933 28.2159 23.8436 28.2504 23.7601C28.2849 23.6767 28.3355 23.6009 28.3993 23.537C28.4632 23.4732 28.539 23.4226 28.6224 23.3881C28.7059 23.3535 28.7953 23.3358 28.8856 23.3359Z" fill="#3CA3DD"/>
<path id="Path 781" d="M22.1615 10.7295C22.2974 10.7295 22.4303 10.7698 22.5433 10.8453C22.6564 10.9209 22.7445 11.0282 22.7965 11.1538C22.8485 11.2794 22.8621 11.4176 22.8356 11.5509C22.8091 11.6843 22.7436 11.8067 22.6475 11.9029C22.5514 11.999 22.4289 12.0644 22.2956 12.091C22.1622 12.1175 22.024 12.1039 21.8984 12.0519C21.7728 11.9998 21.6655 11.9117 21.59 11.7987C21.5144 11.6857 21.4741 11.5528 21.4741 11.4168C21.4741 11.2345 21.5465 11.0597 21.6754 10.9308C21.8043 10.8019 21.9792 10.7295 22.1615 10.7295Z" fill="#3CA3DD"/>
<path id="Path 782" d="M15.0555 0.409668C15.1916 0.409519 15.3247 0.449748 15.438 0.525266C15.5513 0.600784 15.6396 0.708197 15.6918 0.833917C15.744 0.959637 15.7577 1.09801 15.7312 1.23154C15.7048 1.36507 15.6393 1.48775 15.5431 1.58405C15.4469 1.68036 15.3243 1.74597 15.1908 1.77258C15.0573 1.7992 14.9189 1.78561 14.7931 1.73356C14.6673 1.6815 14.5598 1.5933 14.4842 1.48013C14.4085 1.36696 14.3682 1.23389 14.3682 1.09777C14.3681 1.00744 14.3858 0.917978 14.4203 0.834499C14.4548 0.75102 14.5054 0.675158 14.5692 0.611253C14.633 0.547347 14.7089 0.49665 14.7923 0.462061C14.8757 0.427471 14.9652 0.409668 15.0555 0.409668Z" fill="#3CA3DD"/>
<path id="Path 783" d="M15.0555 21.8838C15.1914 21.8838 15.3243 21.9241 15.4374 21.9996C15.5504 22.0752 15.6385 22.1825 15.6905 22.3081C15.7425 22.4337 15.7562 22.5719 15.7296 22.7052C15.7031 22.8386 15.6377 22.961 15.5415 23.0572C15.4454 23.1533 15.3229 23.2187 15.1896 23.2453C15.0563 23.2718 14.9181 23.2582 14.7925 23.2061C14.6669 23.1541 14.5595 23.066 14.484 22.953C14.4085 22.84 14.3682 22.7071 14.3682 22.5711C14.3681 22.4808 14.3858 22.3914 14.4203 22.308C14.4548 22.2245 14.5054 22.1487 14.5693 22.0849C14.6331 22.021 14.7089 21.9704 14.7924 21.9359C14.8758 21.9014 14.9652 21.8837 15.0555 21.8838Z" fill="#3CA3DD"/>
<path id="Path 784" d="M2.14388 16.6848C2.27983 16.6848 2.41272 16.7251 2.52575 16.8007C2.63878 16.8762 2.72688 16.9835 2.7789 17.1091C2.83092 17.2347 2.84454 17.3729 2.81801 17.5062C2.79149 17.6396 2.72603 17.7621 2.62991 17.8582C2.53378 17.9543 2.41131 18.0198 2.27798 18.0463C2.14465 18.0728 2.00644 18.0592 1.88085 18.0072C1.75525 17.9552 1.64791 17.8671 1.57238 17.754C1.49685 17.641 1.45654 17.5081 1.45654 17.3722C1.45644 17.2819 1.47415 17.1924 1.50866 17.109C1.54317 17.0256 1.59379 16.9498 1.65764 16.8859C1.72148 16.8221 1.79729 16.7714 1.88073 16.7369C1.96417 16.7024 2.05359 16.6847 2.14388 16.6848Z" fill="#3CA3DD"/>
<path id="Path 785" d="M16.4316 19.3624L14.5217 17.4525L10.0131 17.1497C9.88255 17.1365 9.76208 17.0735 9.67668 16.9739C9.59128 16.8743 9.54749 16.7456 9.55438 16.6145C9.55438 16.3118 9.78147 16.1604 10.0896 16.1604L13.4513 16.3874L11.923 14.8546L9.01995 14.6275C8.88989 14.6153 8.76982 14.5525 8.6856 14.4527C8.60138 14.3529 8.55975 14.2239 8.56968 14.0937C8.57961 13.9634 8.6403 13.8423 8.73868 13.7564C8.83706 13.6705 8.96525 13.6266 9.09565 13.6343L10.8526 13.7857L9.32501 12.2566L8.48552 12.1809C8.37526 12.1784 8.26935 12.1375 8.18607 12.0652C8.1028 11.9929 8.04739 11.8937 8.02944 11.7849C8.01148 11.6761 8.0321 11.5645 8.08773 11.4692C8.14337 11.374 8.23052 11.3012 8.33412 11.2634L5.58173 8.50954C5.43985 8.3755 5.32631 8.21435 5.24784 8.03563C5.16937 7.85692 5.12756 7.66427 5.12489 7.46911C5.12223 7.27394 5.15875 7.08022 5.23231 6.89943C5.30587 6.71864 5.41497 6.55445 5.55314 6.41658C5.69131 6.27872 5.85574 6.16999 6.03669 6.09682C6.21765 6.02366 6.41144 5.98756 6.6066 5.99066C6.80176 5.99375 6.99432 6.03599 7.17286 6.11485C7.3514 6.19372 7.5123 6.30761 7.64602 6.44979L10.3954 9.20066C10.4284 9.12273 10.4802 9.05423 10.5463 9.00137C10.6124 8.9485 10.6906 8.91293 10.7739 8.89787C10.9021 8.90116 11.0253 8.94848 11.1227 9.03188C11.2202 9.11528 11.286 9.22967 11.3091 9.35584L11.3848 10.1968L12.9123 11.7244L12.761 9.96749C12.7509 9.83568 12.7936 9.70529 12.8797 9.605C12.9658 9.5047 13.0883 9.44272 13.2201 9.43268C13.3519 9.42264 13.4823 9.46537 13.5825 9.55147C13.6828 9.63757 13.7448 9.75998 13.7549 9.89179L13.982 12.7948L15.5096 14.3232L15.2825 10.9614C15.2724 10.8296 15.3151 10.6992 15.4012 10.5989C15.4873 10.4986 15.6098 10.4366 15.7416 10.4266C15.8734 10.4166 16.0038 10.4593 16.1041 10.5454C16.2044 10.6315 16.2663 10.7539 16.2764 10.8857L16.5792 15.3935L18.4898 17.3034C18.683 15.4836 18.4605 13.6436 17.8391 11.9223C17.2177 10.201 16.2136 8.64323 14.9025 7.3665C13.3943 5.86987 11.5293 4.7827 9.48388 4.20782C7.43842 3.63294 5.28013 3.58936 3.21314 4.08119C2.71912 6.14821 2.76162 8.3072 3.33661 10.3532C3.9116 12.3991 4.99998 14.2642 6.49844 15.7713C7.7715 17.0865 9.32808 18.0937 11.0495 18.7161C12.7709 19.3384 14.6117 19.5595 16.4316 19.3624Z" fill="#3CA3DD"/>
<path id="Path 786" d="M24.9881 17.3757L26.898 15.4658L27.2008 10.9572C27.2129 10.8271 27.2757 10.7071 27.3755 10.6229C27.4754 10.5386 27.6043 10.497 27.7346 10.5069C27.8648 10.5169 27.9859 10.5776 28.0719 10.6759C28.1578 10.7743 28.2016 10.9025 28.1939 11.0329L27.9668 14.3954L29.4944 12.8671L29.7215 9.96328C29.7265 9.89812 29.7443 9.83458 29.7738 9.77628C29.8033 9.71798 29.844 9.66606 29.8936 9.6235C29.9432 9.58094 30.0007 9.54856 30.0628 9.52822C30.1249 9.50787 30.1904 9.49996 30.2556 9.50493C30.3207 9.5099 30.3843 9.52766 30.4426 9.55719C30.5009 9.58671 30.5528 9.62744 30.5954 9.67703C30.6379 9.72662 30.6703 9.78411 30.6906 9.84621C30.711 9.90832 30.7189 9.97382 30.7139 10.039L30.5625 11.7959L32.0962 10.2699L32.1719 9.42961C32.1851 9.29899 32.248 9.17845 32.3477 9.09292C32.4473 9.0074 32.5759 8.96343 32.7071 8.97012C32.7904 8.98493 32.8688 9.0204 32.9349 9.0733C33.001 9.12619 33.0528 9.19482 33.0856 9.27291L35.8364 6.52204C35.9645 6.3901 36.1197 6.28758 36.2913 6.22158C36.463 6.15557 36.6469 6.12766 36.8303 6.13977C37.1128 6.1416 37.3887 6.22529 37.6246 6.38068C37.8605 6.53607 38.0462 6.75652 38.1594 7.01532C38.2726 7.27412 38.3083 7.56019 38.2623 7.83888C38.2162 8.11757 38.0904 8.37694 37.9 8.58558C37.8243 8.66127 35.2248 11.2592 35.1491 11.3357C35.2271 11.3685 35.2957 11.4203 35.3486 11.4864C35.4015 11.5525 35.437 11.6308 35.4519 11.7142C35.449 11.842 35.4024 11.9649 35.3197 12.0623C35.237 12.1597 35.1233 12.2258 34.9977 12.2494L34.1567 12.3251L32.6261 13.861L34.4602 13.7096C34.5261 13.7034 34.5925 13.7104 34.6556 13.7302C34.7187 13.75 34.7772 13.7821 34.8278 13.8248C34.8783 13.8674 34.9199 13.9197 34.95 13.9786C34.9801 14.0374 34.9983 14.1017 35.0033 14.1677C35.0083 14.2336 35.0001 14.2999 34.9793 14.3626C34.9584 14.4254 34.9253 14.4834 34.8818 14.5332C34.8383 14.583 34.7853 14.6236 34.7259 14.6527C34.6665 14.6819 34.602 14.6989 34.5359 14.7027L31.6329 14.9298L30.1068 16.4574L33.4686 16.2303C33.6004 16.2203 33.7308 16.263 33.8311 16.3491C33.9314 16.4352 33.9934 16.5576 34.0034 16.6894C34.0134 16.8212 33.9707 16.9516 33.8846 17.0519C33.7985 17.1522 33.6761 17.2142 33.5443 17.2243L29.0357 17.527L27.1258 19.4377C28.9455 19.6347 30.7861 19.4138 32.5074 18.7915C34.2287 18.1693 35.7851 17.1623 37.0582 15.8473C38.5573 14.3406 39.6464 12.4757 40.2221 10.4297C40.7977 8.38375 40.8408 6.22457 40.3473 4.15723C38.2811 3.64668 36.1179 3.68101 34.069 4.25686C32.0201 4.83271 30.1556 5.93037 28.658 7.44253C27.3218 8.70318 26.2953 10.2558 25.6587 11.9789C25.022 13.7021 24.7925 15.5491 24.9881 17.3757Z" fill="#3CA3DD"/>
</g>
</svg>
