<svg width="41" height="40" viewBox="0 0 41 40" fill="none" xmlns="http://www.w3.org/2000/svg">
<path d="M2.98334 35.1858C3.11213 34.7851 2.61844 32.4955 3.41979 32.5385C4.22113 32.4955 3.72744 34.7994 3.85623 35.1858H10.2241C10.3528 34.7851 9.85915 32.4955 10.6605 32.5385C11.4618 32.4884 10.9682 34.7994 11.0969 35.1858H13.2649C12.7712 33.6403 12.7783 31.9661 13.3364 30.4636C12.3991 28.174 10.2241 26.5284 7.69123 26.2422C7.72701 26.5785 9.57296 30.2775 9.13651 30.5351C8.95764 30.6496 7.24763 32.5385 7.04014 32.4669C6.83981 32.5456 5.10833 30.6424 4.94377 30.5351C4.46439 30.3133 6.38189 26.5642 6.38905 26.2422C2.14622 26.6142 -0.765804 31.1146 0.672322 35.1142H2.99049V35.1858H2.98334Z" fill="#3CA3DD"/>
<path d="M23.8252 22.1642C23.861 18.0859 17.4216 18.0859 17.4574 22.1642C17.4216 26.2424 23.861 26.2424 23.8252 22.1642Z" fill="#3CA3DD"/>
<path d="M20.6423 31.3935L21.9445 30.1057L20.6423 26.9575L19.3401 30.1057L20.6423 31.3935Z" fill="#3CA3DD"/>
<path d="M3.92105 22.1642C3.88527 26.2424 10.3246 26.2424 10.2889 22.1642C10.3246 18.0859 3.88527 18.0859 3.92105 22.1642Z" fill="#3CA3DD"/>
<path d="M7.10467 31.3935L8.33531 30.1057L7.10467 26.9575L5.80249 30.1057L7.10467 31.3935Z" fill="#3CA3DD"/>
<path d="M36.4897 13.7212C40.06 13.7713 40.06 8.23346 36.4897 8.28354C32.9266 8.23346 32.9266 13.7713 36.4897 13.7212Z" fill="#3CA3DD"/>
<path d="M38.7369 4.27791C39.9604 4.2636 39.9604 6.15248 38.7369 6.13818C37.5135 6.15248 37.5135 4.2636 38.7369 4.27791Z" fill="#3CA3DD"/>
<path d="M40.6177 35.1865C42.0916 31.1583 39.1152 26.5863 34.901 26.3145C34.9368 26.6507 36.7827 30.3498 36.3463 30.6074C36.1674 30.7218 34.4574 32.6107 34.2499 32.5392C34.0495 32.6179 32.3181 30.7147 32.1535 30.6074C31.6741 30.3856 33.5916 26.6364 33.5988 26.3145C31.1375 26.6006 28.8909 28.1747 27.9536 30.5358C28.5117 32.0169 28.5188 33.7627 28.0252 35.258H30.1931C30.3219 34.8573 29.8282 32.5678 30.6295 32.6107C31.4309 32.5606 30.9372 34.8717 31.066 35.258H37.4338C37.5626 34.8573 37.0689 32.5678 37.8702 32.6107C38.6716 32.5606 38.1779 34.8717 38.3067 35.258H40.6249V35.1865H40.6177Z" fill="#3CA3DD"/>
<path d="M27.0088 35.1865C28.4827 31.1583 25.5063 26.5863 21.2921 26.3145C21.3278 26.6507 23.1738 30.3498 22.7373 30.6074C22.5585 30.7218 20.8485 32.6107 20.641 32.5392C20.4406 32.6179 18.7092 30.7147 18.5446 30.6074C18.0652 30.3856 19.9827 26.6364 19.9899 26.3145C15.7471 26.6865 12.835 31.1869 14.2732 35.1865H16.5913C16.7201 34.7858 16.2264 32.4962 17.0278 32.5392C17.8291 32.4962 17.3354 34.8001 17.4642 35.1865H23.832C23.9608 34.7858 23.4671 32.4962 24.2685 32.5392C25.0698 32.4962 24.5761 34.8001 24.7049 35.1865H27.0088Z" fill="#3CA3DD"/>
<path d="M34.2499 25.3125C38.3711 25.3483 38.3711 18.9805 34.2499 19.0163C30.1502 18.9805 30.0715 25.3626 34.2499 25.3125Z" fill="#3CA3DD"/>
<path d="M35.4811 30.1057L34.2504 26.9575L32.9482 30.1057L34.2504 31.3935L35.4811 30.1057Z" fill="#3CA3DD"/>
<path d="M11.5907 17.2992C11.8769 17.292 17.9156 13.7432 18.1803 13.6502C18.1803 13.6502 18.1803 13.6502 18.2519 13.6502C18.2519 13.6502 18.2519 13.6502 18.2519 13.5787C18.2519 13.5787 18.2519 13.5787 18.2519 13.5071C18.2519 13.5071 18.2519 13.5071 18.2519 13.4356C18.2519 13.4356 18.2519 13.4356 18.2519 13.364C18.2519 13.364 18.2519 13.364 18.2519 13.2925C18.2519 13.2925 18.2519 13.2925 18.2519 13.2209V6.92465C18.3019 6.109 15.669 6.63846 15.2826 6.49536L20.6416 1.34387L25.8503 6.49536C25.4496 6.63846 22.8381 6.109 22.881 6.92465V13.2209C22.881 13.2209 22.881 13.2209 22.881 13.2925C22.881 13.2925 22.881 13.2925 22.881 13.364C22.881 13.364 22.881 13.364 22.881 13.4356C22.881 13.4356 22.881 13.4356 22.881 13.5071C22.881 13.5071 22.881 13.5071 22.881 13.5787C22.881 13.5787 22.881 13.5787 22.881 13.6502C22.881 13.6502 22.881 13.6502 22.9526 13.6502C23.203 13.7361 29.2703 17.2992 29.5351 17.2992C31.8246 16.7268 23.6967 13.3354 23.6752 13.0063V7.42549C24.1045 7.20369 28.0397 8.05512 27.224 6.63846L20.8562 0.342186C20.7131 0.199089 20.4198 0.199089 20.2051 0.342186L13.8373 6.63846C12.9716 8.01934 16.9568 7.22516 17.3861 7.42549V13.0063C17.3217 13.3712 9.10795 16.7697 11.5907 17.2992Z" fill="#3CA3DD"/>
<path d="M40.5468 38.7634C40.0889 39.1855 0.264994 37.9477 0.307923 39.1927C0.250684 40.4376 40.1104 39.1998 40.5468 39.622C41.0834 39.6077 41.1121 38.7777 40.5468 38.7634Z" fill="#3CA3DD"/>
<path d="M4.35736 12.7917C7.26223 12.8275 7.26223 8.31991 4.35736 8.35568C1.44533 8.31991 1.44533 12.8275 4.35736 12.7917Z" fill="#3CA3DD"/>
<path d="M30.6303 4.27791C31.8537 4.2636 31.8537 6.15964 30.6303 6.13818C29.4068 6.15248 29.4068 4.2636 30.6303 4.27791Z" fill="#3CA3DD"/>
<path d="M9.78773 4.27791C11.0112 4.2636 11.0112 6.15248 9.78773 6.13818C8.56425 6.15248 8.56425 4.2636 9.78773 4.27791Z" fill="#3CA3DD"/>
<path d="M1.68128 15.8683C2.90476 15.854 2.90476 17.7429 1.68128 17.7286C0.457802 17.7429 0.457802 15.8469 1.68128 15.8683Z" fill="#3CA3DD"/>
</svg>
