<svg width="44" height="42" viewBox="0 0 44 42" fill="none" xmlns="http://www.w3.org/2000/svg">
<g id="Group_538">
<g id="Clip path group">
<mask id="mask0_1413_3071" style="mask-type:luminance" maskUnits="userSpaceOnUse" x="2" y="0" width="40" height="40">
<g id="clip-path">
<path id="Rectangle 325" d="M42 0.90918H2V39.091H42V0.90918Z" fill="white"/>
</g>
</mask>
<g mask="url(#mask0_1413_3071)">
<g id="Group 537">
<path id="Path 787" d="M3.65002 21.9887H29.3124C29.4231 21.9881 29.5317 21.9583 29.6272 21.9023C29.7227 21.8464 29.8018 21.7662 29.8563 21.67C29.9108 21.5738 29.939 21.4649 29.9379 21.3543C29.9367 21.2438 29.9064 21.1355 29.8499 21.0404L27.5688 17.2531C27.3547 17.4607 27.093 17.6129 26.8064 17.6963C26.5199 17.7798 26.2173 17.792 25.9249 17.7319C25.8995 17.8763 25.8554 18.0168 25.7935 18.1498C25.6688 18.4112 25.4856 18.6406 25.258 18.8202C25.0305 18.9998 24.7647 19.1249 24.4811 19.1858L20.7018 19.9359C20.5651 19.971 20.4243 19.9871 20.2832 19.9838C20.0303 19.9818 19.7806 19.927 19.5503 19.8227C19.3199 19.7185 19.114 19.5673 18.9458 19.3787C18.8805 19.3095 18.8219 19.2343 18.7707 19.1542C18.4681 19.364 18.1078 19.4752 17.7393 19.4725C17.3715 19.4716 17.0124 19.3607 16.7083 19.1542L13.4752 17.0094C13.2388 16.8527 13.0422 16.6432 12.9011 16.3973C12.76 16.1515 12.6783 15.8762 12.6624 15.5934C12.656 15.4343 12.6686 15.275 12.6998 15.1189C12.3405 15.0517 12.0097 14.8784 11.7501 14.6215C11.4905 14.3645 11.3142 14.0356 11.244 13.6775L11.1111 13.0288L9.4735 14.6637V11.5811C9.4735 11.416 9.40782 11.2577 9.29092 11.141C9.17401 11.0243 9.01544 10.9587 8.85011 10.9587H5.94988C5.78477 10.9595 5.62665 11.0253 5.5099 11.1419C5.39316 11.2584 5.32723 11.4163 5.32648 11.5811V18.8066L3.20645 20.9202C3.11981 21.008 3.06112 21.1195 3.03774 21.2405C3.01436 21.3616 3.02735 21.4868 3.07506 21.6005C3.1211 21.7151 3.20058 21.8133 3.30319 21.8823C3.4058 21.9512 3.5268 21.9878 3.6505 21.9873" fill="#3CA3DD"/>
<path id="Path 788" d="M13.317 13.8386L14.6779 13.1071C14.8645 13.4395 15.0785 13.7559 15.3176 14.0531L14.1255 15.0397C14.0552 15.0971 13.9991 15.17 13.9618 15.2526C13.9244 15.3353 13.9068 15.4255 13.9102 15.5161C13.9144 15.6069 13.9403 15.6955 13.9859 15.7743C14.0315 15.8531 14.0953 15.9198 14.172 15.9689L17.4223 18.128C17.4976 18.1785 17.5837 18.2106 17.6736 18.2218C17.7636 18.233 17.855 18.2229 17.9404 18.1925C18.0258 18.162 18.1028 18.112 18.1653 18.0465C18.2278 17.9809 18.2741 17.9016 18.3003 17.8149L18.754 16.3309C19.1189 16.4368 19.4924 16.5107 19.8703 16.5516L19.7188 18.1017C19.7102 18.1917 19.7228 18.2824 19.7556 18.3666C19.7885 18.4509 19.8406 18.5262 19.9079 18.5867C19.9751 18.6472 20.0556 18.6912 20.143 18.715C20.2303 18.7389 20.322 18.742 20.4107 18.724L24.2427 17.9638C24.3319 17.9464 24.4157 17.9084 24.4874 17.8528C24.5592 17.7972 24.6169 17.7256 24.6559 17.6437C24.6948 17.5618 24.714 17.4719 24.7119 17.3813C24.7098 17.2906 24.6864 17.2017 24.6436 17.1217L23.8821 15.6999C24.1789 15.5084 24.5333 15.269 24.8244 15.0728L25.8477 16.3175C25.9062 16.3871 25.9801 16.4422 26.0636 16.4784C26.1471 16.5145 26.238 16.5307 26.3289 16.5256C26.4197 16.5205 26.5082 16.4944 26.5872 16.4492C26.6661 16.404 26.7335 16.341 26.7838 16.2653L28.9455 13.0209C28.9961 12.9453 29.0283 12.8589 29.0395 12.7686C29.0507 12.6784 29.0407 12.5868 29.0102 12.5011C28.9797 12.4154 28.9295 12.338 28.8638 12.2751C28.798 12.2121 28.7185 12.1654 28.6314 12.1386L27.1487 11.6915C27.2546 11.3251 27.3286 10.9503 27.3698 10.5712L28.9105 10.722C29.001 10.7284 29.0918 10.7146 29.1763 10.6814C29.2608 10.6483 29.3367 10.5967 29.3987 10.5305C29.4597 10.4643 29.5037 10.3842 29.527 10.2973C29.5503 10.2103 29.5522 10.119 29.5325 10.0312L28.771 6.20614C28.754 6.11712 28.7162 6.03337 28.6606 5.96173C28.605 5.89009 28.5332 5.8326 28.4511 5.79395C28.3689 5.75559 28.2789 5.73666 28.1882 5.73866C28.0975 5.74065 28.0084 5.7635 27.9279 5.80544L26.5728 6.52354C26.3876 6.19149 26.1757 5.87497 25.9393 5.57708L27.1276 4.60286C27.1962 4.54443 27.2507 4.47128 27.2869 4.38888C27.3232 4.30648 27.3404 4.21696 27.3372 4.127C27.3323 4.03548 27.3061 3.94635 27.2607 3.86673C27.2152 3.7871 27.1517 3.71918 27.0753 3.66838L23.8226 1.50881C23.7468 1.45736 23.6598 1.42474 23.5688 1.41367C23.4778 1.40259 23.3855 1.41338 23.2995 1.44514C23.2146 1.4766 23.1381 1.52691 23.0756 1.59226C23.0131 1.65762 22.9664 1.73631 22.9389 1.82238L22.4967 3.28539C22.1304 3.17589 21.7548 3.10009 21.3746 3.05895L21.5185 1.54376C21.5271 1.45312 21.5142 1.36174 21.4809 1.27699C21.4476 1.19225 21.3947 1.11652 21.3267 1.05593C21.2604 0.995499 21.1805 0.951829 21.0938 0.928588C21.0071 0.905346 20.9161 0.903212 20.8284 0.922364L17.0022 1.68307C16.9131 1.7002 16.8293 1.73803 16.7576 1.7935C16.6858 1.84898 16.6282 1.92054 16.5893 2.00239C16.5525 2.08489 16.5344 2.17452 16.5364 2.26482C16.5384 2.35513 16.5604 2.44387 16.6008 2.52468L17.3201 3.86514C16.9851 4.05057 16.6666 4.26439 16.3683 4.50424L15.3972 3.3256C15.3386 3.2572 15.2654 3.20289 15.1828 3.16675C15.1003 3.1306 15.0106 3.11355 14.9205 3.11688C14.8297 3.12126 14.7413 3.14722 14.6625 3.1926C14.5838 3.23798 14.5171 3.30147 14.4679 3.37779L12.2989 6.62312C12.2476 6.69892 12.2151 6.7858 12.204 6.8766C12.1929 6.9674 12.2036 7.05953 12.2351 7.14541C12.2667 7.23007 12.3171 7.30646 12.3826 7.36882C12.448 7.43119 12.5268 7.47789 12.613 7.50542L14.0842 7.94633C13.9761 8.3123 13.9021 8.68747 13.8632 9.06705L12.3287 8.92343C12.2381 8.91653 12.1471 8.93018 12.0626 8.96334C11.9781 8.9965 11.9021 9.04832 11.8405 9.11492C11.7795 9.1811 11.7355 9.26104 11.7122 9.34792C11.6889 9.43479 11.687 9.52601 11.7067 9.61376L12.474 13.4393C12.4919 13.528 12.5302 13.6112 12.586 13.6825C12.6417 13.7538 12.7133 13.8112 12.7951 13.85C12.8769 13.8889 12.9667 13.9083 13.0572 13.9065C13.1478 13.9048 13.2367 13.882 13.317 13.84M19.9734 6.58817C20.6148 6.45987 21.2799 6.52441 21.8845 6.77363C22.4892 7.02285 23.0062 7.44554 23.3701 7.98821C23.734 8.53088 23.9284 9.16913 23.9288 9.82217C23.9292 10.4752 23.7356 11.1137 23.3724 11.6568C23.0091 12.2 22.4927 12.6233 21.8883 12.8733C21.284 13.1232 20.619 13.1886 19.9774 13.0611C19.3359 12.9336 18.7467 12.6189 18.2843 12.157C17.8219 11.695 17.5073 11.1065 17.3801 10.4659C17.2092 9.60839 17.3864 8.71823 17.8727 7.99108C18.359 7.26393 19.1146 6.75932 19.9734 6.58817Z" fill="#3CA3DD"/>
<path id="Path 789" d="M41.375 37.8432H39.8937C40.056 37.5327 40.1417 37.188 40.1435 36.8378V25.6834C40.1441 25.6015 40.1283 25.5203 40.0972 25.4445C40.0661 25.3688 40.0202 25.2999 39.9622 25.242C39.9042 25.1841 39.8352 25.1383 39.7593 25.1072C39.6835 25.0761 39.6021 25.0604 39.5201 25.061H33.5312C33.3659 25.061 33.2073 25.1266 33.0904 25.2433C32.9735 25.36 32.9078 25.5183 32.9078 25.6834V36.8378C32.9096 37.188 32.9953 37.5327 33.1576 37.8432H28.4625V23.2361H4.50632V37.8432H2.62319C2.45747 37.8432 2.29854 37.9089 2.18136 38.0259C2.06418 38.1429 1.99835 38.3015 1.99835 38.467C1.99835 38.6324 2.06418 38.7911 2.18136 38.9081C2.29854 39.025 2.45747 39.0908 2.62319 39.0908H41.375C41.5407 39.0908 41.6996 39.025 41.8168 38.9081C41.934 38.7911 41.9998 38.6324 41.9998 38.467C41.9998 38.3015 41.934 38.1429 41.8168 38.0259C41.6996 37.9089 41.5407 37.8432 41.375 37.8432ZM19.7124 33.6251L19.7747 37.8432H18.5251L18.456 33.3192C18.455 33.216 18.4797 33.1141 18.5277 33.0227C18.5757 32.9314 18.6457 32.8533 18.7313 32.7954C20.9937 31.2491 21.2287 28.1517 19.1748 26.5556L19.1873 28.1833C19.1872 28.2722 19.1689 28.3601 19.1334 28.4416C19.0979 28.5231 19.0461 28.5965 18.9811 28.6573L16.8314 30.5722C16.7198 30.6729 16.5757 30.7302 16.4253 30.7336C16.2749 30.737 16.1284 30.6864 16.0123 30.5909L13.981 28.8957C13.9126 28.8365 13.8572 28.7638 13.8185 28.6821C13.7798 28.6004 13.7585 28.5116 13.7561 28.4212L13.7436 26.8864C11.7555 28.6855 11.9602 31.7508 14.2562 33.0448C14.3512 33.0993 14.4304 33.1774 14.4862 33.2714C14.5421 33.3654 14.5727 33.4722 14.5751 33.5815L14.6375 37.8422H13.3873L13.3312 33.9415C10.1116 31.815 10.4876 27.0478 14.0687 25.152C14.1638 25.1009 14.2705 25.0754 14.3784 25.0778C14.4863 25.0803 14.5917 25.1107 14.6843 25.166C14.777 25.2214 14.8536 25.2998 14.9067 25.3936C14.9599 25.4874 14.9877 25.5933 14.9875 25.7011L15.0062 28.1283L16.3998 29.2887L17.9314 27.9157L17.9122 25.4823C17.9124 25.3786 17.9382 25.2766 17.9873 25.1853C18.0364 25.0939 18.1073 25.0161 18.1937 24.9586C18.2791 24.9008 18.3776 24.8654 18.4802 24.8555C18.5828 24.8456 18.6863 24.8616 18.7811 24.9021C22.4386 26.4288 22.8807 31.1797 19.7124 33.6251Z" fill="#3CA3DD"/>
<path id="Path 790" d="M40.0223 19.7513C40.0223 20.4407 39.8175 21.1146 39.4339 21.6878C39.0502 22.261 38.5049 22.7078 37.8669 22.9716C37.2289 23.2354 36.5269 23.3045 35.8496 23.17C35.1723 23.0355 34.5502 22.7035 34.0619 22.216C33.5736 21.7285 33.2411 21.1074 33.1064 20.4313C32.9716 19.7551 33.0408 19.0543 33.3051 18.4174C33.5693 17.7805 34.0168 17.2361 34.591 16.8531C35.1652 16.4701 35.8402 16.2656 36.5308 16.2656C37.4568 16.2656 38.3449 16.6329 38.9996 17.2866C39.6544 17.9402 40.0223 18.8268 40.0223 19.7513Z" fill="#3CA3DD"/>
<path id="Path 791" d="M39.7557 24.3386H33.3002C33.0084 24.3131 32.7182 24.403 32.4922 24.5891C32.2662 24.7752 32.1226 25.0426 32.0922 25.3334V31.9945C32.1035 32.1323 32.1689 32.26 32.2743 32.3497C32.3796 32.4394 32.5162 32.4838 32.6543 32.4733H32.7439V37.6326C32.7439 38.4359 33.5419 39.0908 34.5249 39.0908H38.5981C39.5816 39.0908 40.3796 38.4359 40.3796 37.6326V32.4728H40.4074C40.5454 32.4832 40.682 32.4388 40.7873 32.3491C40.8925 32.2594 40.958 32.1318 40.9694 31.9941V25.343C40.9394 25.0501 40.7954 24.7806 40.5684 24.5926C40.3414 24.4046 40.0496 24.3131 39.7557 24.3377" fill="#3CA3DD"/>
</g>
</g>
</g>
</g>
</svg>
