<svg width="41" height="42" viewBox="0 0 41 42" fill="none" xmlns="http://www.w3.org/2000/svg">
<path d="M26.6366 37.0068H13.7896V41.915H26.6366V37.0068Z" fill="#3CA3DD"/>
<path d="M12.847 37.0068H0V41.915H12.847V37.0068Z" fill="#3CA3DD"/>
<path d="M26.6366 25.3203H13.7896V30.2285H26.6366V25.3203Z" fill="#3CA3DD"/>
<path d="M29.5506 2.95996H24.5879V19.5544H26.559C26.5512 19.3362 26.5668 13.5087 26.559 13.1659C26.5122 12.3011 29.052 12.8387 29.4727 12.6985V2.95996H29.5506Z" fill="#3CA3DD"/>
<path d="M26.6366 31.1631H13.7896V36.0713H26.6366V31.1631Z" fill="#3CA3DD"/>
<path d="M4.4092 4.90846C6.31016 4.963 6.39586 1.87784 4.4092 1.94795C2.42255 1.87784 2.50825 4.963 4.4092 4.90846Z" fill="#3CA3DD"/>
<path d="M1.49543 24.385C3.39639 24.4396 3.48208 21.3544 1.49543 21.4245C-0.460065 21.4245 -0.460065 24.3928 1.49543 24.385Z" fill="#3CA3DD"/>
<path d="M11.8963 9.73877H6.93359V19.4773H11.8963V9.73877Z" fill="#3CA3DD"/>
<path d="M23.6446 2.49306V0H18.7598C18.7598 4.43297 18.7598 14.9428 18.7598 19.477H23.6446V2.49306Z" fill="#3CA3DD"/>
<path d="M17.732 7.79102H12.8472C12.8472 8.313 12.8472 18.5969 12.8472 19.4772H17.732V7.79102Z" fill="#3CA3DD"/>
<path d="M12.847 31.1631H0V36.0713H12.847V31.1631Z" fill="#3CA3DD"/>
<path d="M38.4551 6.85592C41.0183 6.91045 41.0183 2.90598 38.4551 2.96051C35.8997 2.90598 35.8997 6.91045 38.4551 6.85592Z" fill="#3CA3DD"/>
<path d="M40.4257 13.6343H27.5786V18.5425H40.4257V13.6343Z" fill="#3CA3DD"/>
<path d="M40.4257 37.0068H27.5786V41.915H40.4257V37.0068Z" fill="#3CA3DD"/>
<path d="M40.4257 19.4771H27.5786V24.3853H40.4257V19.4771Z" fill="#3CA3DD"/>
<path d="M40.4257 31.1631H27.5786V36.0713H40.4257V31.1631Z" fill="#3CA3DD"/>
<path d="M40.4257 25.3203H27.5786V30.2285H40.4257V25.3203Z" fill="#3CA3DD"/>
</svg>
